STARTFONT 2.1
COMMENT
COMMENT Converted from OpenType font "OpenSans-Light.ttf" by "otf2bdf 3.0".
COMMENT
FONT -FreeType-Open Sans Light-Medium-R-Normal--21-100-149-149-P-104-ISO10646-1
SIZE 10 149 149
FONTBOUNDINGBOX 34 27 -10 -5
STARTPROPERTIES 19
FOUNDRY "FreeType"
FAMILY_NAME "Open Sans Light"
WEIGHT_NAME "Medium"
SLANT "R"
SETWIDTH_NAME "Normal"
ADD_STYLE_NAME ""
PIXEL_SIZE 21
POINT_SIZE 100
RESOLUTION_X 149
RESOLUTION_Y 149
SPACING "P"
AVERAGE_WIDTH 104
CHARSET_REGISTRY "ISO10646"
CHARSET_ENCODING "1"
FONT_ASCENT 22
FONT_DESCENT 6
COPYRIGHT "Digitized data copyright © 2010-2011, Google Corporation."
_OTF_FONTFILE "OpenSans-Light.ttf"
_OTF_PSNAME "OpenSans-Light"
ENDPROPERTIES
CHARS 883
STARTCHAR 0020
ENCODING 32
SWIDTH 241 0
DWIDTH 5 0
BBX 0 0 0 0
BITMAP
ENDCHAR
STARTCHAR 0021
ENCODING 33
SWIDTH 241 0
DWIDTH 5 0
BBX 1 15 2 0
BITMAP
80
80
80
80
80
80
80
80
80
80
80
00
00
80
80
ENDCHAR
STARTCHAR 0022
ENCODING 34
SWIDTH 338 0
DWIDTH 7 0
BBX 5 5 1 10
BITMAP
D8
88
88
88
88
ENDCHAR
STARTCHAR 0023
ENCODING 35
SWIDTH 676 0
DWIDTH 14 0
BBX 12 15 1 0
BITMAP
0440
0840
0840
0840
0840
FFF0
1080
1080
1080
FFF0
2100
2100
2100
2100
2200
ENDCHAR
STARTCHAR 0024
ENCODING 36
SWIDTH 579 0
DWIDTH 12 0
BBX 8 17 2 -1
BITMAP
10
10
3E
51
90
90
90
50
38
16
11
11
11
13
FC
10
10
ENDCHAR
STARTCHAR 0025
ENCODING 37
SWIDTH 821 0
DWIDTH 17 0
BBX 15 15 1 0
BITMAP
7810
4820
8420
8440
8440
8480
84B8
4D64
3A42
0242
0442
0442
0842
0824
1038
ENDCHAR
STARTCHAR 0026
ENCODING 38
SWIDTH 724 0
DWIDTH 15 0
BBX 13 15 1 0
BITMAP
1E00
3100
2080
2080
2100
1300
0C00
1400
6208
4110
8090
8060
C060
60D0
3F08
ENDCHAR
STARTCHAR 0027
ENCODING 39
SWIDTH 193 0
DWIDTH 4 0
BBX 2 5 1 10
BITMAP
C0
C0
40
40
40
ENDCHAR
STARTCHAR 0028
ENCODING 40
SWIDTH 289 0
DWIDTH 6 0
BBX 4 18 1 -3
BITMAP
10
20
60
40
40
80
80
80
80
80
80
80
80
40
40
60
20
10
ENDCHAR
STARTCHAR 0029
ENCODING 41
SWIDTH 289 0
DWIDTH 6 0
BBX 4 18 1 -3
BITMAP
80
40
60
20
20
10
10
10
10
10
10
10
10
20
20
60
40
80
ENDCHAR
STARTCHAR 002A
ENCODING 42
SWIDTH 579 0
DWIDTH 12 0
BBX 10 9 1 7
BITMAP
0C00
0C00
0800
C8C0
7F80
0C00
1200
3300
2100
ENDCHAR
STARTCHAR 002B
ENCODING 43
SWIDTH 579 0
DWIDTH 12 0
BBX 10 9 1 3
BITMAP
0800
0800
0800
0800
FFC0
0800
0800
0800
0800
ENDCHAR
STARTCHAR 002C
ENCODING 44
SWIDTH 241 0
DWIDTH 5 0
BBX 2 5 1 -3
BITMAP
40
40
C0
80
80
ENDCHAR
STARTCHAR 002D
ENCODING 45
SWIDTH 338 0
DWIDTH 7 0
BBX 5 1 1 5
BITMAP
F8
ENDCHAR
STARTCHAR 002E
ENCODING 46
SWIDTH 241 0
DWIDTH 5 0
BBX 1 2 2 0
BITMAP
80
80
ENDCHAR
STARTCHAR 002F
ENCODING 47
SWIDTH 338 0
DWIDTH 7 0
BBX 7 15 0 0
BITMAP
02
04
04
08
08
08
10
10
10
20
20
20
40
40
C0
ENDCHAR
STARTCHAR 0030
ENCODING 48
SWIDTH 579 0
DWIDTH 12 0
BBX 10 15 1 0
BITMAP
1E00
2100
4080
4080
C0C0
8040
8040
8040
8040
8040
C0C0
4080
4080
2100
1E00
ENDCHAR
STARTCHAR 0031
ENCODING 49
SWIDTH 579 0
DWIDTH 12 0
BBX 5 15 2 0
BITMAP
18
38
48
88
08
08
08
08
08
08
08
08
08
08
08
ENDCHAR
STARTCHAR 0032
ENCODING 50
SWIDTH 579 0
DWIDTH 12 0
BBX 10 15 1 0
BITMAP
3E00
4100
0080
0080
0080
0080
0100
0300
0200
0400
0800
1000
2000
4000
FFC0
ENDCHAR
STARTCHAR 0033
ENCODING 51
SWIDTH 579 0
DWIDTH 12 0
BBX 10 15 1 0
BITMAP
3E00
C100
0080
0080
0080
0180
0300
3E00
0180
0080
00C0
0080
0080
8180
7E00
ENDCHAR
STARTCHAR 0034
ENCODING 52
SWIDTH 579 0
DWIDTH 12 0
BBX 12 15 0 0
BITMAP
0080
0180
0280
0480
0480
0880
1080
3080
2080
4080
FFF0
0080
0080
0080
0080
ENDCHAR
STARTCHAR 0035
ENCODING 53
SWIDTH 579 0
DWIDTH 12 0
BBX 10 15 1 0
BITMAP
7F80
4000
4000
4000
4000
4000
7E00
0180
0080
0040
0040
00C0
0080
8100
7E00
ENDCHAR
STARTCHAR 0036
ENCODING 54
SWIDTH 579 0
DWIDTH 12 0
BBX 10 15 1 0
BITMAP
0F80
1000
2000
4000
4000
4000
9F00
A080
C0C0
C040
C040
4040
4080
2180
1F00
ENDCHAR
STARTCHAR 0037
ENCODING 55
SWIDTH 579 0
DWIDTH 12 0
BBX 10 15 1 0
BITMAP
FFC0
00C0
0080
0180
0100
0100
0200
0200
0400
0400
0C00
0800
0800
1000
1000
ENDCHAR
STARTCHAR 0038
ENCODING 56
SWIDTH 579 0
DWIDTH 12 0
BBX 10 15 1 0
BITMAP
1E00
6180
4080
4080
4080
6080
3300
1C00
2300
4080
8040
8040
C0C0
4180
3F00
ENDCHAR
STARTCHAR 0039
ENCODING 57
SWIDTH 579 0
DWIDTH 12 0
BBX 10 15 1 0
BITMAP
1E00
6100
4080
8080
8080
80C0
C0C0
4140
3E40
0080
0080
0080
0100
0200
7C00
ENDCHAR
STARTCHAR 003A
ENCODING 58
SWIDTH 241 0
DWIDTH 5 0
BBX 1 12 2 0
BITMAP
80
80
00
00
00
00
00
00
00
00
80
80
ENDCHAR
STARTCHAR 003B
ENCODING 59
SWIDTH 241 0
DWIDTH 5 0
BBX 2 15 1 -3
BITMAP
40
40
00
00
00
00
00
00
00
00
40
40
80
80
80
ENDCHAR
STARTCHAR 003C
ENCODING 60
SWIDTH 579 0
DWIDTH 12 0
BBX 10 10 1 2
BITMAP
0040
0180
0600
1800
6000
C000
3000
0E00
0180
0040
ENDCHAR
STARTCHAR 003D
ENCODING 61
SWIDTH 579 0
DWIDTH 12 0
BBX 10 5 1 5
BITMAP
FFC0
0000
0000
0000
FFC0
ENDCHAR
STARTCHAR 003E
ENCODING 62
SWIDTH 579 0
DWIDTH 12 0
BBX 10 10 1 2
BITMAP
8000
6000
1800
0600
0180
00C0
0300
1C00
6000
8000
ENDCHAR
STARTCHAR 003F
ENCODING 63
SWIDTH 434 0
DWIDTH 9 0
BBX 7 15 1 0
BITMAP
F8
06
02
02
02
02
0C
18
10
20
20
00
00
20
20
ENDCHAR
STARTCHAR 0040
ENCODING 64
SWIDTH 918 0
DWIDTH 19 0
BBX 17 17 1 -2
BITMAP
03F000
0C0C00
100200
200100
41F100
421080
841080
841080
841080
841080
843100
843100
43CE00
400000
200000
181000
07E000
ENDCHAR
STARTCHAR 0041
ENCODING 65
SWIDTH 628 0
DWIDTH 13 0
BBX 13 15 0 0
BITMAP
0200
0300
0500
0500
0C80
0880
08C0
1040
1040
3FE0
2020
6030
4010
4010
8008
ENDCHAR
STARTCHAR 0042
ENCODING 66
SWIDTH 628 0
DWIDTH 13 0
BBX 10 15 2 0
BITMAP
FE00
8180
8080
8080
8080
8080
8100
FE00
8180
80C0
8040
8040
80C0
8180
FE00
ENDCHAR
STARTCHAR 0043
ENCODING 67
SWIDTH 628 0
DWIDTH 13 0
BBX 11 15 1 0
BITMAP
07E0
1820
2000
4000
4000
4000
8000
8000
8000
C000
4000
4000
2000
1800
0FE0
ENDCHAR
STARTCHAR 0044
ENCODING 68
SWIDTH 724 0
DWIDTH 15 0
BBX 12 15 2 0
BITMAP
FF00
8180
8040
8020
8020
8030
8030
8010
8030
8020
8020
8020
8040
8180
FE00
ENDCHAR
STARTCHAR 0045
ENCODING 69
SWIDTH 579 0
DWIDTH 12 0
BBX 9 15 2 0
BITMAP
FF80
8000
8000
8000
8000
8000
8000
FF00
8000
8000
8000
8000
8000
8000
FF80
ENDCHAR
STARTCHAR 0046
ENCODING 70
SWIDTH 531 0
DWIDTH 11 0
BBX 9 15 2 0
BITMAP
FF80
8000
8000
8000
8000
8000
8000
FF00
8000
8000
8000
8000
8000
8000
8000
ENDCHAR
STARTCHAR 0047
ENCODING 71
SWIDTH 724 0
DWIDTH 15 0
BBX 12 15 1 0
BITMAP
07E0
1810
2000
6000
4000
4000
C000
81F0
8010
C010
4010
4010
2010
1810
0FE0
ENDCHAR
STARTCHAR 0048
ENCODING 72
SWIDTH 724 0
DWIDTH 15 0
BBX 11 15 2 0
BITMAP
8020
8020
8020
8020
8020
8020
8020
FFE0
8020
8020
8020
8020
8020
8020
8020
ENDCHAR
STARTCHAR 0049
ENCODING 73
SWIDTH 241 0
DWIDTH 5 0
BBX 1 15 2 0
BITMAP
80
80
80
80
80
80
80
80
80
80
80
80
80
80
80
ENDCHAR
STARTCHAR 004A
ENCODING 74
SWIDTH 241 0
DWIDTH 5 0
BBX 5 19 -2 -4
BITMAP
08
08
08
08
08
08
08
08
08
08
08
08
08
08
08
08
08
18
F0
ENDCHAR
STARTCHAR 004B
ENCODING 75
SWIDTH 579 0
DWIDTH 12 0
BBX 10 15 2 0
BITMAP
8080
8100
8200
8600
8C00
9800
B000
F800
C800
8400
8200
8200
8100
8080
80C0
ENDCHAR
STARTCHAR 004C
ENCODING 76
SWIDTH 531 0
DWIDTH 11 0
BBX 9 15 2 0
BITMAP
8000
8000
8000
8000
8000
8000
8000
8000
8000
8000
8000
8000
8000
8000
FF80
ENDCHAR
STARTCHAR 004D
ENCODING 77
SWIDTH 869 0
DWIDTH 18 0
BBX 14 15 2 0
BITMAP
C00C
C00C
A014
A014
B014
9024
9024
8844
8844
8C44
8484
8484
8304
8304
8304
ENDCHAR
STARTCHAR 004E
ENCODING 78
SWIDTH 724 0
DWIDTH 15 0
BBX 11 15 2 0
BITMAP
8020
C020
A020
A020
9020
8820
8820
8420
8220
8220
8120
80A0
80A0
8060
8020
ENDCHAR
STARTCHAR 004F
ENCODING 79
SWIDTH 773 0
DWIDTH 16 0
BBX 14 15 1 0
BITMAP
0FC0
1820
2010
4008
4008
C00C
8004
8004
8004
C00C
4008
4008
2010
1020
0FC0
ENDCHAR
STARTCHAR 0050
ENCODING 80
SWIDTH 579 0
DWIDTH 12 0
BBX 9 15 2 0
BITMAP
FE00
8300
8180
8080
8080
8080
8100
8300
FC00
8000
8000
8000
8000
8000
8000
ENDCHAR
STARTCHAR 0051
ENCODING 81
SWIDTH 773 0
DWIDTH 16 0
BBX 14 18 1 -3
BITMAP
0FC0
1820
2010
4008
4008
C00C
8004
8004
8004
C00C
4008
4008
2010
1020
0FC0
00C0
0060
0030
ENDCHAR
STARTCHAR 0052
ENCODING 82
SWIDTH 579 0
DWIDTH 12 0
BBX 9 15 2 0
BITMAP
FC00
8300
8100
8080
8080
8180
8100
8300
FC00
8400
8200
8200
8100
8180
8080
ENDCHAR
STARTCHAR 0053
ENCODING 83
SWIDTH 531 0
DWIDTH 11 0
BBX 9 15 1 0
BITMAP
3F00
6000
C000
8000
8000
4000
3000
1C00
0300
0180
0080
0080
0080
0300
FE00
ENDCHAR
STARTCHAR 0054
ENCODING 84
SWIDTH 531 0
DWIDTH 11 0
BBX 11 15 0 0
BITMAP
FFE0
0400
0400
0400
0400
0400
0400
0400
0400
0400
0400
0400
0400
0400
0400
ENDCHAR
STARTCHAR 0055
ENCODING 85
SWIDTH 724 0
DWIDTH 15 0
BBX 11 15 2 0
BITMAP
8020
8020
8020
8020
8020
8020
8020
8020
8020
8020
8020
8020
4040
60C0
1F00
ENDCHAR
STARTCHAR 0056
ENCODING 86
SWIDTH 579 0
DWIDTH 12 0
BBX 12 15 0 0
BITMAP
8010
4020
4020
4020
2040
2040
2040
1080
1080
0900
0900
0900
0600
0600
0600
ENDCHAR
STARTCHAR 0057
ENCODING 87
SWIDTH 918 0
DWIDTH 19 0
BBX 17 15 1 0
BITMAP
808080
814080
814080
414100
414100
422100
422100
222200
241200
241200
341200
141400
180C00
180C00
080800
ENDCHAR
STARTCHAR 0058
ENCODING 88
SWIDTH 531 0
DWIDTH 11 0
BBX 11 15 0 0
BITMAP
4040
6040
2080
1100
1100
0A00
0E00
0400
0A00
1B00
1100
2080
2080
4040
8060
ENDCHAR
STARTCHAR 0059
ENCODING 89
SWIDTH 531 0
DWIDTH 11 0
BBX 11 15 0 0
BITMAP
8020
4040
6040
2080
3180
1100
1B00
0A00
0400
0400
0400
0400
0400
0400
0400
ENDCHAR
STARTCHAR 005A
ENCODING 90
SWIDTH 579 0
DWIDTH 12 0
BBX 10 15 1 0
BITMAP
FFC0
0080
0080
0100
0200
0200
0400
0C00
0800
1000
3000
2000
4000
C000
FFC0
ENDCHAR
STARTCHAR 005B
ENCODING 91
SWIDTH 338 0
DWIDTH 7 0
BBX 4 18 2 -3
BITMAP
F0
80
80
80
80
80
80
80
80
80
80
80
80
80
80
80
80
F0
ENDCHAR
STARTCHAR 005C
ENCODING 92
SWIDTH 338 0
DWIDTH 7 0
BBX 7 15 0 0
BITMAP
80
40
40
20
20
20
10
10
10
08
08
08
04
04
02
ENDCHAR
STARTCHAR 005D
ENCODING 93
SWIDTH 338 0
DWIDTH 7 0
BBX 4 18 1 -3
BITMAP
F0
10
10
10
10
10
10
10
10
10
10
10
10
10
10
10
10
F0
ENDCHAR
STARTCHAR 005E
ENCODING 94
SWIDTH 579 0
DWIDTH 12 0
BBX 10 9 1 6
BITMAP
0C00
0C00
1200
1200
2100
2100
4080
4080
8040
ENDCHAR
STARTCHAR 005F
ENCODING 95
SWIDTH 434 0
DWIDTH 9 0
BBX 9 1 0 -3
BITMAP
FF80
ENDCHAR
STARTCHAR 0060
ENCODING 96
SWIDTH 579 0
DWIDTH 12 0
BBX 4 3 4 13
BITMAP
C0
60
10
ENDCHAR
STARTCHAR 0061
ENCODING 97
SWIDTH 531 0
DWIDTH 11 0
BBX 8 12 1 0
BITMAP
3E
43
01
01
01
3F
41
81
81
81
C3
7D
ENDCHAR
STARTCHAR 0062
ENCODING 98
SWIDTH 628 0
DWIDTH 13 0
BBX 10 16 2 0
BITMAP
8000
8000
8000
8000
9E00
E100
C080
8080
8040
8040
8040
8040
8080
C080
E100
9E00
ENDCHAR
STARTCHAR 0063
ENCODING 99
SWIDTH 483 0
DWIDTH 10 0
BBX 8 12 1 0
BITMAP
1F
20
40
40
80
80
80
80
40
40
20
1F
ENDCHAR
STARTCHAR 0064
ENCODING 100
SWIDTH 628 0
DWIDTH 13 0
BBX 10 16 1 0
BITMAP
0040
0040
0040
0040
1E40
21C0
40C0
4040
8040
8040
8040
8040
4040
40C0
21C0
1E40
ENDCHAR
STARTCHAR 0065
ENCODING 101
SWIDTH 579 0
DWIDTH 12 0
BBX 10 12 1 0
BITMAP
1E00
2180
4080
40C0
8040
FFC0
8000
8000
4000
4000
2000
1F80
ENDCHAR
STARTCHAR 0066
ENCODING 102
SWIDTH 289 0
DWIDTH 6 0
BBX 7 16 0 0
BITMAP
1E
10
20
20
FC
20
20
20
20
20
20
20
20
20
20
20
ENDCHAR
STARTCHAR 0067
ENCODING 103
SWIDTH 531 0
DWIDTH 11 0
BBX 11 17 0 -5
BITMAP
1FE0
2180
6080
4080
6080
2180
1E00
2000
2000
2000
1F80
6040
4040
C040
4040
40C0
3F00
ENDCHAR
STARTCHAR 0068
ENCODING 104
SWIDTH 579 0
DWIDTH 12 0
BBX 8 16 2 0
BITMAP
80
80
80
80
BE
C3
81
81
81
81
81
81
81
81
81
81
ENDCHAR
STARTCHAR 0069
ENCODING 105
SWIDTH 241 0
DWIDTH 5 0
BBX 1 15 2 0
BITMAP
80
80
00
80
80
80
80
80
80
80
80
80
80
80
80
ENDCHAR
STARTCHAR 006A
ENCODING 106
SWIDTH 241 0
DWIDTH 5 0
BBX 4 20 -1 -5
BITMAP
10
10
00
10
10
10
10
10
10
10
10
10
10
10
10
10
10
10
10
E0
ENDCHAR
STARTCHAR 006B
ENCODING 107
SWIDTH 483 0
DWIDTH 10 0
BBX 8 16 2 0
BITMAP
80
80
80
80
82
84
8C
88
90
B0
D0
88
8C
84
82
83
ENDCHAR
STARTCHAR 006C
ENCODING 108
SWIDTH 241 0
DWIDTH 5 0
BBX 1 16 2 0
BITMAP
80
80
80
80
80
80
80
80
80
80
80
80
80
80
80
80
ENDCHAR
STARTCHAR 006D
ENCODING 109
SWIDTH 918 0
DWIDTH 19 0
BBX 15 12 2 0
BITMAP
BC7C
C386
8182
8102
8102
8102
8102
8102
8102
8102
8102
8102
ENDCHAR
STARTCHAR 006E
ENCODING 110
SWIDTH 579 0
DWIDTH 12 0
BBX 8 12 2 0
BITMAP
BE
C3
81
81
81
81
81
81
81
81
81
81
ENDCHAR
STARTCHAR 006F
ENCODING 111
SWIDTH 579 0
DWIDTH 12 0
BBX 10 12 1 0
BITMAP
1E00
2100
4080
4080
8040
8040
8040
8040
4080
4080
2100
1E00
ENDCHAR
STARTCHAR 0070
ENCODING 112
SWIDTH 628 0
DWIDTH 13 0
BBX 10 17 2 -5
BITMAP
9E00
E100
C080
8080
8040
8040
8040
8040
8080
C080
E100
9E00
8000
8000
8000
8000
8000
ENDCHAR
STARTCHAR 0071
ENCODING 113
SWIDTH 628 0
DWIDTH 13 0
BBX 10 17 1 -5
BITMAP
1E40
21C0
40C0
4040
8040
8040
8040
8040
4040
40C0
21C0
1E40
0040
0040
0040
0040
0040
ENDCHAR
STARTCHAR 0072
ENCODING 114
SWIDTH 386 0
DWIDTH 8 0
BBX 6 12 2 0
BITMAP
BC
C0
C0
80
80
80
80
80
80
80
80
80
ENDCHAR
STARTCHAR 0073
ENCODING 115
SWIDTH 483 0
DWIDTH 10 0
BBX 8 12 1 0
BITMAP
3E
40
80
80
40
38
0E
03
01
01
82
FC
ENDCHAR
STARTCHAR 0074
ENCODING 116
SWIDTH 338 0
DWIDTH 7 0
BBX 6 15 0 0
BITMAP
20
20
20
FC
20
20
20
20
20
20
20
20
20
20
1C
ENDCHAR
STARTCHAR 0075
ENCODING 117
SWIDTH 579 0
DWIDTH 12 0
BBX 8 12 2 0
BITMAP
81
81
81
81
81
81
81
81
81
81
C3
7D
ENDCHAR
STARTCHAR 0076
ENCODING 118
SWIDTH 483 0
DWIDTH 10 0
BBX 10 12 0 0
BITMAP
8040
4080
4080
4080
2100
2100
2100
1200
1200
0C00
0C00
0C00
ENDCHAR
STARTCHAR 0077
ENCODING 119
SWIDTH 724 0
DWIDTH 15 0
BBX 15 12 0 0
BITMAP
C102
4184
4284
4284
6284
2448
2448
2448
1428
1830
1830
1830
ENDCHAR
STARTCHAR 0078
ENCODING 120
SWIDTH 483 0
DWIDTH 10 0
BBX 8 12 1 0
BITMAP
81
42
42
24
18
18
18
24
24
42
C3
81
ENDCHAR
STARTCHAR 0079
ENCODING 121
SWIDTH 483 0
DWIDTH 10 0
BBX 10 17 0 -5
BITMAP
8040
4080
4080
4080
2100
2100
2100
1200
1200
0C00
0C00
0C00
0800
0800
1000
1000
E000
ENDCHAR
STARTCHAR 007A
ENCODING 122
SWIDTH 483 0
DWIDTH 10 0
BBX 8 12 1 0
BITMAP
FF
03
02
04
0C
08
10
30
20
40
C0
FF
ENDCHAR
STARTCHAR 007B
ENCODING 123
SWIDTH 338 0
DWIDTH 7 0
BBX 5 18 1 -3
BITMAP
18
20
20
20
20
20
20
20
40
80
60
20
20
20
20
20
20
18
ENDCHAR
STARTCHAR 007C
ENCODING 124
SWIDTH 531 0
DWIDTH 11 0
BBX 1 21 5 -5
BITMAP
80
80
80
80
80
80
80
80
80
80
80
80
80
80
80
80
80
80
80
80
80
ENDCHAR
STARTCHAR 007D
ENCODING 125
SWIDTH 338 0
DWIDTH 7 0
BBX 5 18 1 -3
BITMAP
C0
20
20
20
20
20
20
20
10
08
30
20
20
20
20
20
20
C0
ENDCHAR
STARTCHAR 007E
ENCODING 126
SWIDTH 579 0
DWIDTH 12 0
BBX 10 2 1 7
BITMAP
7840
8780
ENDCHAR
STARTCHAR 00A0
ENCODING 160
SWIDTH 241 0
DWIDTH 5 0
BBX 0 0 0 0
BITMAP
ENDCHAR
STARTCHAR 00A1
ENCODING 161
SWIDTH 241 0
DWIDTH 5 0
BBX 1 16 2 -4
BITMAP
80
80
00
00
80
80
80
80
80
80
80
80
80
80
80
80
ENDCHAR
STARTCHAR 00A2
ENCODING 162
SWIDTH 579 0
DWIDTH 12 0
BBX 8 15 2 0
BITMAP
08
08
1F
60
40
C0
80
80
80
C0
40
60
1F
08
08
ENDCHAR
STARTCHAR 00A3
ENCODING 163
SWIDTH 579 0
DWIDTH 12 0
BBX 10 15 1 0
BITMAP
0F80
1000
2000
2000
2000
2000
2000
FE00
2000
2000
2000
2000
2000
4000
FFC0
ENDCHAR
STARTCHAR 00A4
ENCODING 164
SWIDTH 579 0
DWIDTH 12 0
BBX 10 10 1 3
BITMAP
8040
5E80
2100
4080
4080
4080
4080
2100
5E80
8040
ENDCHAR
STARTCHAR 00A5
ENCODING 165
SWIDTH 579 0
DWIDTH 12 0
BBX 10 15 1 0
BITMAP
8040
8040
4080
6080
2100
3200
1200
0C00
7F80
0C00
0C00
7F80
0C00
0C00
0C00
ENDCHAR
STARTCHAR 00A6
ENCODING 166
SWIDTH 531 0
DWIDTH 11 0
BBX 1 21 5 -5
BITMAP
80
80
80
80
80
80
80
80
00
00
00
00
00
80
80
80
80
80
80
80
80
ENDCHAR
STARTCHAR 00A7
ENCODING 167
SWIDTH 531 0
DWIDTH 11 0
BBX 8 16 1 0
BITMAP
3F
40
40
40
30
2E
43
41
41
61
1E
03
01
01
81
7E
ENDCHAR
STARTCHAR 00A8
ENCODING 168
SWIDTH 579 0
DWIDTH 12 0
BBX 6 2 3 13
BITMAP
CC
CC
ENDCHAR
STARTCHAR 00A9
ENCODING 169
SWIDTH 821 0
DWIDTH 17 0
BBX 15 15 1 0
BITMAP
07C0
1830
2008
43C4
4404
8802
8802
8802
8802
8802
4404
43C4
2008
1830
07C0
ENDCHAR
STARTCHAR 00AA
ENCODING 170
SWIDTH 338 0
DWIDTH 7 0
BBX 5 7 1 8
BITMAP
F0
08
08
78
88
88
F8
ENDCHAR
STARTCHAR 00AB
ENCODING 171
SWIDTH 434 0
DWIDTH 9 0
BBX 7 8 1 2
BITMAP
12
24
44
88
88
44
24
12
ENDCHAR
STARTCHAR 00AC
ENCODING 172
SWIDTH 579 0
DWIDTH 12 0
BBX 10 5 1 3
BITMAP
FFC0
0040
0040
0040
0040
ENDCHAR
STARTCHAR 00AD
ENCODING 173
SWIDTH 338 0
DWIDTH 7 0
BBX 5 1 1 5
BITMAP
F8
ENDCHAR
STARTCHAR 00AE
ENCODING 174
SWIDTH 821 0
DWIDTH 17 0
BBX 15 15 1 0
BITMAP
07C0
1830
2008
4784
4444
8442
8442
8782
8482
8442
4444
4424
2008
1830
07C0
ENDCHAR
STARTCHAR 00AF
ENCODING 175
SWIDTH 531 0
DWIDTH 11 0
BBX 11 1 0 16
BITMAP
FFE0
ENDCHAR
STARTCHAR 00B0
ENCODING 176
SWIDTH 434 0
DWIDTH 9 0
BBX 7 6 1 9
BITMAP
38
44
82
82
44
38
ENDCHAR
STARTCHAR 00B1
ENCODING 177
SWIDTH 579 0
DWIDTH 12 0
BBX 10 12 1 0
BITMAP
0800
0800
0800
0800
FFC0
0800
0800
0800
0800
0000
0000
FFC0
ENDCHAR
STARTCHAR 00B2
ENCODING 178
SWIDTH 338 0
DWIDTH 7 0
BBX 5 9 1 6
BITMAP
70
88
08
08
10
30
60
80
F8
ENDCHAR
STARTCHAR 00B3
ENCODING 179
SWIDTH 338 0
DWIDTH 7 0
BBX 6 9 1 6
BITMAP
F0
08
08
08
70
08
0C
08
F0
ENDCHAR
STARTCHAR 00B4
ENCODING 180
SWIDTH 579 0
DWIDTH 12 0
BBX 4 3 4 13
BITMAP
30
60
80
ENDCHAR
STARTCHAR 00B5
ENCODING 181
SWIDTH 628 0
DWIDTH 13 0
BBX 9 17 2 -5
BITMAP
8080
8080
8080
8080
8080
8080
8080
8080
8080
8180
C380
BC80
8000
8000
8000
8000
8000
ENDCHAR
STARTCHAR 00B6
ENCODING 182
SWIDTH 676 0
DWIDTH 14 0
BBX 11 19 1 -3
BITMAP
3FE0
7E20
7E20
FE20
FE20
FE20
FE20
FE20
7E20
7E20
3E20
0220
0220
0220
0220
0220
0220
0220
0220
ENDCHAR
STARTCHAR 00B7
ENCODING 183
SWIDTH 241 0
DWIDTH 5 0
BBX 1 2 2 7
BITMAP
80
80
ENDCHAR
STARTCHAR 00B8
ENCODING 184
SWIDTH 193 0
DWIDTH 4 0
BBX 4 5 0 -5
BITMAP
20
60
10
10
E0
ENDCHAR
STARTCHAR 00B9
ENCODING 185
SWIDTH 338 0
DWIDTH 7 0
BBX 4 9 1 6
BITMAP
30
D0
10
20
20
20
20
20
20
ENDCHAR
STARTCHAR 00BA
ENCODING 186
SWIDTH 386 0
DWIDTH 8 0
BBX 6 7 1 8
BITMAP
78
84
84
84
84
84
78
ENDCHAR
STARTCHAR 00BB
ENCODING 187
SWIDTH 434 0
DWIDTH 9 0
BBX 7 8 1 2
BITMAP
90
48
44
22
22
44
48
90
ENDCHAR
STARTCHAR 00BC
ENCODING 188
SWIDTH 773 0
DWIDTH 16 0
BBX 14 15 1 0
BITMAP
3020
D040
1040
2080
2080
2100
2110
2230
2430
0450
0890
0890
11FC
2010
2010
ENDCHAR
STARTCHAR 00BD
ENCODING 189
SWIDTH 773 0
DWIDTH 16 0
BBX 14 15 0 0
BITMAP
3020
D040
1040
2080
2080
2100
2138
2244
2404
0404
0808
0818
1030
2040
207C
ENDCHAR
STARTCHAR 00BE
ENCODING 190
SWIDTH 773 0
DWIDTH 16 0
BBX 15 15 1 0
BITMAP
F010
0820
0820
0840
7040
0880
0C88
0918
F218
0228
0448
0448
08FE
1008
1008
ENDCHAR
STARTCHAR 00BF
ENCODING 191
SWIDTH 434 0
DWIDTH 9 0
BBX 7 16 1 -4
BITMAP
08
08
00
00
08
08
08
10
20
40
80
80
80
80
C0
3E
ENDCHAR
STARTCHAR 00C0
ENCODING 192
SWIDTH 628 0
DWIDTH 13 0
BBX 13 19 0 0
BITMAP
1800
0C00
0200
0000
0200
0300
0500
0500
0C80
0880
08C0
1040
1040
3FE0
2020
6030
4010
4010
8008
ENDCHAR
STARTCHAR 00C1
ENCODING 193
SWIDTH 628 0
DWIDTH 13 0
BBX 13 19 0 0
BITMAP
0180
0300
0400
0000
0200
0300
0500
0500
0C80
0880
08C0
1040
1040
3FE0
2020
6030
4010
4010
8008
ENDCHAR
STARTCHAR 00C2
ENCODING 194
SWIDTH 628 0
DWIDTH 13 0
BBX 13 19 0 0
BITMAP
0600
0F00
1080
0000
0200
0300
0500
0500
0C80
0880
08C0
1040
1040
3FE0
2020
6030
4010
4010
8008
ENDCHAR
STARTCHAR 00C3
ENCODING 195
SWIDTH 628 0
DWIDTH 13 0
BBX 13 18 0 0
BITMAP
0C40
1380
0000
0200
0300
0500
0500
0C80
0880
08C0
1040
1040
3FE0
2020
6030
4010
4010
8008
ENDCHAR
STARTCHAR 00C4
ENCODING 196
SWIDTH 628 0
DWIDTH 13 0
BBX 13 18 0 0
BITMAP
1980
1980
0000
0200
0300
0500
0500
0C80
0880
08C0
1040
1040
3FE0
2020
6030
4010
4010
8008
ENDCHAR
STARTCHAR 00C5
ENCODING 197
SWIDTH 628 0
DWIDTH 13 0
BBX 13 18 0 0
BITMAP
0F00
0900
0900
0600
0300
0500
0500
0C80
0880
08C0
1040
1040
3FE0
2020
6030
4010
4010
8008
ENDCHAR
STARTCHAR 00C6
ENCODING 198
SWIDTH 821 0
DWIDTH 17 0
BBX 16 15 0 0
BITMAP
03FF
0280
0280
0480
0480
0880
0880
18FE
1080
3F80
2080
2080
4080
4080
80FF
ENDCHAR
STARTCHAR 00C7
ENCODING 199
SWIDTH 628 0
DWIDTH 13 0
BBX 11 20 1 -5
BITMAP
07E0
1820
2000
4000
4000
4000
8000
8000
8000
C000
4000
4000
2000
1800
0FE0
0200
0600
0100
0100
0E00
ENDCHAR
STARTCHAR 00C8
ENCODING 200
SWIDTH 579 0
DWIDTH 12 0
BBX 9 19 2 0
BITMAP
6000
3000
0800
0000
FF80
8000
8000
8000
8000
8000
8000
FF00
8000
8000
8000
8000
8000
8000
FF80
ENDCHAR
STARTCHAR 00C9
ENCODING 201
SWIDTH 579 0
DWIDTH 12 0
BBX 9 19 2 0
BITMAP
0600
0C00
1000
0000
FF80
8000
8000
8000
8000
8000
8000
FF00
8000
8000
8000
8000
8000
8000
FF80
ENDCHAR
STARTCHAR 00CA
ENCODING 202
SWIDTH 579 0
DWIDTH 12 0
BBX 9 19 2 0
BITMAP
1800
3C00
4200
0000
FF80
8000
8000
8000
8000
8000
8000
FF00
8000
8000
8000
8000
8000
8000
FF80
ENDCHAR
STARTCHAR 00CB
ENCODING 203
SWIDTH 579 0
DWIDTH 12 0
BBX 9 18 2 0
BITMAP
6600
6600
0000
FF80
8000
8000
8000
8000
8000
8000
FF00
8000
8000
8000
8000
8000
8000
FF80
ENDCHAR
STARTCHAR 00CC
ENCODING 204
SWIDTH 241 0
DWIDTH 5 0
BBX 4 19 -1 0
BITMAP
C0
60
10
00
10
10
10
10
10
10
10
10
10
10
10
10
10
10
10
ENDCHAR
STARTCHAR 00CD
ENCODING 205
SWIDTH 241 0
DWIDTH 5 0
BBX 4 19 2 0
BITMAP
30
60
80
00
80
80
80
80
80
80
80
80
80
80
80
80
80
80
80
ENDCHAR
STARTCHAR 00CE
ENCODING 206
SWIDTH 241 0
DWIDTH 5 0
BBX 6 19 0 0
BITMAP
30
78
84
00
20
20
20
20
20
20
20
20
20
20
20
20
20
20
20
ENDCHAR
STARTCHAR 00CF
ENCODING 207
SWIDTH 241 0
DWIDTH 5 0
BBX 6 18 0 0
BITMAP
CC
CC
00
20
20
20
20
20
20
20
20
20
20
20
20
20
20
20
ENDCHAR
STARTCHAR 00D0
ENCODING 208
SWIDTH 724 0
DWIDTH 15 0
BBX 13 15 0 0
BITMAP
3F80
2060
2010
2018
2008
2008
2008
FE08
2008
2008
2008
2018
2010
2060
3F80
ENDCHAR
STARTCHAR 00D1
ENCODING 209
SWIDTH 724 0
DWIDTH 15 0
BBX 11 18 2 0
BITMAP
1880
2700
0000
8020
C020
A020
A020
9020
8820
8820
8420
8220
8220
8120
80A0
80A0
8060
8020
ENDCHAR
STARTCHAR 00D2
ENCODING 210
SWIDTH 773 0
DWIDTH 16 0
BBX 14 19 1 0
BITMAP
0C00
0600
0100
0000
0FC0
1820
2010
4008
4008
C00C
8004
8004
8004
C00C
4008
4008
2010
1020
0FC0
ENDCHAR
STARTCHAR 00D3
ENCODING 211
SWIDTH 773 0
DWIDTH 16 0
BBX 14 19 1 0
BITMAP
00C0
0180
0200
0000
0FC0
1820
2010
4008
4008
C00C
8004
8004
8004
C00C
4008
4008
2010
1020
0FC0
ENDCHAR
STARTCHAR 00D4
ENCODING 212
SWIDTH 773 0
DWIDTH 16 0
BBX 14 19 1 0
BITMAP
0300
0780
0840
0000
0FC0
1820
2010
4008
4008
C00C
8004
8004
8004
C00C
4008
4008
2010
1020
0FC0
ENDCHAR
STARTCHAR 00D5
ENCODING 213
SWIDTH 773 0
DWIDTH 16 0
BBX 14 18 1 0
BITMAP
0620
09C0
0000
0FC0
1820
2010
4008
4008
C00C
8004
8004
8004
C00C
4008
4008
2010
1020
0FC0
ENDCHAR
STARTCHAR 00D6
ENCODING 214
SWIDTH 773 0
DWIDTH 16 0
BBX 14 18 1 0
BITMAP
0CC0
0CC0
0000
0FC0
1820
2010
4008
4008
C00C
8004
8004
8004
C00C
4008
4008
2010
1020
0FC0
ENDCHAR
STARTCHAR 00D7
ENCODING 215
SWIDTH 579 0
DWIDTH 12 0
BBX 10 9 1 3
BITMAP
C0C0
6180
3300
1E00
0C00
1E00
3300
6180
C0C0
ENDCHAR
STARTCHAR 00D8
ENCODING 216
SWIDTH 773 0
DWIDTH 16 0
BBX 14 15 1 0
BITMAP
0FC8
1830
2030
4068
4048
C08C
8104
8304
8204
C40C
4808
5808
3010
3020
4FC0
ENDCHAR
STARTCHAR 00D9
ENCODING 217
SWIDTH 724 0
DWIDTH 15 0
BBX 11 19 2 0
BITMAP
1800
0C00
0200
0000
8020
8020
8020
8020
8020
8020
8020
8020
8020
8020
8020
8020
4040
60C0
1F00
ENDCHAR
STARTCHAR 00DA
ENCODING 218
SWIDTH 724 0
DWIDTH 15 0
BBX 11 19 2 0
BITMAP
0300
0600
0800
0000
8020
8020
8020
8020
8020
8020
8020
8020
8020
8020
8020
8020
4040
60C0
1F00
ENDCHAR
STARTCHAR 00DB
ENCODING 219
SWIDTH 724 0
DWIDTH 15 0
BBX 11 19 2 0
BITMAP
0C00
1E00
2100
0000
8020
8020
8020
8020
8020
8020
8020
8020
8020
8020
8020
8020
4040
60C0
1F00
ENDCHAR
STARTCHAR 00DC
ENCODING 220
SWIDTH 724 0
DWIDTH 15 0
BBX 11 18 2 0
BITMAP
3300
3300
0000
8020
8020
8020
8020
8020
8020
8020
8020
8020
8020
8020
8020
4040
60C0
1F00
ENDCHAR
STARTCHAR 00DD
ENCODING 221
SWIDTH 531 0
DWIDTH 11 0
BBX 11 19 0 0
BITMAP
0300
0600
0800
0000
8020
4040
6040
2080
3180
1100
1B00
0A00
0400
0400
0400
0400
0400
0400
0400
ENDCHAR
STARTCHAR 00DE
ENCODING 222
SWIDTH 579 0
DWIDTH 12 0
BBX 9 15 2 0
BITMAP
8000
8000
8000
FE00
8300
8180
8080
8080
8080
8100
8300
FC00
8000
8000
8000
ENDCHAR
STARTCHAR 00DF
ENCODING 223
SWIDTH 579 0
DWIDTH 12 0
BBX 9 16 2 0
BITMAP
3C00
C200
8100
8300
8200
8400
8800
8800
8C00
8600
8100
8080
8080
8080
8180
9F00
ENDCHAR
STARTCHAR 00E0
ENCODING 224
SWIDTH 531 0
DWIDTH 11 0
BBX 8 17 1 0
BITMAP
30
18
04
00
00
3E
43
01
01
01
3F
41
81
81
81
C3
7D
ENDCHAR
STARTCHAR 00E1
ENCODING 225
SWIDTH 531 0
DWIDTH 11 0
BBX 8 17 1 0
BITMAP
06
0C
10
00
00
3E
43
01
01
01
3F
41
81
81
81
C3
7D
ENDCHAR
STARTCHAR 00E2
ENCODING 226
SWIDTH 531 0
DWIDTH 11 0
BBX 8 17 1 0
BITMAP
0C
1E
21
00
00
3E
43
01
01
01
3F
41
81
81
81
C3
7D
ENDCHAR
STARTCHAR 00E3
ENCODING 227
SWIDTH 531 0
DWIDTH 11 0
BBX 8 16 1 0
BITMAP
31
4E
00
00
3E
43
01
01
01
3F
41
81
81
81
C3
7D
ENDCHAR
STARTCHAR 00E4
ENCODING 228
SWIDTH 531 0
DWIDTH 11 0
BBX 8 16 1 0
BITMAP
66
66
00
00
3E
43
01
01
01
3F
41
81
81
81
C3
7D
ENDCHAR
STARTCHAR 00E5
ENCODING 229
SWIDTH 531 0
DWIDTH 11 0
BBX 8 18 1 0
BITMAP
1C
12
12
1E
00
00
3E
43
01
01
01
3F
41
81
81
81
C3
7D
ENDCHAR
STARTCHAR 00E6
ENCODING 230
SWIDTH 869 0
DWIDTH 18 0
BBX 16 12 1 0
BITMAP
3E3C
43C6
0182
0181
0101
3FFF
4100
8100
8180
8180
C2C0
7C3E
ENDCHAR
STARTCHAR 00E7
ENCODING 231
SWIDTH 483 0
DWIDTH 10 0
BBX 8 17 1 -5
BITMAP
1F
20
40
40
80
80
80
80
40
40
20
1F
08
18
04
04
38
ENDCHAR
STARTCHAR 00E8
ENCODING 232
SWIDTH 579 0
DWIDTH 12 0
BBX 10 17 1 0
BITMAP
3000
1800
0400
0000
0000
1E00
2180
4080
40C0
8040
FFC0
8000
8000
4000
4000
2000
1F80
ENDCHAR
STARTCHAR 00E9
ENCODING 233
SWIDTH 579 0
DWIDTH 12 0
BBX 10 17 1 0
BITMAP
0300
0600
0800
0000
0000
1E00
2180
4080
40C0
8040
FFC0
8000
8000
4000
4000
2000
1F80
ENDCHAR
STARTCHAR 00EA
ENCODING 234
SWIDTH 579 0
DWIDTH 12 0
BBX 10 17 1 0
BITMAP
0C00
1E00
2100
0000
0000
1E00
2180
4080
40C0
8040
FFC0
8000
8000
4000
4000
2000
1F80
ENDCHAR
STARTCHAR 00EB
ENCODING 235
SWIDTH 579 0
DWIDTH 12 0
BBX 10 16 1 0
BITMAP
3300
3300
0000
0000
1E00
2180
4080
40C0
8040
FFC0
8000
8000
4000
4000
2000
1F80
ENDCHAR
STARTCHAR 00EC
ENCODING 236
SWIDTH 241 0
DWIDTH 5 0
BBX 4 17 0 0
BITMAP
C0
60
10
00
00
20
20
20
20
20
20
20
20
20
20
20
20
ENDCHAR
STARTCHAR 00ED
ENCODING 237
SWIDTH 241 0
DWIDTH 5 0
BBX 4 17 1 0
BITMAP
30
60
80
00
00
40
40
40
40
40
40
40
40
40
40
40
40
ENDCHAR
STARTCHAR 00EE
ENCODING 238
SWIDTH 241 0
DWIDTH 5 0
BBX 6 17 -1 0
BITMAP
30
78
84
00
00
10
10
10
10
10
10
10
10
10
10
10
10
ENDCHAR
STARTCHAR 00EF
ENCODING 239
SWIDTH 241 0
DWIDTH 5 0
BBX 6 16 -1 0
BITMAP
CC
CC
00
00
10
10
10
10
10
10
10
10
10
10
10
10
ENDCHAR
STARTCHAR 00F0
ENCODING 240
SWIDTH 579 0
DWIDTH 12 0
BBX 10 16 1 0
BITMAP
1100
0F00
0E00
1100
0100
0080
1E80
61C0
40C0
8040
8040
8040
8080
4080
6100
1E00
ENDCHAR
STARTCHAR 00F1
ENCODING 241
SWIDTH 579 0
DWIDTH 12 0
BBX 8 16 2 0
BITMAP
31
4E
00
00
BE
C3
81
81
81
81
81
81
81
81
81
81
ENDCHAR
STARTCHAR 00F2
ENCODING 242
SWIDTH 579 0
DWIDTH 12 0
BBX 10 17 1 0
BITMAP
3000
1800
0400
0000
0000
1E00
2100
4080
4080
8040
8040
8040
8040
4080
4080
2100
1E00
ENDCHAR
STARTCHAR 00F3
ENCODING 243
SWIDTH 579 0
DWIDTH 12 0
BBX 10 17 1 0
BITMAP
0300
0600
0800
0000
0000
1E00
2100
4080
4080
8040
8040
8040
8040
4080
4080
2100
1E00
ENDCHAR
STARTCHAR 00F4
ENCODING 244
SWIDTH 579 0
DWIDTH 12 0
BBX 10 17 1 0
BITMAP
0C00
1E00
2100
0000
0000
1E00
2100
4080
4080
8040
8040
8040
8040
4080
4080
2100
1E00
ENDCHAR
STARTCHAR 00F5
ENCODING 245
SWIDTH 579 0
DWIDTH 12 0
BBX 10 16 1 0
BITMAP
1880
2700
0000
0000
1E00
2100
4080
4080
8040
8040
8040
8040
4080
4080
2100
1E00
ENDCHAR
STARTCHAR 00F6
ENCODING 246
SWIDTH 579 0
DWIDTH 12 0
BBX 10 16 1 0
BITMAP
3300
3300
0000
0000
1E00
2100
4080
4080
8040
8040
8040
8040
4080
4080
2100
1E00
ENDCHAR
STARTCHAR 00F7
ENCODING 247
SWIDTH 579 0
DWIDTH 12 0
BBX 10 9 1 3
BITMAP
0C00
0C00
0000
0000
FFC0
0000
0000
0C00
0C00
ENDCHAR
STARTCHAR 00F8
ENCODING 248
SWIDTH 579 0
DWIDTH 12 0
BBX 10 12 1 0
BITMAP
1EC0
2180
4180
4280
8240
8440
8840
9840
5080
6080
6100
DE00
ENDCHAR
STARTCHAR 00F9
ENCODING 249
SWIDTH 579 0
DWIDTH 12 0
BBX 8 17 2 0
BITMAP
60
30
08
00
00
81
81
81
81
81
81
81
81
81
81
C3
7D
ENDCHAR
STARTCHAR 00FA
ENCODING 250
SWIDTH 579 0
DWIDTH 12 0
BBX 8 17 2 0
BITMAP
06
0C
10
00
00
81
81
81
81
81
81
81
81
81
81
C3
7D
ENDCHAR
STARTCHAR 00FB
ENCODING 251
SWIDTH 579 0
DWIDTH 12 0
BBX 8 17 2 0
BITMAP
18
3C
42
00
00
81
81
81
81
81
81
81
81
81
81
C3
7D
ENDCHAR
STARTCHAR 00FC
ENCODING 252
SWIDTH 579 0
DWIDTH 12 0
BBX 8 16 2 0
BITMAP
66
66
00
00
81
81
81
81
81
81
81
81
81
81
C3
7D
ENDCHAR
STARTCHAR 00FD
ENCODING 253
SWIDTH 483 0
DWIDTH 10 0
BBX 10 22 0 -5
BITMAP
0300
0600
0800
0000
0000
8040
4080
4080
4080
2100
2100
2100
1200
1200
0C00
0C00
0C00
0800
0800
1000
1000
E000
ENDCHAR
STARTCHAR 00FE
ENCODING 254
SWIDTH 628 0
DWIDTH 13 0
BBX 10 21 2 -5
BITMAP
8000
8000
8000
8000
9E00
E100
C080
8080
8040
8040
8040
8040
8080
C080
E100
9E00
8000
8000
8000
8000
8000
ENDCHAR
STARTCHAR 00FF
ENCODING 255
SWIDTH 483 0
DWIDTH 10 0
BBX 10 21 0 -5
BITMAP
3300
3300
0000
0000
8040
4080
4080
4080
2100
2100
2100
1200
1200
0C00
0C00
0C00
0800
0800
1000
1000
E000
ENDCHAR
STARTCHAR 0100
ENCODING 256
SWIDTH 628 0
DWIDTH 13 0
BBX 13 17 0 0
BITMAP
0FC0
0000
0200
0300
0500
0500
0C80
0880
08C0
1040
1040
3FE0
2020
6030
4010
4010
8008
ENDCHAR
STARTCHAR 0101
ENCODING 257
SWIDTH 531 0
DWIDTH 11 0
BBX 8 15 1 0
BITMAP
3F
00
00
3E
43
01
01
01
3F
41
81
81
81
C3
7D
ENDCHAR
STARTCHAR 0102
ENCODING 258
SWIDTH 628 0
DWIDTH 13 0
BBX 13 19 0 0
BITMAP
1080
1100
0F00
0000
0200
0300
0500
0500
0C80
0880
08C0
1040
1040
3FE0
2020
6030
4010
4010
8008
ENDCHAR
STARTCHAR 0103
ENCODING 259
SWIDTH 531 0
DWIDTH 11 0
BBX 8 17 1 0
BITMAP
21
22
1E
00
00
3E
43
01
01
01
3F
41
81
81
81
C3
7D
ENDCHAR
STARTCHAR 0104
ENCODING 260
SWIDTH 628 0
DWIDTH 13 0
BBX 13 20 0 -5
BITMAP
0200
0300
0500
0500
0C80
0880
08C0
1040
1040
3FE0
2020
6030
4010
4010
8008
0010
0020
0020
0020
0038
ENDCHAR
STARTCHAR 0105
ENCODING 261
SWIDTH 531 0
DWIDTH 11 0
BBX 9 17 1 -5
BITMAP
3E00
4300
0100
0100
0100
3F00
4100
8100
8100
8100
C300
7D00
0100
0200
0200
0200
0380
ENDCHAR
STARTCHAR 0106
ENCODING 262
SWIDTH 628 0
DWIDTH 13 0
BBX 11 19 1 0
BITMAP
00C0
0180
0200
0000
07E0
1820
2000
4000
4000
4000
8000
8000
8000
C000
4000
4000
2000
1800
0FE0
ENDCHAR
STARTCHAR 0107
ENCODING 263
SWIDTH 483 0
DWIDTH 10 0
BBX 8 17 1 0
BITMAP
03
06
08
00
00
1F
20
40
40
80
80
80
80
40
40
20
1F
ENDCHAR
STARTCHAR 0108
ENCODING 264
SWIDTH 628 0
DWIDTH 13 0
BBX 11 19 1 0
BITMAP
0300
0780
0840
0000
07E0
1820
2000
4000
4000
4000
8000
8000
8000
C000
4000
4000
2000
1800
0FE0
ENDCHAR
STARTCHAR 0109
ENCODING 265
SWIDTH 483 0
DWIDTH 10 0
BBX 8 17 1 0
BITMAP
0C
1E
21
00
00
1F
20
40
40
80
80
80
80
40
40
20
1F
ENDCHAR
STARTCHAR 010A
ENCODING 266
SWIDTH 628 0
DWIDTH 13 0
BBX 11 18 1 0
BITMAP
0100
0100
0000
07E0
1820
2000
4000
4000
4000
8000
8000
8000
C000
4000
4000
2000
1800
0FE0
ENDCHAR
STARTCHAR 010B
ENCODING 267
SWIDTH 483 0
DWIDTH 10 0
BBX 8 16 1 0
BITMAP
04
04
00
00
1F
20
40
40
80
80
80
80
40
40
20
1F
ENDCHAR
STARTCHAR 010C
ENCODING 268
SWIDTH 628 0
DWIDTH 13 0
BBX 11 19 1 0
BITMAP
0840
0780
0300
0000
07E0
1820
2000
4000
4000
4000
8000
8000
8000
C000
4000
4000
2000
1800
0FE0
ENDCHAR
STARTCHAR 010D
ENCODING 269
SWIDTH 483 0
DWIDTH 10 0
BBX 8 17 1 0
BITMAP
21
1E
0C
00
00
1F
20
40
40
80
80
80
80
40
40
20
1F
ENDCHAR
STARTCHAR 010E
ENCODING 270
SWIDTH 724 0
DWIDTH 15 0
BBX 12 19 2 0
BITMAP
2100
1E00
0C00
0000
FF00
8180
8040
8020
8020
8030
8030
8010
8030
8020
8020
8020
8040
8180
FE00
ENDCHAR
STARTCHAR 010F
ENCODING 271
SWIDTH 628 0
DWIDTH 13 0
BBX 12 16 1 0
BITMAP
0050
0050
0060
0040
1E40
21C0
40C0
4040
8040
8040
8040
8040
4040
40C0
21C0
1E40
ENDCHAR
STARTCHAR 0110
ENCODING 272
SWIDTH 724 0
DWIDTH 15 0
BBX 13 15 0 0
BITMAP
3F80
2060
2010
2018
2008
2008
2008
FE08
2008
2008
2008
2018
2010
2060
3F80
ENDCHAR
STARTCHAR 0111
ENCODING 273
SWIDTH 628 0
DWIDTH 13 0
BBX 12 16 1 0
BITMAP
0040
0040
0FF0
0040
1E40
21C0
40C0
4040
8040
8040
8040
8040
4040
40C0
21C0
1E40
ENDCHAR
STARTCHAR 0112
ENCODING 274
SWIDTH 579 0
DWIDTH 12 0
BBX 9 17 2 0
BITMAP
7E00
0000
FF80
8000
8000
8000
8000
8000
8000
FF00
8000
8000
8000
8000
8000
8000
FF80
ENDCHAR
STARTCHAR 0113
ENCODING 275
SWIDTH 579 0
DWIDTH 12 0
BBX 10 15 1 0
BITMAP
3F00
0000
0000
1E00
2180
4080
40C0
8040
FFC0
8000
8000
4000
4000
2000
1F80
ENDCHAR
STARTCHAR 0114
ENCODING 276
SWIDTH 579 0
DWIDTH 12 0
BBX 9 19 2 0
BITMAP
4200
4400
3C00
0000
FF80
8000
8000
8000
8000
8000
8000
FF00
8000
8000
8000
8000
8000
8000
FF80
ENDCHAR
STARTCHAR 0115
ENCODING 277
SWIDTH 579 0
DWIDTH 12 0
BBX 10 17 1 0
BITMAP
2100
2200
1E00
0000
0000
1E00
2180
4080
40C0
8040
FFC0
8000
8000
4000
4000
2000
1F80
ENDCHAR
STARTCHAR 0116
ENCODING 278
SWIDTH 579 0
DWIDTH 12 0
BBX 9 18 2 0
BITMAP
0800
0800
0000
FF80
8000
8000
8000
8000
8000
8000
FF00
8000
8000
8000
8000
8000
8000
FF80
ENDCHAR
STARTCHAR 0117
ENCODING 279
SWIDTH 579 0
DWIDTH 12 0
BBX 10 16 1 0
BITMAP
0800
0800
0000
0000
1E00
2180
4080
40C0
8040
FFC0
8000
8000
4000
4000
2000
1F80
ENDCHAR
STARTCHAR 0118
ENCODING 280
SWIDTH 579 0
DWIDTH 12 0
BBX 9 20 2 -5
BITMAP
FF80
8000
8000
8000
8000
8000
8000
FF00
8000
8000
8000
8000
8000
8000
FF80
0200
0400
0400
0400
0700
ENDCHAR
STARTCHAR 0119
ENCODING 281
SWIDTH 579 0
DWIDTH 12 0
BBX 10 17 1 -5
BITMAP
1E00
2180
4080
40C0
8040
FFC0
8000
8000
4000
4000
2000
1F80
0100
0200
0200
0200
0380
ENDCHAR
STARTCHAR 011A
ENCODING 282
SWIDTH 579 0
DWIDTH 12 0
BBX 9 19 2 0
BITMAP
4200
3C00
1800
0000
FF80
8000
8000
8000
8000
8000
8000
FF00
8000
8000
8000
8000
8000
8000
FF80
ENDCHAR
STARTCHAR 011B
ENCODING 283
SWIDTH 579 0
DWIDTH 12 0
BBX 10 17 1 0
BITMAP
2100
1E00
0C00
0000
0000
1E00
2180
4080
40C0
8040
FFC0
8000
8000
4000
4000
2000
1F80
ENDCHAR
STARTCHAR 011C
ENCODING 284
SWIDTH 724 0
DWIDTH 15 0
BBX 12 19 1 0
BITMAP
0300
0780
0840
0000
07E0
1810
2000
6000
4000
4000
C000
81F0
8010
C010
4010
4010
2010
1810
0FE0
ENDCHAR
STARTCHAR 011D
ENCODING 285
SWIDTH 531 0
DWIDTH 11 0
BBX 11 22 0 -5
BITMAP
0C00
1E00
2100
0000
0000
1FE0
2180
6080
4080
6080
2180
1E00
2000
2000
2000
1F80
6040
4040
C040
4040
40C0
3F00
ENDCHAR
STARTCHAR 011E
ENCODING 286
SWIDTH 724 0
DWIDTH 15 0
BBX 12 19 1 0
BITMAP
0840
0880
0780
0000
07E0
1810
2000
6000
4000
4000
C000
81F0
8010
C010
4010
4010
2010
1810
0FE0
ENDCHAR
STARTCHAR 011F
ENCODING 287
SWIDTH 531 0
DWIDTH 11 0
BBX 11 22 0 -5
BITMAP
2100
2200
1E00
0000
0000
1FE0
2180
6080
4080
6080
2180
1E00
2000
2000
2000
1F80
6040
4040
C040
4040
40C0
3F00
ENDCHAR
STARTCHAR 0120
ENCODING 288
SWIDTH 724 0
DWIDTH 15 0
BBX 12 18 1 0
BITMAP
0100
0100
0000
07E0
1810
2000
6000
4000
4000
C000
81F0
8010
C010
4010
4010
2010
1810
0FE0
ENDCHAR
STARTCHAR 0121
ENCODING 289
SWIDTH 531 0
DWIDTH 11 0
BBX 11 21 0 -5
BITMAP
0400
0400
0000
0000
1FE0
2180
6080
4080
6080
2180
1E00
2000
2000
2000
1F80
6040
4040
C040
4040
40C0
3F00
ENDCHAR
STARTCHAR 0122
ENCODING 290
SWIDTH 724 0
DWIDTH 15 0
BBX 12 19 1 -4
BITMAP
07E0
1810
2000
6000
4000
4000
C000
81F0
8010
C010
4010
4010
2010
1810
0FE0
0000
0100
0100
0200
ENDCHAR
STARTCHAR 0123
ENCODING 291
SWIDTH 531 0
DWIDTH 11 0
BBX 11 22 0 -5
BITMAP
0200
0200
0200
0000
0000
1FE0
2180
6080
4080
6080
2180
1E00
2000
2000
2000
1F80
6040
4040
C040
4040
40C0
3F00
ENDCHAR
STARTCHAR 0124
ENCODING 292
SWIDTH 724 0
DWIDTH 15 0
BBX 11 19 2 0
BITMAP
0C00
1E00
2100
0000
8020
8020
8020
8020
8020
8020
8020
FFE0
8020
8020
8020
8020
8020
8020
8020
ENDCHAR
STARTCHAR 0125
ENCODING 293
SWIDTH 579 0
DWIDTH 12 0
BBX 8 20 2 0
BITMAP
18
3C
42
00
80
80
80
80
BE
C3
81
81
81
81
81
81
81
81
81
81
ENDCHAR
STARTCHAR 0126
ENCODING 294
SWIDTH 724 0
DWIDTH 15 0
BBX 15 15 0 0
BITMAP
2008
2008
2008
FFFE
2008
2008
2008
3FF8
2008
2008
2008
2008
2008
2008
2008
ENDCHAR
STARTCHAR 0127
ENCODING 295
SWIDTH 579 0
DWIDTH 12 0
BBX 10 16 0 0
BITMAP
2000
2000
FE00
2000
2F80
30C0
2040
2040
2040
2040
2040
2040
2040
2040
2040
2040
ENDCHAR
STARTCHAR 0128
ENCODING 296
SWIDTH 241 0
DWIDTH 5 0
BBX 7 18 -1 0
BITMAP
62
9C
00
10
10
10
10
10
10
10
10
10
10
10
10
10
10
10
ENDCHAR
STARTCHAR 0129
ENCODING 297
SWIDTH 241 0
DWIDTH 5 0
BBX 7 16 -1 0
BITMAP
62
9C
00
00
10
10
10
10
10
10
10
10
10
10
10
10
ENDCHAR
STARTCHAR 012A
ENCODING 298
SWIDTH 241 0
DWIDTH 5 0
BBX 6 17 0 0
BITMAP
FC
00
20
20
20
20
20
20
20
20
20
20
20
20
20
20
20
ENDCHAR
STARTCHAR 012B
ENCODING 299
SWIDTH 241 0
DWIDTH 5 0
BBX 6 15 0 0
BITMAP
FC
00
00
20
20
20
20
20
20
20
20
20
20
20
20
ENDCHAR
STARTCHAR 012C
ENCODING 300
SWIDTH 241 0
DWIDTH 5 0
BBX 6 19 0 0
BITMAP
84
88
78
00
20
20
20
20
20
20
20
20
20
20
20
20
20
20
20
ENDCHAR
STARTCHAR 012D
ENCODING 301
SWIDTH 241 0
DWIDTH 5 0
BBX 6 17 -1 0
BITMAP
84
88
78
00
00
10
10
10
10
10
10
10
10
10
10
10
10
ENDCHAR
STARTCHAR 012E
ENCODING 302
SWIDTH 241 0
DWIDTH 5 0
BBX 3 20 1 -5
BITMAP
40
40
40
40
40
40
40
40
40
40
40
40
40
40
40
40
80
80
80
E0
ENDCHAR
STARTCHAR 012F
ENCODING 303
SWIDTH 241 0
DWIDTH 5 0
BBX 3 20 1 -5
BITMAP
40
40
00
40
40
40
40
40
40
40
40
40
40
40
40
40
80
80
80
E0
ENDCHAR
STARTCHAR 0130
ENCODING 304
SWIDTH 241 0
DWIDTH 5 0
BBX 1 18 2 0
BITMAP
80
80
00
80
80
80
80
80
80
80
80
80
80
80
80
80
80
80
ENDCHAR
STARTCHAR 0131
ENCODING 305
SWIDTH 241 0
DWIDTH 5 0
BBX 1 12 2 0
BITMAP
80
80
80
80
80
80
80
80
80
80
80
80
ENDCHAR
STARTCHAR 0132
ENCODING 306
SWIDTH 483 0
DWIDTH 10 0
BBX 6 19 2 -4
BITMAP
84
84
84
84
84
84
84
84
84
84
84
84
84
84
84
04
04
0C
78
ENDCHAR
STARTCHAR 0133
ENCODING 307
SWIDTH 483 0
DWIDTH 10 0
BBX 6 20 2 -5
BITMAP
84
84
00
84
84
84
84
84
84
84
84
84
84
84
84
04
04
04
04
38
ENDCHAR
STARTCHAR 0134
ENCODING 308
SWIDTH 241 0
DWIDTH 5 0
BBX 8 23 -2 -4
BITMAP
0C
1E
21
00
08
08
08
08
08
08
08
08
08
08
08
08
08
08
08
08
08
18
F0
ENDCHAR
STARTCHAR 0135
ENCODING 309
SWIDTH 241 0
DWIDTH 5 0
BBX 6 22 -1 -5
BITMAP
30
78
84
00
00
10
10
10
10
10
10
10
10
10
10
10
10
10
10
10
10
E0
ENDCHAR
STARTCHAR 0136
ENCODING 310
SWIDTH 579 0
DWIDTH 12 0
BBX 10 19 2 -4
BITMAP
8080
8100
8200
8600
8C00
9800
B000
F800
C800
8400
8200
8200
8100
8080
80C0
0000
0800
0800
1000
ENDCHAR
STARTCHAR 0137
ENCODING 311
SWIDTH 483 0
DWIDTH 10 0
BBX 8 20 2 -4
BITMAP
80
80
80
80
82
84
8C
88
90
B0
D0
88
8C
84
82
83
00
10
10
20
ENDCHAR
STARTCHAR 0138
ENCODING 312
SWIDTH 483 0
DWIDTH 10 0
BBX 8 12 2 0
BITMAP
82
84
8C
88
90
B0
D0
88
8C
84
82
83
ENDCHAR
STARTCHAR 0139
ENCODING 313
SWIDTH 531 0
DWIDTH 11 0
BBX 9 19 2 0
BITMAP
3000
6000
8000
0000
8000
8000
8000
8000
8000
8000
8000
8000
8000
8000
8000
8000
8000
8000
FF80
ENDCHAR
STARTCHAR 013A
ENCODING 314
SWIDTH 241 0
DWIDTH 5 0
BBX 4 20 1 0
BITMAP
30
60
80
00
40
40
40
40
40
40
40
40
40
40
40
40
40
40
40
40
ENDCHAR
STARTCHAR 013B
ENCODING 315
SWIDTH 531 0
DWIDTH 11 0
BBX 9 19 2 -4
BITMAP
8000
8000
8000
8000
8000
8000
8000
8000
8000
8000
8000
8000
8000
8000
FF80
0000
0800
0800
1000
ENDCHAR
STARTCHAR 013C
ENCODING 316
SWIDTH 241 0
DWIDTH 5 0
BBX 2 20 1 -4
BITMAP
40
40
40
40
40
40
40
40
40
40
40
40
40
40
40
40
00
40
40
80
ENDCHAR
STARTCHAR 013D
ENCODING 317
SWIDTH 531 0
DWIDTH 11 0
BBX 9 15 2 0
BITMAP
8200
8200
8400
8000
8000
8000
8000
8000
8000
8000
8000
8000
8000
8000
FF80
ENDCHAR
STARTCHAR 013E
ENCODING 318
SWIDTH 241 0
DWIDTH 5 0
BBX 4 16 2 0
BITMAP
90
90
A0
80
80
80
80
80
80
80
80
80
80
80
80
80
ENDCHAR
STARTCHAR 013F
ENCODING 319
SWIDTH 531 0
DWIDTH 11 0
BBX 9 15 2 0
BITMAP
8000
8000
8000
8000
8000
8000
8000
8400
8400
8000
8000
8000
8000
8000
FF80
ENDCHAR
STARTCHAR 0140
ENCODING 320
SWIDTH 241 0
DWIDTH 5 0
BBX 3 16 2 0
BITMAP
80
80
80
80
80
80
80
80
A0
A0
80
80
80
80
80
80
ENDCHAR
STARTCHAR 0141
ENCODING 321
SWIDTH 531 0
DWIDTH 11 0
BBX 11 15 0 0
BITMAP
2000
2000
2000
2000
2000
2000
2200
2C00
3800
6000
E000
2000
2000
2000
3FE0
ENDCHAR
STARTCHAR 0142
ENCODING 322
SWIDTH 241 0
DWIDTH 5 0
BBX 5 16 0 0
BITMAP
20
20
20
20
20
20
28
30
60
A0
20
20
20
20
20
20
ENDCHAR
STARTCHAR 0143
ENCODING 323
SWIDTH 724 0
DWIDTH 15 0
BBX 11 19 2 0
BITMAP
0300
0600
0800
0000
8020
C020
A020
A020
9020
8820
8820
8420
8220
8220
8120
80A0
80A0
8060
8020
ENDCHAR
STARTCHAR 0144
ENCODING 324
SWIDTH 579 0
DWIDTH 12 0
BBX 8 17 2 0
BITMAP
06
0C
10
00
00
BE
C3
81
81
81
81
81
81
81
81
81
81
ENDCHAR
STARTCHAR 0145
ENCODING 325
SWIDTH 724 0
DWIDTH 15 0
BBX 11 19 2 -4
BITMAP
8020
C020
A020
A020
9020
8820
8820
8420
8220
8220
8120
80A0
80A0
8060
8020
0000
0400
0400
0800
ENDCHAR
STARTCHAR 0146
ENCODING 326
SWIDTH 579 0
DWIDTH 12 0
BBX 8 16 2 -4
BITMAP
BE
C3
81
81
81
81
81
81
81
81
81
81
00
08
08
10
ENDCHAR
STARTCHAR 0147
ENCODING 327
SWIDTH 724 0
DWIDTH 15 0
BBX 11 19 2 0
BITMAP
1080
0F00
0600
0000
8020
C020
A020
A020
9020
8820
8820
8420
8220
8220
8120
80A0
80A0
8060
8020
ENDCHAR
STARTCHAR 0148
ENCODING 328
SWIDTH 579 0
DWIDTH 12 0
BBX 8 17 2 0
BITMAP
42
3C
18
00
00
BE
C3
81
81
81
81
81
81
81
81
81
81
ENDCHAR
STARTCHAR 0149
ENCODING 329
SWIDTH 628 0
DWIDTH 13 0
BBX 11 15 0 0
BITMAP
6000
4000
4000
57C0
9860
1020
1020
1020
1020
1020
1020
1020
1020
1020
1020
ENDCHAR
STARTCHAR 014A
ENCODING 330
SWIDTH 724 0
DWIDTH 15 0
BBX 11 19 2 -4
BITMAP
8020
C020
A020
A020
9020
8820
8820
8420
8220
8220
8120
80A0
80A0
8060
8020
0020
0020
0040
0380
ENDCHAR
STARTCHAR 014B
ENCODING 331
SWIDTH 579 0
DWIDTH 12 0
BBX 8 17 2 -5
BITMAP
BE
C3
81
81
81
81
81
81
81
81
81
81
01
01
01
01
0E
ENDCHAR
STARTCHAR 014C
ENCODING 332
SWIDTH 773 0
DWIDTH 16 0
BBX 14 17 1 0
BITMAP
0FC0
0000
0FC0
1820
2010
4008
4008
C00C
8004
8004
8004
C00C
4008
4008
2010
1020
0FC0
ENDCHAR
STARTCHAR 014D
ENCODING 333
SWIDTH 579 0
DWIDTH 12 0
BBX 10 15 1 0
BITMAP
3F00
0000
0000
1E00
2100
4080
4080
8040
8040
8040
8040
4080
4080
2100
1E00
ENDCHAR
STARTCHAR 014E
ENCODING 334
SWIDTH 773 0
DWIDTH 16 0
BBX 14 19 1 0
BITMAP
0840
0880
0780
0000
0FC0
1820
2010
4008
4008
C00C
8004
8004
8004
C00C
4008
4008
2010
1020
0FC0
ENDCHAR
STARTCHAR 014F
ENCODING 335
SWIDTH 579 0
DWIDTH 12 0
BBX 10 17 1 0
BITMAP
2100
2200
1E00
0000
0000
1E00
2100
4080
4080
8040
8040
8040
8040
4080
4080
2100
1E00
ENDCHAR
STARTCHAR 0150
ENCODING 336
SWIDTH 773 0
DWIDTH 16 0
BBX 14 19 1 0
BITMAP
0320
0240
0480
0000
0FC0
1820
2010
4008
4008
C00C
8004
8004
8004
C00C
4008
4008
2010
1020
0FC0
ENDCHAR
STARTCHAR 0151
ENCODING 337
SWIDTH 579 0
DWIDTH 12 0
BBX 10 17 1 0
BITMAP
0C80
0900
1200
0000
0000
1E00
2100
4080
4080
8040
8040
8040
8040
4080
4080
2100
1E00
ENDCHAR
STARTCHAR 0152
ENCODING 338
SWIDTH 918 0
DWIDTH 19 0
BBX 17 15 1 0
BITMAP
0FFF80
184000
204000
404000
404000
C04000
C04000
807F00
C04000
404000
404000
404000
204000
104000
0FFF80
ENDCHAR
STARTCHAR 0153
ENCODING 339
SWIDTH 966 0
DWIDTH 20 0
BBX 18 12 1 0
BITMAP
1E1F00
21B180
40A080
40C040
804040
807FC0
804000
804000
404000
40A000
21B000
1E1F80
ENDCHAR
STARTCHAR 0154
ENCODING 340
SWIDTH 579 0
DWIDTH 12 0
BBX 9 19 2 0
BITMAP
0600
0C00
1000
0000
FC00
8300
8100
8080
8080
8180
8100
8300
FC00
8400
8200
8200
8100
8180
8080
ENDCHAR
STARTCHAR 0155
ENCODING 341
SWIDTH 386 0
DWIDTH 8 0
BBX 6 17 2 0
BITMAP
18
30
40
00
00
BC
C0
C0
80
80
80
80
80
80
80
80
80
ENDCHAR
STARTCHAR 0156
ENCODING 342
SWIDTH 579 0
DWIDTH 12 0
BBX 9 19 2 -4
BITMAP
FC00
8300
8100
8080
8080
8180
8100
8300
FC00
8400
8200
8200
8100
8180
8080
0000
0800
0800
1000
ENDCHAR
STARTCHAR 0157
ENCODING 343
SWIDTH 386 0
DWIDTH 8 0
BBX 7 16 1 -4
BITMAP
5E
60
60
40
40
40
40
40
40
40
40
40
00
40
40
80
ENDCHAR
STARTCHAR 0158
ENCODING 344
SWIDTH 579 0
DWIDTH 12 0
BBX 9 19 2 0
BITMAP
4200
3C00
1800
0000
FC00
8300
8100
8080
8080
8180
8100
8300
FC00
8400
8200
8200
8100
8180
8080
ENDCHAR
STARTCHAR 0159
ENCODING 345
SWIDTH 386 0
DWIDTH 8 0
BBX 6 17 2 0
BITMAP
84
78
30
00
00
BC
C0
C0
80
80
80
80
80
80
80
80
80
ENDCHAR
STARTCHAR 015A
ENCODING 346
SWIDTH 531 0
DWIDTH 11 0
BBX 9 19 1 0
BITMAP
0300
0600
0800
0000
3F00
6000
C000
8000
8000
4000
3000
1C00
0300
0180
0080
0080
0080
0300
FE00
ENDCHAR
STARTCHAR 015B
ENCODING 347
SWIDTH 483 0
DWIDTH 10 0
BBX 8 17 1 0
BITMAP
06
0C
10
00
00
3E
40
80
80
40
38
0E
03
01
01
82
FC
ENDCHAR
STARTCHAR 015C
ENCODING 348
SWIDTH 531 0
DWIDTH 11 0
BBX 9 19 1 0
BITMAP
0C00
1E00
2100
0000
3F00
6000
C000
8000
8000
4000
3000
1C00
0300
0180
0080
0080
0080
0300
FE00
ENDCHAR
STARTCHAR 015D
ENCODING 349
SWIDTH 483 0
DWIDTH 10 0
BBX 8 17 1 0
BITMAP
18
3C
42
00
00
3E
40
80
80
40
38
0E
03
01
01
82
FC
ENDCHAR
STARTCHAR 015E
ENCODING 350
SWIDTH 531 0
DWIDTH 11 0
BBX 9 20 1 -5
BITMAP
3F00
6000
C000
8000
8000
4000
3000
1C00
0300
0180
0080
0080
0080
0300
FE00
0800
1800
0400
0400
3800
ENDCHAR
STARTCHAR 015F
ENCODING 351
SWIDTH 483 0
DWIDTH 10 0
BBX 8 17 1 -5
BITMAP
3E
40
80
80
40
38
0E
03
01
01
82
FC
10
30
08
08
70
ENDCHAR
STARTCHAR 0160
ENCODING 352
SWIDTH 531 0
DWIDTH 11 0
BBX 9 19 1 0
BITMAP
2100
1E00
0C00
0000
3F00
6000
C000
8000
8000
4000
3000
1C00
0300
0180
0080
0080
0080
0300
FE00
ENDCHAR
STARTCHAR 0161
ENCODING 353
SWIDTH 483 0
DWIDTH 10 0
BBX 8 17 1 0
BITMAP
42
3C
18
00
00
3E
40
80
80
40
38
0E
03
01
01
82
FC
ENDCHAR
STARTCHAR 0162
ENCODING 354
SWIDTH 531 0
DWIDTH 11 0
BBX 11 20 0 -5
BITMAP
FFE0
0400
0400
0400
0400
0400
0400
0400
0400
0400
0400
0400
0400
0400
0400
0400
0C00
0200
0200
1C00
ENDCHAR
STARTCHAR 0163
ENCODING 355
SWIDTH 338 0
DWIDTH 7 0
BBX 6 20 0 -5
BITMAP
20
20
20
FC
20
20
20
20
20
20
20
20
20
20
1C
08
18
04
04
38
ENDCHAR
STARTCHAR 0164
ENCODING 356
SWIDTH 531 0
DWIDTH 11 0
BBX 11 19 0 0
BITMAP
2100
1E00
0C00
0000
FFE0
0400
0400
0400
0400
0400
0400
0400
0400
0400
0400
0400
0400
0400
0400
ENDCHAR
STARTCHAR 0165
ENCODING 357
SWIDTH 338 0
DWIDTH 7 0
BBX 7 16 0 0
BITMAP
02
22
24
20
FC
20
20
20
20
20
20
20
20
20
20
1C
ENDCHAR
STARTCHAR 0166
ENCODING 358
SWIDTH 531 0
DWIDTH 11 0
BBX 11 15 0 0
BITMAP
FFE0
0400
0400
0400
0400
0400
0400
7FC0
0400
0400
0400
0400
0400
0400
0400
ENDCHAR
STARTCHAR 0167
ENCODING 359
SWIDTH 338 0
DWIDTH 7 0
BBX 6 15 0 0
BITMAP
20
20
20
FC
20
20
20
FC
20
20
20
20
20
20
1C
ENDCHAR
STARTCHAR 0168
ENCODING 360
SWIDTH 724 0
DWIDTH 15 0
BBX 11 18 2 0
BITMAP
1880
2700
0000
8020
8020
8020
8020
8020
8020
8020
8020
8020
8020
8020
8020
4040
60C0
1F00
ENDCHAR
STARTCHAR 0169
ENCODING 361
SWIDTH 579 0
DWIDTH 12 0
BBX 8 16 2 0
BITMAP
31
4E
00
00
81
81
81
81
81
81
81
81
81
81
C3
7D
ENDCHAR
STARTCHAR 016A
ENCODING 362
SWIDTH 724 0
DWIDTH 15 0
BBX 11 17 2 0
BITMAP
1F80
0000
8020
8020
8020
8020
8020
8020
8020
8020
8020
8020
8020
8020
4040
60C0
1F00
ENDCHAR
STARTCHAR 016B
ENCODING 363
SWIDTH 579 0
DWIDTH 12 0
BBX 8 15 2 0
BITMAP
7E
00
00
81
81
81
81
81
81
81
81
81
81
C3
7D
ENDCHAR
STARTCHAR 016C
ENCODING 364
SWIDTH 724 0
DWIDTH 15 0
BBX 11 19 2 0
BITMAP
1080
1100
0F00
0000
8020
8020
8020
8020
8020
8020
8020
8020
8020
8020
8020
8020
4040
60C0
1F00
ENDCHAR
STARTCHAR 016D
ENCODING 365
SWIDTH 579 0
DWIDTH 12 0
BBX 8 17 2 0
BITMAP
42
44
3C
00
00
81
81
81
81
81
81
81
81
81
81
C3
7D
ENDCHAR
STARTCHAR 016E
ENCODING 366
SWIDTH 724 0
DWIDTH 15 0
BBX 11 20 2 0
BITMAP
0E00
0900
0900
0F00
0000
8020
8020
8020
8020
8020
8020
8020
8020
8020
8020
8020
8020
4040
60C0
1F00
ENDCHAR
STARTCHAR 016F
ENCODING 367
SWIDTH 579 0
DWIDTH 12 0
BBX 8 18 2 0
BITMAP
38
24
24
3C
00
00
81
81
81
81
81
81
81
81
81
81
C3
7D
ENDCHAR
STARTCHAR 0170
ENCODING 368
SWIDTH 724 0
DWIDTH 15 0
BBX 11 19 2 0
BITMAP
0C80
0900
1200
0000
8020
8020
8020
8020
8020
8020
8020
8020
8020
8020
8020
8020
4040
60C0
1F00
ENDCHAR
STARTCHAR 0171
ENCODING 369
SWIDTH 579 0
DWIDTH 12 0
BBX 8 17 2 0
BITMAP
19
12
24
00
00
81
81
81
81
81
81
81
81
81
81
C3
7D
ENDCHAR
STARTCHAR 0172
ENCODING 370
SWIDTH 724 0
DWIDTH 15 0
BBX 11 20 2 -5
BITMAP
8020
8020
8020
8020
8020
8020
8020
8020
8020
8020
8020
8020
4040
60C0
1F00
0400
0800
0800
0800
0E00
ENDCHAR
STARTCHAR 0173
ENCODING 371
SWIDTH 579 0
DWIDTH 12 0
BBX 9 17 2 -5
BITMAP
8100
8100
8100
8100
8100
8100
8100
8100
8100
8100
C300
7D00
0100
0200
0200
0200
0380
ENDCHAR
STARTCHAR 0174
ENCODING 372
SWIDTH 918 0
DWIDTH 19 0
BBX 17 19 1 0
BITMAP
018000
03C000
042000
000000
808080
814080
814080
414100
414100
422100
422100
222200
241200
241200
341200
141400
180C00
180C00
080800
ENDCHAR
STARTCHAR 0175
ENCODING 373
SWIDTH 724 0
DWIDTH 15 0
BBX 15 17 0 0
BITMAP
0180
03C0
0420
0000
0000
C102
4184
4284
4284
6284
2448
2448
2448
1428
1830
1830
1830
ENDCHAR
STARTCHAR 0176
ENCODING 374
SWIDTH 531 0
DWIDTH 11 0
BBX 11 19 0 0
BITMAP
0600
0F00
1080
0000
8020
4040
6040
2080
3180
1100
1B00
0A00
0400
0400
0400
0400
0400
0400
0400
ENDCHAR
STARTCHAR 0177
ENCODING 375
SWIDTH 483 0
DWIDTH 10 0
BBX 10 22 0 -5
BITMAP
0C00
1E00
2100
0000
0000
8040
4080
4080
4080
2100
2100
2100
1200
1200
0C00
0C00
0C00
0800
0800
1000
1000
E000
ENDCHAR
STARTCHAR 0178
ENCODING 376
SWIDTH 531 0
DWIDTH 11 0
BBX 11 18 0 0
BITMAP
1980
1980
0000
8020
4040
6040
2080
3180
1100
1B00
0A00
0400
0400
0400
0400
0400
0400
0400
ENDCHAR
STARTCHAR 0179
ENCODING 377
SWIDTH 579 0
DWIDTH 12 0
BBX 10 19 1 0
BITMAP
0300
0600
0800
0000
FFC0
0080
0080
0100
0200
0200
0400
0C00
0800
1000
3000
2000
4000
C000
FFC0
ENDCHAR
STARTCHAR 017A
ENCODING 378
SWIDTH 483 0
DWIDTH 10 0
BBX 8 17 1 0
BITMAP
06
0C
10
00
00
FF
03
02
04
0C
08
10
30
20
40
C0
FF
ENDCHAR
STARTCHAR 017B
ENCODING 379
SWIDTH 579 0
DWIDTH 12 0
BBX 10 18 1 0
BITMAP
0400
0400
0000
FFC0
0080
0080
0100
0200
0200
0400
0C00
0800
1000
3000
2000
4000
C000
FFC0
ENDCHAR
STARTCHAR 017C
ENCODING 380
SWIDTH 483 0
DWIDTH 10 0
BBX 8 16 1 0
BITMAP
08
08
00
00
FF
03
02
04
0C
08
10
30
20
40
C0
FF
ENDCHAR
STARTCHAR 017D
ENCODING 381
SWIDTH 579 0
DWIDTH 12 0
BBX 10 19 1 0
BITMAP
2100
1E00
0C00
0000
FFC0
0080
0080
0100
0200
0200
0400
0C00
0800
1000
3000
2000
4000
C000
FFC0
ENDCHAR
STARTCHAR 017E
ENCODING 382
SWIDTH 483 0
DWIDTH 10 0
BBX 8 17 1 0
BITMAP
42
3C
18
00
00
FF
03
02
04
0C
08
10
30
20
40
C0
FF
ENDCHAR
STARTCHAR 017F
ENCODING 383
SWIDTH 289 0
DWIDTH 6 0
BBX 5 16 2 0
BITMAP
78
80
80
80
80
80
80
80
80
80
80
80
80
80
80
80
ENDCHAR
STARTCHAR 0192
ENCODING 402
SWIDTH 579 0
DWIDTH 12 0
BBX 8 20 2 -5
BITMAP
0F
08
10
10
10
7E
10
10
10
10
10
10
10
10
10
10
10
10
10
E0
ENDCHAR
STARTCHAR 01A0
ENCODING 416
SWIDTH 773 0
DWIDTH 16 0
BBX 15 16 1 0
BITMAP
0002
0FC2
1824
201C
4008
4008
C00C
8004
8004
8004
C00C
4008
4008
2010
1020
0FC0
ENDCHAR
STARTCHAR 01A1
ENCODING 417
SWIDTH 579 0
DWIDTH 12 0
BBX 11 14 1 0
BITMAP
0020
0020
1E20
2140
4080
4080
8040
8040
8040
8040
4080
4080
2100
1E00
ENDCHAR
STARTCHAR 01AF
ENCODING 431
SWIDTH 724 0
DWIDTH 15 0
BBX 14 16 2 0
BITMAP
0004
802C
8028
8030
8020
8020
8020
8020
8020
8020
8020
8020
8020
4040
6080
1F00
ENDCHAR
STARTCHAR 01B0
ENCODING 432
SWIDTH 628 0
DWIDTH 13 0
BBX 12 14 2 0
BITMAP
0030
0020
80A0
80C0
8080
8080
8080
8080
8080
8080
8180
8180
C280
7C80
ENDCHAR
STARTCHAR 01F0
ENCODING 496
SWIDTH 241 0
DWIDTH 5 0
BBX 6 22 -1 -5
BITMAP
84
78
30
00
00
10
10
10
10
10
10
10
10
10
10
10
10
10
10
10
10
E0
ENDCHAR
STARTCHAR 01FA
ENCODING 506
SWIDTH 628 0
DWIDTH 13 0
BBX 13 20 0 0
BITMAP
0080
0300
0000
0700
0880
0880
0880
0700
0200
0500
0500
0880
0880
1040
1FC0
2020
2020
4010
4010
8008
ENDCHAR
STARTCHAR 01FB
ENCODING 507
SWIDTH 531 0
DWIDTH 11 0
BBX 8 21 1 0
BITMAP
06
04
08
00
1C
22
22
1C
00
3E
43
01
01
01
3F
41
81
81
81
C3
7D
ENDCHAR
STARTCHAR 01FC
ENCODING 508
SWIDTH 821 0
DWIDTH 17 0
BBX 16 19 0 0
BITMAP
0018
0030
0040
0000
03FF
0280
0280
0480
0480
0880
0880
18FE
1080
3F80
2080
2080
4080
4080
80FF
ENDCHAR
STARTCHAR 01FD
ENCODING 509
SWIDTH 869 0
DWIDTH 18 0
BBX 16 17 1 0
BITMAP
0060
00C0
0100
0000
0000
3E3C
43C6
0182
0181
0101
3FFF
4100
8100
8180
8180
C2C0
7C3E
ENDCHAR
STARTCHAR 01FE
ENCODING 510
SWIDTH 773 0
DWIDTH 16 0
BBX 14 19 1 0
BITMAP
00C0
0180
0200
0000
0FC8
1830
2030
4068
4048
C08C
8104
8304
8204
C40C
4808
5808
3010
3020
4FC0
ENDCHAR
STARTCHAR 01FF
ENCODING 511
SWIDTH 579 0
DWIDTH 12 0
BBX 10 17 1 0
BITMAP
0300
0600
0800
0000
0000
1EC0
2180
4180
4280
8240
8440
8840
9840
5080
6080
6100
DE00
ENDCHAR
STARTCHAR 0218
ENCODING 536
SWIDTH 531 0
DWIDTH 11 0
BBX 9 19 1 -4
BITMAP
3F00
6000
C000
8000
8000
4000
3000
1C00
0300
0180
0080
0080
0080
0300
FE00
0000
0800
0800
1000
ENDCHAR
STARTCHAR 0219
ENCODING 537
SWIDTH 483 0
DWIDTH 10 0
BBX 8 16 1 -4
BITMAP
3E
40
80
80
40
38
0E
03
01
01
82
FC
00
10
10
20
ENDCHAR
STARTCHAR 021A
ENCODING 538
SWIDTH 531 0
DWIDTH 11 0
BBX 11 19 0 -4
BITMAP
FFE0
0400
0400
0400
0400
0400
0400
0400
0400
0400
0400
0400
0400
0400
0400
0000
0400
0400
0800
ENDCHAR
STARTCHAR 021B
ENCODING 539
SWIDTH 338 0
DWIDTH 7 0
BBX 6 19 0 -4
BITMAP
20
20
20
FC
20
20
20
20
20
20
20
20
20
20
1C
00
08
08
10
ENDCHAR
STARTCHAR 0237
ENCODING 567
SWIDTH 241 0
DWIDTH 5 0
BBX 4 17 -1 -5
BITMAP
10
10
10
10
10
10
10
10
10
10
10
10
10
10
10
10
E0
ENDCHAR
STARTCHAR 02BC
ENCODING 700
SWIDTH 144 0
DWIDTH 3 0
BBX 3 5 0 10
BITMAP
60
40
40
40
80
ENDCHAR
STARTCHAR 02C6
ENCODING 710
SWIDTH 579 0
DWIDTH 12 0
BBX 6 3 3 13
BITMAP
30
78
84
ENDCHAR
STARTCHAR 02C7
ENCODING 711
SWIDTH 579 0
DWIDTH 12 0
BBX 6 3 3 13
BITMAP
84
78
30
ENDCHAR
STARTCHAR 02C9
ENCODING 713
SWIDTH 579 0
DWIDTH 12 0
BBX 6 1 3 13
BITMAP
FC
ENDCHAR
STARTCHAR 02D8
ENCODING 728
SWIDTH 579 0
DWIDTH 12 0
BBX 6 3 3 13
BITMAP
84
88
78
ENDCHAR
STARTCHAR 02D9
ENCODING 729
SWIDTH 241 0
DWIDTH 5 0
BBX 1 2 2 13
BITMAP
80
80
ENDCHAR
STARTCHAR 02DA
ENCODING 730
SWIDTH 579 0
DWIDTH 12 0
BBX 4 4 4 13
BITMAP
E0
90
90
F0
ENDCHAR
STARTCHAR 02DB
ENCODING 731
SWIDTH 193 0
DWIDTH 4 0
BBX 3 5 1 -5
BITMAP
40
80
80
80
E0
ENDCHAR
STARTCHAR 02DC
ENCODING 732
SWIDTH 579 0
DWIDTH 12 0
BBX 7 2 3 13
BITMAP
62
9C
ENDCHAR
STARTCHAR 02DD
ENCODING 733
SWIDTH 579 0
DWIDTH 12 0
BBX 6 3 3 13
BITMAP
64
48
90
ENDCHAR
STARTCHAR 02F3
ENCODING 755
SWIDTH 338 0
DWIDTH 7 0
BBX 5 4 1 -5
BITMAP
70
88
88
70
ENDCHAR
STARTCHAR 0300
ENCODING 768
SWIDTH 0 0
DWIDTH 0 0
BBX 4 3 -9 13
BITMAP
C0
60
10
ENDCHAR
STARTCHAR 0301
ENCODING 769
SWIDTH 0 0
DWIDTH 0 0
BBX 4 3 -7 13
BITMAP
30
60
80
ENDCHAR
STARTCHAR 0303
ENCODING 771
SWIDTH 0 0
DWIDTH 0 0
BBX 7 2 -10 13
BITMAP
62
9C
ENDCHAR
STARTCHAR 0309
ENCODING 777
SWIDTH 0 0
DWIDTH 0 0
BBX 4 5 -8 12
BITMAP
E0
10
10
60
40
ENDCHAR
STARTCHAR 030F
ENCODING 783
SWIDTH 0 0
DWIDTH 0 0
BBX 6 3 -10 13
BITMAP
98
48
24
ENDCHAR
STARTCHAR 0323
ENCODING 803
SWIDTH 0 0
DWIDTH 0 0
BBX 1 2 -7 -3
BITMAP
80
80
ENDCHAR
STARTCHAR 0384
ENCODING 900
SWIDTH 579 0
DWIDTH 12 0
BBX 3 4 5 13
BITMAP
60
40
40
80
ENDCHAR
STARTCHAR 0385
ENCODING 901
SWIDTH 579 0
DWIDTH 12 0
BBX 6 4 3 13
BITMAP
18
10
A4
84
ENDCHAR
STARTCHAR 0386
ENCODING 902
SWIDTH 628 0
DWIDTH 13 0
BBX 13 16 0 0
BITMAP
6000
4200
4300
8500
0500
0C80
0880
08C0
1040
1040
3FE0
2020
6030
4010
4010
8008
ENDCHAR
STARTCHAR 0387
ENCODING 903
SWIDTH 241 0
DWIDTH 5 0
BBX 1 2 2 7
BITMAP
80
80
ENDCHAR
STARTCHAR 0388
ENCODING 904
SWIDTH 628 0
DWIDTH 13 0
BBX 13 16 -1 0
BITMAP
6000
4FF8
4800
8800
0800
0800
0800
0800
0FF0
0800
0800
0800
0800
0800
0800
0FF8
ENDCHAR
STARTCHAR 0389
ENCODING 905
SWIDTH 773 0
DWIDTH 16 0
BBX 15 16 -1 0
BITMAP
6000
4802
4802
8802
0802
0802
0802
0802
0FFE
0802
0802
0802
0802
0802
0802
0802
ENDCHAR
STARTCHAR 038A
ENCODING 906
SWIDTH 289 0
DWIDTH 6 0
BBX 5 16 -1 0
BITMAP
60
48
48
88
08
08
08
08
08
08
08
08
08
08
08
08
ENDCHAR
STARTCHAR 038C
ENCODING 908
SWIDTH 773 0
DWIDTH 16 0
BBX 16 16 -1 0
BITMAP
6000
43F0
4608
8804
1002
1002
3003
2001
2001
2001
3003
1002
1002
0804
0408
03F0
ENDCHAR
STARTCHAR 038E
ENCODING 910
SWIDTH 676 0
DWIDTH 14 0
BBX 14 16 -1 0
BITMAP
6000
5004
4808
8C08
0410
0630
0220
0360
0140
0080
0080
0080
0080
0080
0080
0080
ENDCHAR
STARTCHAR 038F
ENCODING 911
SWIDTH 773 0
DWIDTH 16 0
BBX 16 16 -1 0
BITMAP
6000
43F0
4C0C
8806
1002
1002
3003
2003
3003
1002
1002
1002
0804
0C0C
0618
3F3F
ENDCHAR
STARTCHAR 0390
ENCODING 912
SWIDTH 289 0
DWIDTH 6 0
BBX 7 18 -1 0
BITMAP
18
10
A4
84
00
00
10
10
10
10
10
10
10
10
10
10
10
0E
ENDCHAR
STARTCHAR 0391
ENCODING 913
SWIDTH 628 0
DWIDTH 13 0
BBX 13 15 0 0
BITMAP
0200
0300
0500
0500
0C80
0880
08C0
1040
1040
3FE0
2020
6030
4010
4010
8008
ENDCHAR
STARTCHAR 0392
ENCODING 914
SWIDTH 628 0
DWIDTH 13 0
BBX 10 15 2 0
BITMAP
FE00
8180
8080
8080
8080
8080
8100
FE00
8180
80C0
8040
8040
80C0
8180
FE00
ENDCHAR
STARTCHAR 0393
ENCODING 915
SWIDTH 531 0
DWIDTH 11 0
BBX 9 15 2 0
BITMAP
FF80
8000
8000
8000
8000
8000
8000
8000
8000
8000
8000
8000
8000
8000
8000
ENDCHAR
STARTCHAR 0394
ENCODING 916
SWIDTH 579 0
DWIDTH 12 0
BBX 12 15 0 0
BITMAP
0600
0600
0600
0900
0900
0900
1080
1080
2040
2040
2040
4020
4020
4020
FFF0
ENDCHAR
STARTCHAR 0395
ENCODING 917
SWIDTH 579 0
DWIDTH 12 0
BBX 9 15 2 0
BITMAP
FF80
8000
8000
8000
8000
8000
8000
FF00
8000
8000
8000
8000
8000
8000
FF80
ENDCHAR
STARTCHAR 0396
ENCODING 918
SWIDTH 579 0
DWIDTH 12 0
BBX 10 15 1 0
BITMAP
FFC0
0080
0080
0100
0200
0200
0400
0C00
0800
1000
3000
2000
4000
C000
FFC0
ENDCHAR
STARTCHAR 0397
ENCODING 919
SWIDTH 724 0
DWIDTH 15 0
BBX 11 15 2 0
BITMAP
8020
8020
8020
8020
8020
8020
8020
FFE0
8020
8020
8020
8020
8020
8020
8020
ENDCHAR
STARTCHAR 0398
ENCODING 920
SWIDTH 773 0
DWIDTH 16 0
BBX 14 15 1 0
BITMAP
0FC0
1820
2010
4008
4008
C00C
8004
8FC4
8004
C00C
4008
4008
2010
1020
0FC0
ENDCHAR
STARTCHAR 0399
ENCODING 921
SWIDTH 241 0
DWIDTH 5 0
BBX 1 15 2 0
BITMAP
80
80
80
80
80
80
80
80
80
80
80
80
80
80
80
ENDCHAR
STARTCHAR 039A
ENCODING 922
SWIDTH 579 0
DWIDTH 12 0
BBX 10 15 2 0
BITMAP
8080
8100
8200
8600
8C00
9800
B000
F800
C800
8400
8200
8200
8100
8080
80C0
ENDCHAR
STARTCHAR 039B
ENCODING 923
SWIDTH 628 0
DWIDTH 13 0
BBX 13 15 0 0
BITMAP
0200
0200
0500
0500
0C80
0880
0880
1040
1040
2020
2020
6030
4010
4010
8008
ENDCHAR
STARTCHAR 039C
ENCODING 924
SWIDTH 869 0
DWIDTH 18 0
BBX 14 15 2 0
BITMAP
C00C
C00C
A014
A014
B014
9024
9024
8844
8844
8C44
8484
8484
8304
8304
8304
ENDCHAR
STARTCHAR 039D
ENCODING 925
SWIDTH 724 0
DWIDTH 15 0
BBX 11 15 2 0
BITMAP
8020
C020
A020
A020
9020
8820
8820
8420
8220
8220
8120
80A0
80A0
8060
8020
ENDCHAR
STARTCHAR 039E
ENCODING 926
SWIDTH 531 0
DWIDTH 11 0
BBX 11 15 0 0
BITMAP
7FC0
0000
0000
0000
0000
0000
0000
3F80
0000
0000
0000
0000
0000
0000
FFE0
ENDCHAR
STARTCHAR 039F
ENCODING 927
SWIDTH 773 0
DWIDTH 16 0
BBX 14 15 1 0
BITMAP
0FC0
1820
2010
4008
4008
C00C
8004
8004
8004
C00C
4008
4008
2010
1020
0FC0
ENDCHAR
STARTCHAR 03A0
ENCODING 928
SWIDTH 724 0
DWIDTH 15 0
BBX 11 15 2 0
BITMAP
FFE0
8020
8020
8020
8020
8020
8020
8020
8020
8020
8020
8020
8020
8020
8020
ENDCHAR
STARTCHAR 03A1
ENCODING 929
SWIDTH 579 0
DWIDTH 12 0
BBX 9 15 2 0
BITMAP
FE00
8300
8180
8080
8080
8080
8100
8300
FC00
8000
8000
8000
8000
8000
8000
ENDCHAR
STARTCHAR 03A3
ENCODING 931
SWIDTH 579 0
DWIDTH 12 0
BBX 11 15 1 0
BITMAP
FFC0
C000
6000
2000
1000
0800
0400
0400
0C00
1800
1000
2000
4000
8000
FFE0
ENDCHAR
STARTCHAR 03A4
ENCODING 932
SWIDTH 531 0
DWIDTH 11 0
BBX 11 15 0 0
BITMAP
FFE0
0400
0400
0400
0400
0400
0400
0400
0400
0400
0400
0400
0400
0400
0400
ENDCHAR
STARTCHAR 03A5
ENCODING 933
SWIDTH 531 0
DWIDTH 11 0
BBX 11 15 0 0
BITMAP
8020
4040
6040
2080
3180
1100
1B00
0A00
0400
0400
0400
0400
0400
0400
0400
ENDCHAR
STARTCHAR 03A6
ENCODING 934
SWIDTH 773 0
DWIDTH 16 0
BBX 14 15 1 0
BITMAP
0300
0300
1FE0
2310
4308
C30C
8304
8304
8304
C30C
4308
2310
1FE0
0300
0300
ENDCHAR
STARTCHAR 03A7
ENCODING 935
SWIDTH 531 0
DWIDTH 11 0
BBX 11 15 0 0
BITMAP
4040
6040
2080
1100
1100
0A00
0E00
0400
0A00
1B00
1100
2080
2080
4040
8060
ENDCHAR
STARTCHAR 03A8
ENCODING 936
SWIDTH 773 0
DWIDTH 16 0
BBX 14 15 1 0
BITMAP
820C
820C
820C
820C
820C
820C
C208
4208
2210
1FE0
0200
0200
0200
0200
0200
ENDCHAR
STARTCHAR 03A9
ENCODING 937
SWIDTH 773 0
DWIDTH 16 0
BBX 14 15 1 0
BITMAP
0FC0
3030
2018
4008
4008
C00C
800C
C00C
4008
4008
4008
2010
3030
1860
FCFC
ENDCHAR
STARTCHAR 03AA
ENCODING 938
SWIDTH 241 0
DWIDTH 5 0
BBX 6 18 0 0
BITMAP
CC
CC
00
20
20
20
20
20
20
20
20
20
20
20
20
20
20
20
ENDCHAR
STARTCHAR 03AB
ENCODING 939
SWIDTH 531 0
DWIDTH 11 0
BBX 11 18 0 0
BITMAP
1980
1980
0000
8020
4040
6040
2080
3180
1100
1B00
0A00
0400
0400
0400
0400
0400
0400
0400
ENDCHAR
STARTCHAR 03AC
ENCODING 940
SWIDTH 579 0
DWIDTH 12 0
BBX 11 18 1 0
BITMAP
0600
0400
0400
0800
0000
0000
1E40
6180
4080
C080
8080
8080
8080
8080
C080
4080
6180
1E60
ENDCHAR
STARTCHAR 03AD
ENCODING 941
SWIDTH 483 0
DWIDTH 10 0
BBX 8 18 1 0
BITMAP
0C
08
08
10
00
00
3F
40
C0
C0
40
3C
40
80
80
80
40
3F
ENDCHAR
STARTCHAR 03AE
ENCODING 942
SWIDTH 579 0
DWIDTH 12 0
BBX 8 23 2 -5
BITMAP
0C
08
08
10
00
00
BE
C3
81
81
81
81
81
81
81
81
81
81
01
01
01
01
01
ENDCHAR
STARTCHAR 03AF
ENCODING 943
SWIDTH 289 0
DWIDTH 6 0
BBX 5 18 1 0
BITMAP
60
40
40
80
00
00
40
40
40
40
40
40
40
40
40
40
40
38
ENDCHAR
STARTCHAR 03B0
ENCODING 944
SWIDTH 628 0
DWIDTH 13 0
BBX 10 18 2 0
BITMAP
0C00
0800
5200
4200
0000
0000
8080
8080
8080
80C0
8040
8040
80C0
8080
8080
8080
4100
3E00
ENDCHAR
STARTCHAR 03B1
ENCODING 945
SWIDTH 579 0
DWIDTH 12 0
BBX 11 12 1 0
BITMAP
1E40
6180
4080
C080
8080
8080
8080
8080
C080
4080
6180
1E60
ENDCHAR
STARTCHAR 03B2
ENCODING 946
SWIDTH 628 0
DWIDTH 13 0
BBX 10 21 2 -5
BITMAP
3E00
4180
8080
8080
8080
8080
8100
8E00
8180
80C0
8040
8040
8040
8040
C080
BF00
8000
8000
8000
8000
8000
ENDCHAR
STARTCHAR 03B3
ENCODING 947
SWIDTH 483 0
DWIDTH 10 0
BBX 10 17 0 -5
BITMAP
8040
4080
4080
6080
2100
2100
1100
1200
1200
0C00
0C00
0400
0800
0800
0800
0800
0800
ENDCHAR
STARTCHAR 03B4
ENCODING 948
SWIDTH 579 0
DWIDTH 12 0
BBX 10 16 1 0
BITMAP
1F00
3080
2000
2000
3000
0800
0E00
3100
4080
40C0
8040
8040
8040
4080
6180
1E00
ENDCHAR
STARTCHAR 03B5
ENCODING 949
SWIDTH 483 0
DWIDTH 10 0
BBX 8 12 1 0
BITMAP
3F
40
C0
C0
40
3C
40
80
80
80
40
3F
ENDCHAR
STARTCHAR 03B6
ENCODING 950
SWIDTH 483 0
DWIDTH 10 0
BBX 8 20 1 -4
BITMAP
7F
03
06
0C
18
10
20
40
40
C0
80
80
80
40
30
0E
01
01
01
02
ENDCHAR
STARTCHAR 03B7
ENCODING 951
SWIDTH 579 0
DWIDTH 12 0
BBX 8 17 2 -5
BITMAP
BE
C3
81
81
81
81
81
81
81
81
81
81
01
01
01
01
01
ENDCHAR
STARTCHAR 03B8
ENCODING 952
SWIDTH 579 0
DWIDTH 12 0
BBX 10 16 1 0
BITMAP
1E00
2100
4080
4080
4080
8040
8040
FFC0
8040
8040
8040
4080
4080
4080
2100
1E00
ENDCHAR
STARTCHAR 03B9
ENCODING 953
SWIDTH 289 0
DWIDTH 6 0
BBX 4 12 2 0
BITMAP
80
80
80
80
80
80
80
80
80
80
80
70
ENDCHAR
STARTCHAR 03BA
ENCODING 954
SWIDTH 483 0
DWIDTH 10 0
BBX 8 12 2 0
BITMAP
82
84
8C
88
90
B0
D0
88
8C
84
82
83
ENDCHAR
STARTCHAR 03BB
ENCODING 955
SWIDTH 531 0
DWIDTH 11 0
BBX 11 16 0 0
BITMAP
7000
0800
0800
0C00
0400
0400
0A00
0A00
1200
1100
2100
2180
6080
4080
4040
8060
ENDCHAR
STARTCHAR 03BC
ENCODING 956
SWIDTH 628 0
DWIDTH 13 0
BBX 9 17 2 -5
BITMAP
8080
8080
8080
8080
8080
8080
8080
8080
8080
8180
C380
BC80
8000
8000
8000
8000
8000
ENDCHAR
STARTCHAR 03BD
ENCODING 957
SWIDTH 531 0
DWIDTH 11 0
BBX 10 12 0 0
BITMAP
8040
4040
4040
4040
2040
2080
2080
1080
1100
1200
0A00
0C00
ENDCHAR
STARTCHAR 03BE
ENCODING 958
SWIDTH 483 0
DWIDTH 10 0
BBX 8 20 1 -4
BITMAP
7F
10
20
40
40
40
20
1F
20
40
80
80
80
40
30
0E
01
01
01
01
ENDCHAR
STARTCHAR 03BF
ENCODING 959
SWIDTH 579 0
DWIDTH 12 0
BBX 10 12 1 0
BITMAP
1E00
2100
4080
4080
8040
8040
8040
8040
4080
4080
2100
1E00
ENDCHAR
STARTCHAR 03C0
ENCODING 960
SWIDTH 628 0
DWIDTH 13 0
BBX 12 12 0 0
BITMAP
FFF0
1040
1040
1040
1040
1040
1040
1040
1040
1040
1040
1030
ENDCHAR
STARTCHAR 03C1
ENCODING 961
SWIDTH 579 0
DWIDTH 12 0
BBX 9 17 2 -5
BITMAP
3C00
4300
8100
8180
8080
8080
8080
8080
8180
8100
C300
BC00
8000
8000
8000
8000
8000
ENDCHAR
STARTCHAR 03C2
ENCODING 962
SWIDTH 483 0
DWIDTH 10 0
BBX 8 16 1 -4
BITMAP
1F
20
40
40
80
80
80
80
40
40
30
0E
01
01
01
02
ENDCHAR
STARTCHAR 03C3
ENCODING 963
SWIDTH 579 0
DWIDTH 12 0
BBX 11 12 1 0
BITMAP
1FE0
2100
4080
4080
80C0
8040
8040
8040
C080
4080
6100
1E00
ENDCHAR
STARTCHAR 03C4
ENCODING 964
SWIDTH 434 0
DWIDTH 9 0
BBX 8 12 0 0
BITMAP
FF
10
10
10
10
10
10
10
10
10
08
0F
ENDCHAR
STARTCHAR 03C5
ENCODING 965
SWIDTH 628 0
DWIDTH 13 0
BBX 10 12 2 0
BITMAP
8080
8080
8080
80C0
8040
8040
80C0
8080
8080
8080
4100
3E00
ENDCHAR
STARTCHAR 03C6
ENCODING 966
SWIDTH 676 0
DWIDTH 14 0
BBX 12 17 1 -5
BITMAP
21C0
4220
4220
C410
8410
8410
8410
8410
4420
4420
24C0
1F80
0400
0400
0400
0400
0400
ENDCHAR
STARTCHAR 03C7
ENCODING 967
SWIDTH 531 0
DWIDTH 11 0
BBX 11 17 0 -5
BITMAP
6040
2080
1080
1100
1100
0A00
0A00
0C00
0400
0C00
1A00
1200
2100
2100
4100
4080
80E0
ENDCHAR
STARTCHAR 03C8
ENCODING 968
SWIDTH 724 0
DWIDTH 15 0
BBX 12 21 2 -5
BITMAP
0400
0400
0400
0400
8420
8420
8420
8410
8410
8410
8410
8420
8420
C460
64C0
1F00
0400
0400
0400
0400
0400
ENDCHAR
STARTCHAR 03C9
ENCODING 969
SWIDTH 724 0
DWIDTH 15 0
BBX 13 12 1 0
BITMAP
4010
4010
4010
8008
8208
8208
8208
8208
8208
4210
4510
38E0
ENDCHAR
STARTCHAR 03CA
ENCODING 970
SWIDTH 289 0
DWIDTH 6 0
BBX 6 16 0 0
BITMAP
CC
CC
00
00
20
20
20
20
20
20
20
20
20
20
20
1C
ENDCHAR
STARTCHAR 03CB
ENCODING 971
SWIDTH 628 0
DWIDTH 13 0
BBX 10 16 2 0
BITMAP
6600
6600
0000
0000
8080
8080
8080
80C0
8040
8040
80C0
8080
8080
8080
4100
3E00
ENDCHAR
STARTCHAR 03CC
ENCODING 972
SWIDTH 579 0
DWIDTH 12 0
BBX 10 18 1 0
BITMAP
0600
0400
0400
0800
0000
0000
1E00
2100
4080
4080
8040
8040
8040
8040
4080
4080
2100
1E00
ENDCHAR
STARTCHAR 03CD
ENCODING 973
SWIDTH 628 0
DWIDTH 13 0
BBX 10 18 2 0
BITMAP
0C00
0800
0800
1000
0000
0000
8080
8080
8080
80C0
8040
8040
80C0
8080
8080
8080
4100
3E00
ENDCHAR
STARTCHAR 03CE
ENCODING 974
SWIDTH 724 0
DWIDTH 15 0
BBX 13 18 1 0
BITMAP
0180
0100
0100
0200
0000
0000
4010
4010
4010
8008
8208
8208
8208
8208
8208
4210
4510
38E0
ENDCHAR
STARTCHAR 03D1
ENCODING 977
SWIDTH 579 0
DWIDTH 12 0
BBX 12 16 0 0
BITMAP
0F00
1180
2080
1040
1040
0C40
03F0
E040
2040
2040
2040
2040
2040
2080
3180
1F00
ENDCHAR
STARTCHAR 03D2
ENCODING 978
SWIDTH 531 0
DWIDTH 11 0
BBX 11 15 0 0
BITMAP
8060
40C0
4080
2180
3100
1100
1A00
0A00
0C00
0400
0400
0400
0400
0400
0400
ENDCHAR
STARTCHAR 03D6
ENCODING 982
SWIDTH 773 0
DWIDTH 16 0
BBX 15 12 0 0
BITMAP
FFFE
1008
2008
2004
2004
2004
6104
4104
2104
2104
2188
1E78
ENDCHAR
STARTCHAR 0400
ENCODING 1024
SWIDTH 579 0
DWIDTH 12 0
BBX 9 19 2 0
BITMAP
6000
3000
0800
0000
FF80
8000
8000
8000
8000
8000
8000
FF00
8000
8000
8000
8000
8000
8000
FF80
ENDCHAR
STARTCHAR 0401
ENCODING 1025
SWIDTH 579 0
DWIDTH 12 0
BBX 9 18 2 0
BITMAP
6600
6600
0000
FF80
8000
8000
8000
8000
8000
8000
FF00
8000
8000
8000
8000
8000
8000
FF80
ENDCHAR
STARTCHAR 0402
ENCODING 1026
SWIDTH 724 0
DWIDTH 15 0
BBX 13 15 0 0
BITMAP
FFC0
0800
0800
0800
0800
0800
0FF0
0818
0808
0808
0808
0808
0808
0818
08F0
ENDCHAR
STARTCHAR 0403
ENCODING 1027
SWIDTH 531 0
DWIDTH 11 0
BBX 9 19 2 0
BITMAP
0600
0C00
1000
0000
FF80
8000
8000
8000
8000
8000
8000
8000
8000
8000
8000
8000
8000
8000
8000
ENDCHAR
STARTCHAR 0404
ENCODING 1028
SWIDTH 628 0
DWIDTH 13 0
BBX 11 15 1 0
BITMAP
07E0
1820
2000
6000
4000
4000
C000
FF80
8000
C000
4000
4000
2000
1800
0FE0
ENDCHAR
STARTCHAR 0405
ENCODING 1029
SWIDTH 531 0
DWIDTH 11 0
BBX 9 15 1 0
BITMAP
3F00
6000
C000
8000
8000
4000
3000
1C00
0300
0180
0080
0080
0080
0300
FE00
ENDCHAR
STARTCHAR 0406
ENCODING 1030
SWIDTH 241 0
DWIDTH 5 0
BBX 1 15 2 0
BITMAP
80
80
80
80
80
80
80
80
80
80
80
80
80
80
80
ENDCHAR
STARTCHAR 0407
ENCODING 1031
SWIDTH 241 0
DWIDTH 5 0
BBX 6 18 0 0
BITMAP
CC
CC
00
20
20
20
20
20
20
20
20
20
20
20
20
20
20
20
ENDCHAR
STARTCHAR 0408
ENCODING 1032
SWIDTH 241 0
DWIDTH 5 0
BBX 5 19 -2 -4
BITMAP
08
08
08
08
08
08
08
08
08
08
08
08
08
08
08
08
08
18
F0
ENDCHAR
STARTCHAR 0409
ENCODING 1033
SWIDTH 918 0
DWIDTH 19 0
BBX 18 15 0 0
BITMAP
07E000
042000
082000
082000
082000
082000
082000
083F00
082080
1020C0
102040
102040
1020C0
202180
E03F00
ENDCHAR
STARTCHAR 040A
ENCODING 1034
SWIDTH 966 0
DWIDTH 20 0
BBX 17 15 2 0
BITMAP
804000
804000
804000
804000
804000
804000
804000
FFFE00
804100
804180
804080
804080
804180
804300
807E00
ENDCHAR
STARTCHAR 040B
ENCODING 1035
SWIDTH 724 0
DWIDTH 15 0
BBX 13 15 0 0
BITMAP
FFC0
0800
0800
0800
0800
0800
0FF0
0818
0808
0808
0808
0808
0808
0808
0808
ENDCHAR
STARTCHAR 040C
ENCODING 1036
SWIDTH 579 0
DWIDTH 12 0
BBX 10 19 2 0
BITMAP
0300
0600
0800
0000
8080
8100
8200
8400
8800
9000
A000
E000
B000
9800
8C00
8600
8300
8180
80C0
ENDCHAR
STARTCHAR 040D
ENCODING 1037
SWIDTH 724 0
DWIDTH 15 0
BBX 11 19 2 0
BITMAP
1800
0C00
0200
0000
8020
8060
80A0
80A0
8120
8220
8220
8420
8820
8820
9020
A020
A020
C020
8020
ENDCHAR
STARTCHAR 040E
ENCODING 1038
SWIDTH 579 0
DWIDTH 12 0
BBX 12 19 0 0
BITMAP
1080
1080
0F00
0000
C010
4020
6020
2040
3040
10C0
1880
0880
0500
0500
0200
0200
0400
0C00
7800
ENDCHAR
STARTCHAR 040F
ENCODING 1039
SWIDTH 724 0
DWIDTH 15 0
BBX 11 19 2 -4
BITMAP
8020
8020
8020
8020
8020
8020
8020
8020
8020
8020
8020
8020
8020
8020
FFE0
0400
0400
0400
0400
ENDCHAR
STARTCHAR 0410
ENCODING 1040
SWIDTH 628 0
DWIDTH 13 0
BBX 13 15 0 0
BITMAP
0200
0300
0500
0500
0C80
0880
08C0
1040
1040
3FE0
2020
6030
4010
4010
8008
ENDCHAR
STARTCHAR 0411
ENCODING 1041
SWIDTH 628 0
DWIDTH 13 0
BBX 10 15 2 0
BITMAP
FF80
8000
8000
8000
8000
8000
8000
FF00
8180
80C0
8040
8040
80C0
8180
FF00
ENDCHAR
STARTCHAR 0412
ENCODING 1042
SWIDTH 628 0
DWIDTH 13 0
BBX 10 15 2 0
BITMAP
FE00
8180
8080
8080
8080
8080
8100
FE00
8180
80C0
8040
8040
80C0
8180
FE00
ENDCHAR
STARTCHAR 0413
ENCODING 1043
SWIDTH 531 0
DWIDTH 11 0
BBX 9 15 2 0
BITMAP
FF80
8000
8000
8000
8000
8000
8000
8000
8000
8000
8000
8000
8000
8000
8000
ENDCHAR
STARTCHAR 0414
ENCODING 1044
SWIDTH 676 0
DWIDTH 14 0
BBX 13 19 0 -4
BITMAP
07F0
0410
0410
0410
0410
0810
0810
0810
0810
1010
1010
1010
2010
2010
FFF8
8008
8008
8008
8008
ENDCHAR
STARTCHAR 0415
ENCODING 1045
SWIDTH 579 0
DWIDTH 12 0
BBX 9 15 2 0
BITMAP
FF80
8000
8000
8000
8000
8000
8000
FF00
8000
8000
8000
8000
8000
8000
FF80
ENDCHAR
STARTCHAR 0416
ENCODING 1046
SWIDTH 773 0
DWIDTH 16 0
BBX 16 15 0 0
BITMAP
4182
2184
318C
1188
0990
05A0
03C0
03C0
07E0
0DB0
0990
1188
2184
6186
C183
ENDCHAR
STARTCHAR 0417
ENCODING 1047
SWIDTH 579 0
DWIDTH 12 0
BBX 10 15 1 0
BITMAP
3E00
C180
0080
0080
0080
0080
0100
3E00
0180
00C0
0040
0040
0080
8180
7E00
ENDCHAR
STARTCHAR 0418
ENCODING 1048
SWIDTH 724 0
DWIDTH 15 0
BBX 11 15 2 0
BITMAP
8020
8060
80A0
80A0
8120
8220
8220
8420
8820
8820
9020
A020
A020
C020
8020
ENDCHAR
STARTCHAR 0419
ENCODING 1049
SWIDTH 724 0
DWIDTH 15 0
BBX 11 19 2 0
BITMAP
1080
1080
0F00
0000
8020
8060
80A0
80A0
8120
8220
8220
8420
8820
8820
9020
A020
A020
C020
8020
ENDCHAR
STARTCHAR 041A
ENCODING 1050
SWIDTH 579 0
DWIDTH 12 0
BBX 10 15 2 0
BITMAP
8080
8100
8200
8400
8800
9000
A000
E000
B000
9800
8C00
8600
8300
8180
80C0
ENDCHAR
STARTCHAR 041B
ENCODING 1051
SWIDTH 676 0
DWIDTH 14 0
BBX 12 15 0 0
BITMAP
07F0
0410
0810
0810
0810
0810
0810
0810
0810
1010
1010
1010
1010
2010
E010
ENDCHAR
STARTCHAR 041C
ENCODING 1052
SWIDTH 869 0
DWIDTH 18 0
BBX 14 15 2 0
BITMAP
C00C
C00C
A014
A014
B014
9024
9024
8844
8844
8C44
8484
8484
8304
8304
8304
ENDCHAR
STARTCHAR 041D
ENCODING 1053
SWIDTH 724 0
DWIDTH 15 0
BBX 11 15 2 0
BITMAP
8020
8020
8020
8020
8020
8020
8020
FFE0
8020
8020
8020
8020
8020
8020
8020
ENDCHAR
STARTCHAR 041E
ENCODING 1054
SWIDTH 773 0
DWIDTH 16 0
BBX 14 15 1 0
BITMAP
0FC0
1820
2010
4008
4008
C00C
8004
8004
8004
C00C
4008
4008
2010
1020
0FC0
ENDCHAR
STARTCHAR 041F
ENCODING 1055
SWIDTH 724 0
DWIDTH 15 0
BBX 11 15 2 0
BITMAP
FFE0
8020
8020
8020
8020
8020
8020
8020
8020
8020
8020
8020
8020
8020
8020
ENDCHAR
STARTCHAR 0420
ENCODING 1056
SWIDTH 579 0
DWIDTH 12 0
BBX 9 15 2 0
BITMAP
FE00
8300
8180
8080
8080
8080
8100
8300
FC00
8000
8000
8000
8000
8000
8000
ENDCHAR
STARTCHAR 0421
ENCODING 1057
SWIDTH 628 0
DWIDTH 13 0
BBX 11 15 1 0
BITMAP
07E0
1820
2000
4000
4000
4000
8000
8000
8000
C000
4000
4000
2000
1800
0FE0
ENDCHAR
STARTCHAR 0422
ENCODING 1058
SWIDTH 531 0
DWIDTH 11 0
BBX 11 15 0 0
BITMAP
FFE0
0400
0400
0400
0400
0400
0400
0400
0400
0400
0400
0400
0400
0400
0400
ENDCHAR
STARTCHAR 0423
ENCODING 1059
SWIDTH 579 0
DWIDTH 12 0
BBX 12 15 0 0
BITMAP
C010
4020
6020
2040
3040
10C0
1880
0880
0500
0500
0200
0200
0400
0C00
7800
ENDCHAR
STARTCHAR 0424
ENCODING 1060
SWIDTH 773 0
DWIDTH 16 0
BBX 14 15 1 0
BITMAP
0300
0300
1FE0
2310
4308
C30C
8304
8304
8304
C30C
4308
2310
1FE0
0300
0300
ENDCHAR
STARTCHAR 0425
ENCODING 1061
SWIDTH 531 0
DWIDTH 11 0
BBX 11 15 0 0
BITMAP
4040
6040
2080
1100
1100
0A00
0E00
0400
0A00
1B00
1100
2080
2080
4040
8060
ENDCHAR
STARTCHAR 0426
ENCODING 1062
SWIDTH 724 0
DWIDTH 15 0
BBX 12 19 2 -4
BITMAP
8020
8020
8020
8020
8020
8020
8020
8020
8020
8020
8020
8020
8020
8020
FFF0
0010
0010
0010
0010
ENDCHAR
STARTCHAR 0427
ENCODING 1063
SWIDTH 676 0
DWIDTH 14 0
BBX 10 15 2 0
BITMAP
8040
8040
8040
8040
8040
8040
8040
8040
C1C0
3E40
0040
0040
0040
0040
0040
ENDCHAR
STARTCHAR 0428
ENCODING 1064
SWIDTH 1014 0
DWIDTH 21 0
BBX 17 15 2 0
BITMAP
808080
808080
808080
808080
808080
808080
808080
808080
808080
808080
808080
808080
808080
808080
FFFF80
ENDCHAR
STARTCHAR 0429
ENCODING 1065
SWIDTH 1014 0
DWIDTH 21 0
BBX 18 19 2 -4
BITMAP
808080
808080
808080
808080
808080
808080
808080
808080
808080
808080
808080
808080
808080
808080
FFFFC0
000040
000040
000040
000040
ENDCHAR
STARTCHAR 042A
ENCODING 1066
SWIDTH 676 0
DWIDTH 14 0
BBX 13 15 0 0
BITMAP
F800
0800
0800
0800
0800
0800
0800
0FE0
0810
0818
0808
0808
0818
0830
0FE0
ENDCHAR
STARTCHAR 042B
ENCODING 1067
SWIDTH 821 0
DWIDTH 17 0
BBX 13 15 2 0
BITMAP
8008
8008
8008
8008
8008
8008
8008
FE08
8108
8088
8088
8088
8088
8108
FE08
ENDCHAR
STARTCHAR 042C
ENCODING 1068
SWIDTH 628 0
DWIDTH 13 0
BBX 10 15 2 0
BITMAP
8000
8000
8000
8000
8000
8000
8000
FF00
8180
80C0
8040
8040
80C0
8180
FF00
ENDCHAR
STARTCHAR 042D
ENCODING 1069
SWIDTH 628 0
DWIDTH 13 0
BBX 11 15 1 0
BITMAP
7E00
8300
0080
0040
0040
0060
0060
3FE0
0020
0040
0040
0040
0080
0300
FC00
ENDCHAR
STARTCHAR 042E
ENCODING 1070
SWIDTH 1063 0
DWIDTH 22 0
BBX 19 15 2 0
BITMAP
807E00
80C100
810080
830040
820040
820040
820060
FE0020
820060
820040
820040
830040
810080
80C100
807E00
ENDCHAR
STARTCHAR 042F
ENCODING 1071
SWIDTH 579 0
DWIDTH 12 0
BBX 9 15 1 0
BITMAP
1F80
6080
4080
8080
8080
8080
4080
6080
1F80
1080
2080
2080
4080
C080
8080
ENDCHAR
STARTCHAR 0430
ENCODING 1072
SWIDTH 531 0
DWIDTH 11 0
BBX 8 12 1 0
BITMAP
3E
43
01
01
01
3F
41
81
81
81
C3
7D
ENDCHAR
STARTCHAR 0431
ENCODING 1073
SWIDTH 579 0
DWIDTH 12 0
BBX 10 16 1 0
BITMAP
0180
1E00
2000
4000
4000
4000
9F00
A180
C080
8040
8040
8040
4040
4080
2180
1E00
ENDCHAR
STARTCHAR 0432
ENCODING 1074
SWIDTH 579 0
DWIDTH 12 0
BBX 9 12 2 0
BITMAP
FE00
8100
8180
8100
8100
FE00
8100
8080
8080
8080
8100
FE00
ENDCHAR
STARTCHAR 0433
ENCODING 1075
SWIDTH 434 0
DWIDTH 9 0
BBX 7 12 2 0
BITMAP
FE
80
80
80
80
80
80
80
80
80
80
80
ENDCHAR
STARTCHAR 0434
ENCODING 1076
SWIDTH 531 0
DWIDTH 11 0
BBX 11 16 0 -4
BITMAP
0F80
0880
0880
0880
0880
1080
1080
1080
2080
2080
6080
FFE0
8060
8060
8060
8060
ENDCHAR
STARTCHAR 0435
ENCODING 1077
SWIDTH 579 0
DWIDTH 12 0
BBX 10 12 1 0
BITMAP
1E00
2180
4080
40C0
8040
FFC0
8000
8000
4000
4000
2000
1F80
ENDCHAR
STARTCHAR 0436
ENCODING 1078
SWIDTH 676 0
DWIDTH 14 0
BBX 14 12 0 0
BITMAP
4308
2310
3320
1B60
0B40
0780
0780
0B40
1320
2310
6318
C30C
ENDCHAR
STARTCHAR 0437
ENCODING 1079
SWIDTH 483 0
DWIDTH 10 0
BBX 8 12 1 0
BITMAP
7C
82
02
02
02
3C
02
01
01
01
02
FC
ENDCHAR
STARTCHAR 0438
ENCODING 1080
SWIDTH 628 0
DWIDTH 13 0
BBX 9 12 2 0
BITMAP
8180
8180
8280
8280
8480
8880
8880
9080
A080
A080
C080
C080
ENDCHAR
STARTCHAR 0439
ENCODING 1081
SWIDTH 628 0
DWIDTH 13 0
BBX 9 17 2 0
BITMAP
4200
4200
3C00
0000
0000
8180
8180
8280
8280
8480
8880
8880
9080
A080
A080
C080
C080
ENDCHAR
STARTCHAR 043A
ENCODING 1082
SWIDTH 483 0
DWIDTH 10 0
BBX 7 12 2 0
BITMAP
82
84
88
90
A0
E0
A0
B0
98
8C
86
82
ENDCHAR
STARTCHAR 043B
ENCODING 1083
SWIDTH 531 0
DWIDTH 11 0
BBX 9 12 0 0
BITMAP
0F80
1080
1080
1080
1080
1080
1080
1080
1080
2080
2080
C080
ENDCHAR
STARTCHAR 043C
ENCODING 1084
SWIDTH 676 0
DWIDTH 14 0
BBX 10 12 2 0
BITMAP
8040
C0C0
C0C0
C140
A140
A140
9240
9240
9240
8C40
8C40
8C40
ENDCHAR
STARTCHAR 043D
ENCODING 1085
SWIDTH 628 0
DWIDTH 13 0
BBX 9 12 2 0
BITMAP
8080
8080
8080
8080
8080
FF80
8080
8080
8080
8080
8080
8080
ENDCHAR
STARTCHAR 043E
ENCODING 1086
SWIDTH 579 0
DWIDTH 12 0
BBX 10 12 1 0
BITMAP
1E00
2100
4080
4080
8040
8040
8040
8040
4080
4080
2100
1E00
ENDCHAR
STARTCHAR 043F
ENCODING 1087
SWIDTH 628 0
DWIDTH 13 0
BBX 9 12 2 0
BITMAP
FF80
8080
8080
8080
8080
8080
8080
8080
8080
8080
8080
8080
ENDCHAR
STARTCHAR 0440
ENCODING 1088
SWIDTH 628 0
DWIDTH 13 0
BBX 10 17 2 -5
BITMAP
9E00
E100
C080
8080
8040
8040
8040
8040
8080
C080
E100
9E00
8000
8000
8000
8000
8000
ENDCHAR
STARTCHAR 0441
ENCODING 1089
SWIDTH 483 0
DWIDTH 10 0
BBX 8 12 1 0
BITMAP
1F
20
40
40
80
80
80
80
40
40
20
1F
ENDCHAR
STARTCHAR 0442
ENCODING 1090
SWIDTH 434 0
DWIDTH 9 0
BBX 9 12 0 0
BITMAP
FF80
0800
0800
0800
0800
0800
0800
0800
0800
0800
0800
0800
ENDCHAR
STARTCHAR 0443
ENCODING 1091
SWIDTH 483 0
DWIDTH 10 0
BBX 10 17 0 -5
BITMAP
8040
4080
4080
4080
2100
2100
2100
1200
1200
0C00
0C00
0C00
0800
0800
1000
1000
E000
ENDCHAR
STARTCHAR 0444
ENCODING 1092
SWIDTH 676 0
DWIDTH 14 0
BBX 12 21 1 -5
BITMAP
0200
0200
0200
0200
1F80
22C0
4220
4220
8210
8210
8210
8210
4220
4220
22C0
1F80
0200
0200
0200
0200
0200
ENDCHAR
STARTCHAR 0445
ENCODING 1093
SWIDTH 483 0
DWIDTH 10 0
BBX 8 12 1 0
BITMAP
81
42
42
24
18
18
18
24
24
42
C3
81
ENDCHAR
STARTCHAR 0446
ENCODING 1094
SWIDTH 628 0
DWIDTH 13 0
BBX 10 16 2 -4
BITMAP
8080
8080
8080
8080
8080
8080
8080
8080
8080
8080
8080
FFC0
0040
0040
0040
0040
ENDCHAR
STARTCHAR 0447
ENCODING 1095
SWIDTH 579 0
DWIDTH 12 0
BBX 8 12 2 0
BITMAP
81
81
81
81
81
81
83
7D
01
01
01
01
ENDCHAR
STARTCHAR 0448
ENCODING 1096
SWIDTH 869 0
DWIDTH 18 0
BBX 14 12 2 0
BITMAP
8304
8304
8304
8304
8304
8304
8304
8304
8304
8304
8304
FFFC
ENDCHAR
STARTCHAR 0449
ENCODING 1097
SWIDTH 869 0
DWIDTH 18 0
BBX 16 16 2 -4
BITMAP
8204
8204
8204
8204
8204
8204
8204
8204
8204
8204
8204
FFFF
0002
0002
0002
0002
ENDCHAR
STARTCHAR 044A
ENCODING 1098
SWIDTH 676 0
DWIDTH 14 0
BBX 13 12 0 0
BITMAP
F800
0800
0800
0800
0800
0FE0
0810
0808
0808
0818
0810
0FE0
ENDCHAR
STARTCHAR 044B
ENCODING 1099
SWIDTH 724 0
DWIDTH 15 0
BBX 11 12 2 0
BITMAP
8020
8020
8020
8020
8020
FE20
8320
8120
8120
8120
8320
FC20
ENDCHAR
STARTCHAR 044C
ENCODING 1100
SWIDTH 579 0
DWIDTH 12 0
BBX 9 12 2 0
BITMAP
8000
8000
8000
8000
8000
FE00
8100
8080
8080
8080
8100
FE00
ENDCHAR
STARTCHAR 044D
ENCODING 1101
SWIDTH 483 0
DWIDTH 10 0
BBX 8 12 1 0
BITMAP
F8
04
02
03
01
7F
01
01
02
02
04
F8
ENDCHAR
STARTCHAR 044E
ENCODING 1102
SWIDTH 821 0
DWIDTH 17 0
BBX 14 12 2 0
BITMAP
81E0
8210
8408
8408
8404
FC04
8404
8404
8408
8408
8210
81E0
ENDCHAR
STARTCHAR 044F
ENCODING 1103
SWIDTH 531 0
DWIDTH 11 0
BBX 8 12 1 0
BITMAP
7F
C1
81
81
81
C1
3F
21
21
41
C1
81
ENDCHAR
STARTCHAR 0450
ENCODING 1104
SWIDTH 579 0
DWIDTH 12 0
BBX 10 17 1 0
BITMAP
3000
1800
0400
0000
0000
1E00
2180
4080
40C0
8040
FFC0
8000
8000
4000
4000
2000
1F80
ENDCHAR
STARTCHAR 0451
ENCODING 1105
SWIDTH 579 0
DWIDTH 12 0
BBX 10 16 1 0
BITMAP
3300
3300
0000
0000
1E00
2180
4080
40C0
8040
FFC0
8000
8000
4000
4000
2000
1F80
ENDCHAR
STARTCHAR 0452
ENCODING 1106
SWIDTH 579 0
DWIDTH 12 0
BBX 10 21 0 -5
BITMAP
2000
2000
FE00
2000
2F80
30C0
2040
2040
2040
2040
2040
2040
2040
2040
2040
2040
0040
0040
0040
0040
0380
ENDCHAR
STARTCHAR 0453
ENCODING 1107
SWIDTH 434 0
DWIDTH 9 0
BBX 7 17 2 0
BITMAP
0C
18
20
00
00
FE
80
80
80
80
80
80
80
80
80
80
80
ENDCHAR
STARTCHAR 0454
ENCODING 1108
SWIDTH 483 0
DWIDTH 10 0
BBX 8 12 1 0
BITMAP
1F
20
40
40
80
FF
80
80
40
40
20
1F
ENDCHAR
STARTCHAR 0455
ENCODING 1109
SWIDTH 483 0
DWIDTH 10 0
BBX 8 12 1 0
BITMAP
3E
40
80
80
40
38
0E
03
01
01
82
FC
ENDCHAR
STARTCHAR 0456
ENCODING 1110
SWIDTH 241 0
DWIDTH 5 0
BBX 1 15 2 0
BITMAP
80
80
00
80
80
80
80
80
80
80
80
80
80
80
80
ENDCHAR
STARTCHAR 0457
ENCODING 1111
SWIDTH 241 0
DWIDTH 5 0
BBX 6 16 -1 0
BITMAP
CC
CC
00
00
10
10
10
10
10
10
10
10
10
10
10
10
ENDCHAR
STARTCHAR 0458
ENCODING 1112
SWIDTH 241 0
DWIDTH 5 0
BBX 4 20 -1 -5
BITMAP
10
10
00
10
10
10
10
10
10
10
10
10
10
10
10
10
10
10
10
E0
ENDCHAR
STARTCHAR 0459
ENCODING 1113
SWIDTH 821 0
DWIDTH 17 0
BBX 16 12 0 0
BITMAP
0F80
0880
0880
1080
1080
10FC
1082
1081
1081
2081
2082
C0FC
ENDCHAR
STARTCHAR 045A
ENCODING 1114
SWIDTH 869 0
DWIDTH 18 0
BBX 15 12 2 0
BITMAP
8100
8100
8100
8100
8100
FFF8
8104
8102
8102
8102
8104
81F8
ENDCHAR
STARTCHAR 045B
ENCODING 1115
SWIDTH 579 0
DWIDTH 12 0
BBX 10 16 0 0
BITMAP
2000
2000
FE00
2000
2F80
30C0
2040
2040
2040
2040
2040
2040
2040
2040
2040
2040
ENDCHAR
STARTCHAR 045C
ENCODING 1116
SWIDTH 483 0
DWIDTH 10 0
BBX 7 17 2 0
BITMAP
0C
18
20
00
00
82
84
88
90
A0
E0
A0
B0
98
8C
86
82
ENDCHAR
STARTCHAR 045D
ENCODING 1117
SWIDTH 628 0
DWIDTH 13 0
BBX 9 17 2 0
BITMAP
6000
3000
0800
0000
0000
8180
8180
8280
8280
8480
8880
8880
9080
A080
A080
C080
C080
ENDCHAR
STARTCHAR 045E
ENCODING 1118
SWIDTH 483 0
DWIDTH 10 0
BBX 10 22 0 -5
BITMAP
2100
2100
1E00
0000
0000
8040
4080
4080
4080
2100
2100
2100
1200
1200
0C00
0C00
0C00
0800
0800
1000
1000
E000
ENDCHAR
STARTCHAR 045F
ENCODING 1119
SWIDTH 628 0
DWIDTH 13 0
BBX 9 16 2 -4
BITMAP
8080
8080
8080
8080
8080
8080
8080
8080
8080
8080
8080
FF80
0800
0800
0800
0800
ENDCHAR
STARTCHAR 0460
ENCODING 1120
SWIDTH 966 0
DWIDTH 20 0
BBX 18 15 1 0
BITMAP
1E1E00
200100
400080
400080
400080
C000C0
800040
800040
80C040
C0C0C0
40C080
40C080
60C180
30C300
1F3E00
ENDCHAR
STARTCHAR 0461
ENCODING 1121
SWIDTH 773 0
DWIDTH 16 0
BBX 15 12 0 0
BITMAP
8202
4202
4102
4102
2102
2182
2184
1284
1248
1448
0C50
0820
ENDCHAR
STARTCHAR 0462
ENCODING 1122
SWIDTH 676 0
DWIDTH 14 0
BBX 13 16 0 0
BITMAP
0800
0800
0800
FFC0
0800
0800
0800
0800
0FE0
0830
0818
0808
0808
0818
0830
0FE0
ENDCHAR
STARTCHAR 0463
ENCODING 1123
SWIDTH 628 0
DWIDTH 13 0
BBX 12 14 0 0
BITMAP
1000
1000
FF00
1000
1000
1000
1000
1FC0
1020
1010
1010
1030
1020
1FC0
ENDCHAR
STARTCHAR 0464
ENCODING 1124
SWIDTH 918 0
DWIDTH 19 0
BBX 16 15 2 0
BITMAP
803F
80C1
8100
8300
8200
8200
8600
FFFC
8400
8600
8200
8200
8100
80C0
807F
ENDCHAR
STARTCHAR 0465
ENCODING 1125
SWIDTH 724 0
DWIDTH 15 0
BBX 12 12 2 0
BITMAP
81F0
8200
8400
8400
8C00
FFE0
8800
8400
8400
8400
8200
81F0
ENDCHAR
STARTCHAR 0466
ENCODING 1126
SWIDTH 628 0
DWIDTH 13 0
BBX 13 15 0 0
BITMAP
0200
0200
0500
0500
0C80
0880
08C0
1FC0
1240
2220
2220
6230
4210
4210
8208
ENDCHAR
STARTCHAR 0467
ENCODING 1127
SWIDTH 483 0
DWIDTH 10 0
BBX 10 12 0 0
BITMAP
0C00
0C00
0C00
1200
1200
3300
3F00
2500
4480
4480
4480
8440
ENDCHAR
STARTCHAR 0468
ENCODING 1128
SWIDTH 869 0
DWIDTH 18 0
BBX 16 15 2 0
BITMAP
8040
8040
80A0
80A0
81B0
8110
8110
FFF8
8248
844C
8444
8C46
8842
8842
9041
ENDCHAR
STARTCHAR 0469
ENCODING 1129
SWIDTH 676 0
DWIDTH 14 0
BBX 12 12 2 0
BITMAP
8300
8300
8300
8480
8480
8480
FFC0
8A40
9260
9220
B220
A210
ENDCHAR
STARTCHAR 046A
ENCODING 1130
SWIDTH 724 0
DWIDTH 15 0
BBX 15 15 0 0
BITMAP
3FF8
2008
1010
0820
0C60
0440
0280
0FE0
1110
2108
2108
610C
4104
4104
C102
ENDCHAR
STARTCHAR 046B
ENCODING 1131
SWIDTH 628 0
DWIDTH 13 0
BBX 13 12 0 0
BITMAP
3FE0
2020
1040
0880
0500
1FC0
3260
2220
4210
4210
4210
8208
ENDCHAR
STARTCHAR 046C
ENCODING 1132
SWIDTH 966 0
DWIDTH 20 0
BBX 18 15 2 0
BITMAP
87FF00
860100
820200
810400
808C00
80C800
805000
FFFC00
822200
842100
842100
842080
882080
882080
882040
ENDCHAR
STARTCHAR 046D
ENCODING 1133
SWIDTH 821 0
DWIDTH 17 0
BBX 15 12 2 0
BITMAP
8FF8
8808
8410
8220
8140
FFF0
8888
8888
9084
9084
9084
A082
ENDCHAR
STARTCHAR 046E
ENCODING 1134
SWIDTH 579 0
DWIDTH 12 0
BBX 10 22 1 -4
BITMAP
2300
1600
0C00
3E00
C180
0080
0080
0080
0080
0100
3E00
0180
00C0
0040
0040
00C0
0180
7E00
C000
8000
8000
7F80
ENDCHAR
STARTCHAR 046F
ENCODING 1135
SWIDTH 483 0
DWIDTH 10 0
BBX 9 17 0 -3
BITMAP
2380
1C00
3E00
4100
0100
0100
0100
1E00
0100
0080
0080
0180
0F00
7000
C000
C000
7F80
ENDCHAR
STARTCHAR 0470
ENCODING 1136
SWIDTH 773 0
DWIDTH 16 0
BBX 14 15 1 0
BITMAP
820C
820C
820C
820C
820C
820C
C208
4208
2210
1FE0
0200
0200
0200
0200
0200
ENDCHAR
STARTCHAR 0471
ENCODING 1137
SWIDTH 724 0
DWIDTH 15 0
BBX 12 21 2 -5
BITMAP
0400
0400
0400
0400
8420
8420
8420
8410
8410
8410
8410
8420
8420
C460
64C0
1F00
0400
0400
0400
0400
0400
ENDCHAR
STARTCHAR 0472
ENCODING 1138
SWIDTH 773 0
DWIDTH 16 0
BBX 14 15 1 0
BITMAP
0FC0
1820
2010
4008
4008
C00C
C00C
FFFC
8004
C00C
4008
4008
2010
1020
0FC0
ENDCHAR
STARTCHAR 0473
ENCODING 1139
SWIDTH 579 0
DWIDTH 12 0
BBX 10 12 1 0
BITMAP
1E00
2100
4080
4080
8040
FFC0
8040
8040
4080
4080
2100
1E00
ENDCHAR
STARTCHAR 0474
ENCODING 1140
SWIDTH 579 0
DWIDTH 12 0
BBX 13 15 0 0
BITMAP
8018
4020
4040
4040
2040
2080
2080
1080
1100
1100
0900
0A00
0A00
0600
0400
ENDCHAR
STARTCHAR 0475
ENCODING 1141
SWIDTH 483 0
DWIDTH 10 0
BBX 11 12 0 0
BITMAP
8060
4080
4080
4100
2100
2100
2200
1200
1200
1400
0C00
0C00
ENDCHAR
STARTCHAR 0476
ENCODING 1142
SWIDTH 579 0
DWIDTH 12 0
BBX 13 19 0 0
BITMAP
2600
1200
0900
0000
8018
4020
4040
4040
2040
2080
2080
1080
1100
1100
0900
0A00
0A00
0600
0400
ENDCHAR
STARTCHAR 0477
ENCODING 1143
SWIDTH 483 0
DWIDTH 10 0
BBX 11 17 0 0
BITMAP
4C00
2400
1200
0000
0000
8060
4080
4080
4100
2100
2100
2200
1200
1200
1400
0C00
0C00
ENDCHAR
STARTCHAR 0478
ENCODING 1144
SWIDTH 1159 0
DWIDTH 24 0
BBX 23 20 1 -5
BITMAP
0F8000
304000
202000
403202
401204
C01204
C01104
801108
C01108
C01088
401090
403090
202050
304060
0F8020
000040
000040
000040
000080
000700
ENDCHAR
STARTCHAR 0479
ENCODING 1145
SWIDTH 1014 0
DWIDTH 21 0
BBX 21 17 1 -5
BITMAP
1E1008
210810
408810
408810
804420
804420
804420
804240
408240
408180
210180
1E0180
000100
000100
000200
000200
001C00
ENDCHAR
STARTCHAR 047A
ENCODING 1146
SWIDTH 821 0
DWIDTH 17 0
BBX 15 17 1 -1
BITMAP
0100
0FE0
1930
2008
4004
4004
4004
C006
8002
C006
4004
4004
4004
2008
1930
0FE0
0100
ENDCHAR
STARTCHAR 047B
ENCODING 1147
SWIDTH 628 0
DWIDTH 13 0
BBX 11 14 1 -1
BITMAP
0400
1F00
2480
4040
4040
8020
8020
8020
8020
4040
4040
2480
1F00
0400
ENDCHAR
STARTCHAR 047C
ENCODING 1148
SWIDTH 966 0
DWIDTH 20 0
BBX 18 21 1 0
BITMAP
03C000
023800
004000
004000
008000
000000
1E1E00
200100
400080
400080
400080
C000C0
800040
800040
800040
C000C0
400080
400080
600180
30C300
1F3E00
ENDCHAR
STARTCHAR 047D
ENCODING 1149
SWIDTH 773 0
DWIDTH 16 0
BBX 14 19 1 0
BITMAP
0F00
08E0
0300
0100
0100
0200
0000
3CF0
6008
4008
C00C
8004
8004
8004
8004
C00C
4008
6018
1FE0
ENDCHAR
STARTCHAR 047E
ENCODING 1150
SWIDTH 966 0
DWIDTH 20 0
BBX 18 18 1 0
BITMAP
07F800
048800
000000
1E1E00
200100
400080
400080
400080
C000C0
800040
800040
80C040
C0C0C0
40C080
40C080
60C180
30C300
1F3E00
ENDCHAR
STARTCHAR 047F
ENCODING 1151
SWIDTH 773 0
DWIDTH 16 0
BBX 15 16 0 0
BITMAP
0FF0
0910
0000
0000
8202
4202
4102
4102
2102
2182
2184
1284
1248
1448
0C50
0820
ENDCHAR
STARTCHAR 0480
ENCODING 1152
SWIDTH 628 0
DWIDTH 13 0
BBX 11 20 1 -5
BITMAP
07E0
1820
2000
4000
4000
4000
8000
8000
8000
C000
4000
4000
2000
1800
0F80
0080
0080
0080
0080
0080
ENDCHAR
STARTCHAR 0481
ENCODING 1153
SWIDTH 483 0
DWIDTH 10 0
BBX 8 17 1 -5
BITMAP
1F
20
40
40
80
80
80
80
40
40
20
1E
02
02
02
02
02
ENDCHAR
STARTCHAR 0482
ENCODING 1154
SWIDTH 628 0
DWIDTH 13 0
BBX 9 13 2 0
BITMAP
0080
0100
3200
0E00
0700
0480
0800
9000
7000
3800
2600
4000
8000
ENDCHAR
STARTCHAR 0483
ENCODING 1155
SWIDTH 579 0
DWIDTH 12 0
BBX 8 3 2 12
BITMAP
03
FF
C0
ENDCHAR
STARTCHAR 0484
ENCODING 1156
SWIDTH 579 0
DWIDTH 12 0
BBX 7 2 3 13
BITMAP
3C
C2
ENDCHAR
STARTCHAR 0485
ENCODING 1157
SWIDTH 579 0
DWIDTH 12 0
BBX 2 4 5 13
BITMAP
C0
80
80
40
ENDCHAR
STARTCHAR 0486
ENCODING 1158
SWIDTH 579 0
DWIDTH 12 0
BBX 2 4 5 13
BITMAP
C0
40
40
80
ENDCHAR
STARTCHAR 0488
ENCODING 1160
SWIDTH 1014 0
DWIDTH 21 0
BBX 21 18 0 -3
BITMAP
007000
008800
000000
1C01C0
220220
000000
000000
000000
700070
880088
000000
000000
000000
1C01C0
220220
000000
007000
008800
ENDCHAR
STARTCHAR 0489
ENCODING 1161
SWIDTH 966 0
DWIDTH 20 0
BBX 20 19 0 -4
BITMAP
002000
002000
106000
084080
0C0300
040200
000000
000000
C00000
3000C0
000030
000000
000000
000200
040100
0C2100
106080
004000
004000
ENDCHAR
STARTCHAR 048A
ENCODING 1162
SWIDTH 724 0
DWIDTH 15 0
BBX 12 23 2 -4
BITMAP
2080
1100
1E00
0000
8020
8060
80A0
80A0
8120
8220
8220
8420
8820
8820
9020
A020
A020
C020
8030
0010
0020
0020
0020
ENDCHAR
STARTCHAR 048B
ENCODING 1163
SWIDTH 628 0
DWIDTH 13 0
BBX 10 21 2 -4
BITMAP
4100
2200
3E00
0000
0000
8180
8180
8280
8280
8480
8880
8880
9080
A080
A080
C080
C0C0
0040
0040
0080
0080
ENDCHAR
STARTCHAR 048C
ENCODING 1164
SWIDTH 628 0
DWIDTH 13 0
BBX 11 15 1 0
BITMAP
4000
4000
FE00
4000
4000
4000
4000
7F80
40C0
4060
4020
4020
4060
40C0
7F80
ENDCHAR
STARTCHAR 048D
ENCODING 1165
SWIDTH 579 0
DWIDTH 12 0
BBX 11 16 0 0
BITMAP
2000
2000
2000
FE00
2000
2000
2000
2000
2000
3F80
2040
2020
2020
2020
2040
3F80
ENDCHAR
STARTCHAR 048E
ENCODING 1166
SWIDTH 579 0
DWIDTH 12 0
BBX 9 15 2 0
BITMAP
FE00
8300
8180
8080
8080
8080
8D00
8700
FE00
8100
8000
8000
8000
8000
8000
ENDCHAR
STARTCHAR 048F
ENCODING 1167
SWIDTH 628 0
DWIDTH 13 0
BBX 10 17 2 -5
BITMAP
9E00
E100
C080
8080
8040
8040
8040
8040
8080
C280
E300
9F00
8080
8000
8000
8000
8000
ENDCHAR
STARTCHAR 0490
ENCODING 1168
SWIDTH 531 0
DWIDTH 11 0
BBX 9 18 2 0
BITMAP
0080
0080
0080
FF80
8000
8000
8000
8000
8000
8000
8000
8000
8000
8000
8000
8000
8000
8000
ENDCHAR
STARTCHAR 0491
ENCODING 1169
SWIDTH 434 0
DWIDTH 9 0
BBX 7 15 2 0
BITMAP
02
02
02
FE
80
80
80
80
80
80
80
80
80
80
80
ENDCHAR
STARTCHAR 0492
ENCODING 1170
SWIDTH 531 0
DWIDTH 11 0
BBX 10 15 1 0
BITMAP
7FC0
4000
4000
4000
4000
4000
4000
FE00
4000
4000
4000
4000
4000
4000
4000
ENDCHAR
STARTCHAR 0493
ENCODING 1171
SWIDTH 434 0
DWIDTH 9 0
BBX 9 12 0 0
BITMAP
3F80
2000
2000
2000
2000
FE00
2000
2000
2000
2000
2000
2000
ENDCHAR
STARTCHAR 0494
ENCODING 1172
SWIDTH 628 0
DWIDTH 13 0
BBX 10 20 2 -5
BITMAP
FF00
8000
8000
8000
8000
8000
8000
FC00
8300
8180
8080
8040
8040
8040
8040
0040
0080
0080
0100
3E00
ENDCHAR
STARTCHAR 0495
ENCODING 1173
SWIDTH 531 0
DWIDTH 11 0
BBX 8 17 2 -5
BITMAP
FE
80
80
80
80
FC
86
83
81
81
81
81
01
01
01
02
3C
ENDCHAR
STARTCHAR 0496
ENCODING 1174
SWIDTH 821 0
DWIDTH 17 0
BBX 17 19 0 -4
BITMAP
408300
208200
308400
188800
089000
04B000
02E000
03C000
02A000
049000
089800
108C00
208400
608200
C08180
000080
000080
000080
000080
ENDCHAR
STARTCHAR 0497
ENCODING 1175
SWIDTH 676 0
DWIDTH 14 0
BBX 14 16 0 -4
BITMAP
4218
2210
3220
1240
0AC0
0780
0680
0A40
1260
2220
6210
C20C
0004
0004
0004
0004
ENDCHAR
STARTCHAR 0498
ENCODING 1176
SWIDTH 579 0
DWIDTH 12 0
BBX 10 20 1 -5
BITMAP
3E00
C180
0080
0080
0080
0080
0100
3E00
0180
00C0
0040
0040
0080
8180
7E00
1000
0800
0800
0800
1800
ENDCHAR
STARTCHAR 0499
ENCODING 1177
SWIDTH 483 0
DWIDTH 10 0
BBX 8 17 1 -5
BITMAP
7C
82
02
02
02
3C
02
01
01
01
02
FC
20
10
10
10
30
ENDCHAR
STARTCHAR 049A
ENCODING 1178
SWIDTH 628 0
DWIDTH 13 0
BBX 11 19 2 -4
BITMAP
8080
8100
8300
8600
8C00
9800
B000
F800
C800
8400
8200
8300
8100
8080
80E0
0020
0020
0020
0020
ENDCHAR
STARTCHAR 049B
ENCODING 1179
SWIDTH 483 0
DWIDTH 10 0
BBX 8 16 2 -4
BITMAP
86
84
88
90
A0
C0
E0
B0
90
88
84
83
01
01
01
01
ENDCHAR
STARTCHAR 049C
ENCODING 1180
SWIDTH 579 0
DWIDTH 12 0
BBX 10 15 2 0
BITMAP
8080
8100
9200
9600
9C00
9800
B000
F800
D800
9400
9200
9200
8100
8080
80C0
ENDCHAR
STARTCHAR 049D
ENCODING 1181
SWIDTH 483 0
DWIDTH 10 0
BBX 7 12 2 0
BITMAP
82
A4
A8
B0
A0
E0
E0
B0
B8
AC
A6
82
ENDCHAR
STARTCHAR 049E
ENCODING 1182
SWIDTH 579 0
DWIDTH 12 0
BBX 11 15 1 0
BITMAP
4040
4080
F900
4300
4600
4C00
5800
7C00
6400
4200
4100
4100
4080
4040
4060
ENDCHAR
STARTCHAR 049F
ENCODING 1183
SWIDTH 483 0
DWIDTH 10 0
BBX 10 16 0 0
BITMAP
2000
2000
FE00
2000
2080
2100
2300
2200
2400
2C00
3400
2200
2300
2100
2080
20C0
ENDCHAR
STARTCHAR 04A0
ENCODING 1184
SWIDTH 676 0
DWIDTH 14 0
BBX 14 15 0 0
BITMAP
F808
0810
0820
0840
0880
0900
0B00
0D00
0880
0840
0860
0820
0810
0808
080C
ENDCHAR
STARTCHAR 04A1
ENCODING 1185
SWIDTH 531 0
DWIDTH 11 0
BBX 10 12 0 0
BITMAP
F840
0880
0980
0B00
0A00
0C00
0C00
0A00
0900
0880
08C0
0840
ENDCHAR
STARTCHAR 04A2
ENCODING 1186
SWIDTH 724 0
DWIDTH 15 0
BBX 12 19 2 -4
BITMAP
8020
8020
8020
8020
8020
8020
8020
FFE0
8020
8020
8020
8020
8020
8020
8030
0010
0010
0010
0010
ENDCHAR
STARTCHAR 04A3
ENCODING 1187
SWIDTH 628 0
DWIDTH 13 0
BBX 10 16 2 -4
BITMAP
8080
8080
8080
8080
8080
FF80
8080
8080
8080
8080
8080
80C0
0040
0040
0040
0040
ENDCHAR
STARTCHAR 04A4
ENCODING 1188
SWIDTH 773 0
DWIDTH 16 0
BBX 14 15 2 0
BITMAP
803C
8020
8020
8020
8020
8020
8020
FFE0
8020
8020
8020
8020
8020
8020
8020
ENDCHAR
STARTCHAR 04A5
ENCODING 1189
SWIDTH 724 0
DWIDTH 15 0
BBX 13 12 2 0
BITMAP
80F8
8080
8080
8080
8080
FF80
8080
8080
8080
8080
8080
8080
ENDCHAR
STARTCHAR 04A6
ENCODING 1190
SWIDTH 1063 0
DWIDTH 22 0
BBX 19 20 2 -5
BITMAP
FFC000
804000
804000
804000
804000
804000
804000
807E00
804180
8040C0
804040
804060
804020
804020
804020
000020
000040
000040
000080
001F00
ENDCHAR
STARTCHAR 04A7
ENCODING 1191
SWIDTH 869 0
DWIDTH 18 0
BBX 15 17 2 -5
BITMAP
FF00
8100
8100
8100
8100
81F8
810C
8106
8102
8102
8102
8102
0002
0002
0002
0004
0078
ENDCHAR
STARTCHAR 04A8
ENCODING 1192
SWIDTH 773 0
DWIDTH 16 0
BBX 14 16 1 -1
BITMAP
0F80
3000
2000
40F0
4188
C108
810C
8304
8304
C10C
4108
4108
2090
10E0
0FE0
001C
ENDCHAR
STARTCHAR 04A9
ENCODING 1193
SWIDTH 628 0
DWIDTH 13 0
BBX 11 13 1 -1
BITMAP
1C00
2000
43C0
4240
8420
8420
8420
8420
4640
4240
2180
1F80
0060
ENDCHAR
STARTCHAR 04AA
ENCODING 1194
SWIDTH 628 0
DWIDTH 13 0
BBX 11 20 1 -5
BITMAP
07E0
1820
2000
4000
4000
4000
8000
8000
8000
C000
4000
4000
2000
1800
0FE0
0200
0100
0100
0100
0300
ENDCHAR
STARTCHAR 04AB
ENCODING 1195
SWIDTH 483 0
DWIDTH 10 0
BBX 8 17 1 -5
BITMAP
1F
20
40
40
80
80
80
80
40
40
20
1F
08
04
04
04
0C
ENDCHAR
STARTCHAR 04AC
ENCODING 1196
SWIDTH 531 0
DWIDTH 11 0
BBX 11 19 0 -4
BITMAP
FFE0
0400
0400
0400
0400
0400
0400
0400
0400
0400
0400
0400
0400
0400
0600
0200
0200
0200
0200
ENDCHAR
STARTCHAR 04AD
ENCODING 1197
SWIDTH 434 0
DWIDTH 9 0
BBX 9 16 0 -4
BITMAP
FF80
0800
0800
0800
0800
0800
0800
0800
0800
0800
0800
0C00
0400
0400
0400
0400
ENDCHAR
STARTCHAR 04AE
ENCODING 1198
SWIDTH 531 0
DWIDTH 11 0
BBX 11 15 0 0
BITMAP
8020
4040
6040
2080
3180
1100
1B00
0A00
0400
0400
0400
0400
0400
0400
0400
ENDCHAR
STARTCHAR 04AF
ENCODING 1199
SWIDTH 483 0
DWIDTH 10 0
BBX 10 17 0 -5
BITMAP
8040
4080
4080
4080
2100
2100
2100
1200
1200
0C00
0C00
0C00
0800
0800
0800
0800
0800
ENDCHAR
STARTCHAR 04B0
ENCODING 1200
SWIDTH 531 0
DWIDTH 11 0
BBX 11 15 0 0
BITMAP
8020
4040
6040
2080
3180
1100
1B00
0A00
0400
0400
3F80
0400
0400
0400
0400
ENDCHAR
STARTCHAR 04B1
ENCODING 1201
SWIDTH 483 0
DWIDTH 10 0
BBX 10 17 0 -5
BITMAP
8040
4080
4080
4080
2100
2100
2100
1200
1200
0C00
0C00
0C00
7F80
0800
0800
0800
0800
ENDCHAR
STARTCHAR 04B2
ENCODING 1202
SWIDTH 579 0
DWIDTH 12 0
BBX 12 19 0 -4
BITMAP
4060
6040
2080
1080
1100
0A00
0600
0400
0A00
0900
1100
2080
2040
4040
8030
0010
0010
0010
0010
ENDCHAR
STARTCHAR 04B3
ENCODING 1203
SWIDTH 531 0
DWIDTH 11 0
BBX 10 16 1 -4
BITMAP
8180
4100
6200
2600
1400
1800
1C00
1400
2200
4300
4100
80C0
0040
0040
0040
0040
ENDCHAR
STARTCHAR 04B4
ENCODING 1204
SWIDTH 869 0
DWIDTH 18 0
BBX 17 19 0 -4
BITMAP
FFE100
040100
040100
040100
040100
040100
040100
040100
040100
040100
040100
040100
040100
040100
07FF80
000080
000080
000080
000080
ENDCHAR
STARTCHAR 04B5
ENCODING 1205
SWIDTH 676 0
DWIDTH 14 0
BBX 14 16 0 -4
BITMAP
FF90
0810
0810
0810
0810
0810
0810
0810
0810
0810
0810
0FFC
0004
0004
0004
0004
ENDCHAR
STARTCHAR 04B6
ENCODING 1206
SWIDTH 676 0
DWIDTH 14 0
BBX 11 19 2 -4
BITMAP
8040
8040
8040
8040
8040
8040
8040
8040
C1C0
3E40
0040
0040
0040
0040
0060
0020
0020
0020
0020
ENDCHAR
STARTCHAR 04B7
ENCODING 1207
SWIDTH 579 0
DWIDTH 12 0
BBX 9 16 2 -4
BITMAP
8100
8100
8100
8100
8100
8100
8300
7D00
0100
0100
0100
0180
0080
0080
0080
0080
ENDCHAR
STARTCHAR 04B8
ENCODING 1208
SWIDTH 676 0
DWIDTH 14 0
BBX 10 15 2 0
BITMAP
8040
8040
8040
8040
8040
8840
8840
8840
C9C0
3E40
0840
0840
0840
0840
0040
ENDCHAR
STARTCHAR 04B9
ENCODING 1209
SWIDTH 579 0
DWIDTH 12 0
BBX 8 12 2 0
BITMAP
81
81
81
81
91
91
93
7D
11
11
11
01
ENDCHAR
STARTCHAR 04BA
ENCODING 1210
SWIDTH 676 0
DWIDTH 14 0
BBX 10 15 2 0
BITMAP
8000
8000
8000
8000
8000
9F00
E0C0
8040
8040
8040
8040
8040
8040
8040
8040
ENDCHAR
STARTCHAR 04BB
ENCODING 1211
SWIDTH 579 0
DWIDTH 12 0
BBX 9 12 2 0
BITMAP
8000
8000
8000
8000
BE00
C100
8100
8080
8080
8080
8080
8080
ENDCHAR
STARTCHAR 04BC
ENCODING 1212
SWIDTH 821 0
DWIDTH 17 0
BBX 15 15 1 0
BITMAP
03F0
0418
080C
1004
1004
9006
B002
FFFE
3000
1000
1000
1000
0800
0604
03F8
ENDCHAR
STARTCHAR 04BD
ENCODING 1213
SWIDTH 628 0
DWIDTH 13 0
BBX 11 12 1 0
BITMAP
0780
18C0
1040
A020
A020
FFE0
2000
2000
2000
1000
1800
07C0
ENDCHAR
STARTCHAR 04BE
ENCODING 1214
SWIDTH 821 0
DWIDTH 17 0
BBX 15 19 1 -4
BITMAP
03F0
0418
080C
1004
1004
9006
B002
FFFE
3000
1000
1000
1000
0800
0604
03F8
0080
0080
0080
0080
ENDCHAR
STARTCHAR 04BF
ENCODING 1215
SWIDTH 628 0
DWIDTH 13 0
BBX 11 16 1 -4
BITMAP
0780
18C0
1040
A020
A020
FFE0
2000
2000
2000
1000
1800
07C0
0200
0200
0200
0200
ENDCHAR
STARTCHAR 04C0
ENCODING 1216
SWIDTH 241 0
DWIDTH 5 0
BBX 1 15 2 0
BITMAP
80
80
80
80
80
80
80
80
80
80
80
80
80
80
80
ENDCHAR
STARTCHAR 04C1
ENCODING 1217
SWIDTH 773 0
DWIDTH 16 0
BBX 16 20 0 0
BITMAP
0420
0420
03C0
0000
0000
4182
2184
318C
1188
0990
05A0
03C0
03C0
07E0
0DB0
0990
1188
2184
6186
C183
ENDCHAR
STARTCHAR 04C2
ENCODING 1218
SWIDTH 676 0
DWIDTH 14 0
BBX 14 17 0 0
BITMAP
0840
0840
0780
0000
0000
4308
2310
3320
1B60
0B40
0780
0780
0B40
1320
2310
6318
C30C
ENDCHAR
STARTCHAR 04C3
ENCODING 1219
SWIDTH 676 0
DWIDTH 14 0
BBX 11 20 2 -5
BITMAP
80C0
8180
8300
8600
8C00
9800
A000
FE00
8180
80C0
8040
8060
8020
8020
8020
0060
0040
0040
0080
1F00
ENDCHAR
STARTCHAR 04C4
ENCODING 1220
SWIDTH 531 0
DWIDTH 11 0
BBX 8 17 2 -5
BITMAP
82
84
88
90
A0
F8
86
83
81
81
81
81
01
01
01
02
3C
ENDCHAR
STARTCHAR 04C5
ENCODING 1221
SWIDTH 676 0
DWIDTH 14 0
BBX 13 19 0 -4
BITMAP
07F0
0410
0810
0810
0810
0810
0810
0810
0810
1010
1010
1010
1010
2010
E018
0008
0008
0010
0010
ENDCHAR
STARTCHAR 04C6
ENCODING 1222
SWIDTH 531 0
DWIDTH 11 0
BBX 11 16 0 -4
BITMAP
0F80
1080
1080
1080
1080
1080
1080
1080
1080
2080
2080
C0E0
0040
0040
0040
0080
ENDCHAR
STARTCHAR 04C7
ENCODING 1223
SWIDTH 724 0
DWIDTH 15 0
BBX 11 20 2 -5
BITMAP
8020
8020
8020
8020
8020
8020
8020
FFE0
8020
8020
8020
8020
8020
8020
8020
0020
0060
0040
00C0
1F00
ENDCHAR
STARTCHAR 04C8
ENCODING 1224
SWIDTH 628 0
DWIDTH 13 0
BBX 9 17 2 -5
BITMAP
8080
8080
8080
8080
8080
FF80
8080
8080
8080
8080
8080
8080
0080
0080
0080
0100
1E00
ENDCHAR
STARTCHAR 04C9
ENCODING 1225
SWIDTH 724 0
DWIDTH 15 0
BBX 12 19 2 -4
BITMAP
8020
8020
8020
8020
8020
8020
8020
FFE0
8020
8020
8020
8020
8020
8020
8030
0010
0010
0020
0020
ENDCHAR
STARTCHAR 04CA
ENCODING 1226
SWIDTH 628 0
DWIDTH 13 0
BBX 11 16 2 -4
BITMAP
8080
8080
8080
8080
8080
FF80
8080
8080
8080
8080
8080
80E0
0040
0040
00C0
0080
ENDCHAR
STARTCHAR 04CB
ENCODING 1227
SWIDTH 676 0
DWIDTH 14 0
BBX 10 19 2 -4
BITMAP
8040
8040
8040
8040
8040
8040
8040
8040
C1C0
3E40
0040
0040
0040
0040
00C0
0080
0080
0080
0080
ENDCHAR
STARTCHAR 04CC
ENCODING 1228
SWIDTH 579 0
DWIDTH 12 0
BBX 8 16 2 -4
BITMAP
81
81
81
81
81
81
83
7D
01
01
01
03
02
02
02
02
ENDCHAR
STARTCHAR 04CD
ENCODING 1229
SWIDTH 869 0
DWIDTH 18 0
BBX 15 19 2 -4
BITMAP
C00C
C00C
A014
A014
B014
9024
9024
8844
8844
8C44
8484
8484
8304
8304
8306
0002
0002
0004
0004
ENDCHAR
STARTCHAR 04CE
ENCODING 1230
SWIDTH 676 0
DWIDTH 14 0
BBX 12 16 2 -4
BITMAP
8040
C0C0
C0C0
C140
A140
A140
9240
9240
9240
8C40
8C40
8C70
0020
0020
0020
0040
ENDCHAR
STARTCHAR 04CF
ENCODING 1231
SWIDTH 241 0
DWIDTH 5 0
BBX 1 15 2 0
BITMAP
80
80
80
80
80
80
80
80
80
80
80
80
80
80
80
ENDCHAR
STARTCHAR 04D0
ENCODING 1232
SWIDTH 628 0
DWIDTH 13 0
BBX 13 19 0 0
BITMAP
1080
1080
0F00
0000
0200
0300
0500
0500
0C80
0880
08C0
1040
1040
3FE0
2020
6030
4010
4010
8008
ENDCHAR
STARTCHAR 04D1
ENCODING 1233
SWIDTH 531 0
DWIDTH 11 0
BBX 8 17 1 0
BITMAP
21
21
1E
00
00
3E
43
01
01
01
3F
41
81
81
81
C3
7D
ENDCHAR
STARTCHAR 04D2
ENCODING 1234
SWIDTH 628 0
DWIDTH 13 0
BBX 13 18 0 0
BITMAP
1980
1980
0000
0200
0300
0500
0500
0C80
0880
08C0
1040
1040
3FE0
2020
6030
4010
4010
8008
ENDCHAR
STARTCHAR 04D3
ENCODING 1235
SWIDTH 531 0
DWIDTH 11 0
BBX 8 16 1 0
BITMAP
66
66
00
00
3E
43
01
01
01
3F
41
81
81
81
C3
7D
ENDCHAR
STARTCHAR 04D4
ENCODING 1236
SWIDTH 821 0
DWIDTH 17 0
BBX 16 15 0 0
BITMAP
03FF
0280
0280
0480
0480
0880
0880
18FE
1080
3F80
2080
2080
4080
4080
80FF
ENDCHAR
STARTCHAR 04D5
ENCODING 1237
SWIDTH 869 0
DWIDTH 18 0
BBX 16 12 1 0
BITMAP
3E3C
43C6
0182
0181
0101
3FFF
4100
8100
8180
8180
C2C0
7C3E
ENDCHAR
STARTCHAR 04D6
ENCODING 1238
SWIDTH 579 0
DWIDTH 12 0
BBX 9 19 2 0
BITMAP
4200
4200
3C00
0000
FF80
8000
8000
8000
8000
8000
8000
FF00
8000
8000
8000
8000
8000
8000
FF80
ENDCHAR
STARTCHAR 04D7
ENCODING 1239
SWIDTH 579 0
DWIDTH 12 0
BBX 10 17 1 0
BITMAP
2100
2100
1E00
0000
0000
1E00
2180
4080
40C0
8040
FFC0
8000
8000
4000
4000
2000
1F80
ENDCHAR
STARTCHAR 04D8
ENCODING 1240
SWIDTH 724 0
DWIDTH 15 0
BBX 13 15 1 0
BITMAP
3F80
40C0
0020
0010
0010
0010
0018
FFF8
8018
C010
4010
4010
6020
3040
0F80
ENDCHAR
STARTCHAR 04D9
ENCODING 1241
SWIDTH 579 0
DWIDTH 12 0
BBX 10 12 1 0
BITMAP
7E00
0100
0080
0080
0040
0040
FFC0
8040
C080
4080
6100
1E00
ENDCHAR
STARTCHAR 04DA
ENCODING 1242
SWIDTH 724 0
DWIDTH 15 0
BBX 13 18 1 0
BITMAP
0CC0
0CC0
0000
3F80
40C0
0020
0010
0010
0010
0018
FFF8
8018
C010
4010
4010
6020
3040
0F80
ENDCHAR
STARTCHAR 04DB
ENCODING 1243
SWIDTH 579 0
DWIDTH 12 0
BBX 10 16 1 0
BITMAP
3300
3300
0000
0000
7E00
0100
0080
0080
0040
0040
FFC0
8040
C080
4080
6100
1E00
ENDCHAR
STARTCHAR 04DC
ENCODING 1244
SWIDTH 773 0
DWIDTH 16 0
BBX 16 18 0 0
BITMAP
0660
0660
0000
4182
2184
318C
1188
0990
05A0
03C0
03C0
07E0
0DB0
0990
1188
2184
6186
C183
ENDCHAR
STARTCHAR 04DD
ENCODING 1245
SWIDTH 676 0
DWIDTH 14 0
BBX 14 16 0 0
BITMAP
0CC0
0CC0
0000
0000
4308
2310
3320
1B60
0B40
0780
0780
0B40
1320
2310
6318
C30C
ENDCHAR
STARTCHAR 04DE
ENCODING 1246
SWIDTH 579 0
DWIDTH 12 0
BBX 10 18 1 0
BITMAP
3300
3300
0000
3E00
C180
0080
0080
0080
0080
0100
3E00
0180
00C0
0040
0040
0080
8180
7E00
ENDCHAR
STARTCHAR 04DF
ENCODING 1247
SWIDTH 483 0
DWIDTH 10 0
BBX 8 16 1 0
BITMAP
66
66
00
00
7C
82
02
02
02
3C
02
01
01
01
02
FC
ENDCHAR
STARTCHAR 04E0
ENCODING 1248
SWIDTH 579 0
DWIDTH 12 0
BBX 10 15 1 0
BITMAP
FF80
0080
0100
0200
0400
0800
1000
3E00
0180
00C0
0040
0040
00C0
8180
7E00
ENDCHAR
STARTCHAR 04E1
ENCODING 1249
SWIDTH 483 0
DWIDTH 10 0
BBX 9 17 0 -5
BITMAP
7F80
0100
0200
0400
0C00
1800
1000
3E00
0300
0080
0080
0080
0080
0080
0180
8300
7C00
ENDCHAR
STARTCHAR 04E2
ENCODING 1250
SWIDTH 724 0
DWIDTH 15 0
BBX 11 17 2 0
BITMAP
1F80
0000
8020
8060
80A0
80A0
8120
8220
8220
8420
8820
8820
9020
A020
A020
C020
8020
ENDCHAR
STARTCHAR 04E3
ENCODING 1251
SWIDTH 628 0
DWIDTH 13 0
BBX 9 15 2 0
BITMAP
7E00
0000
0000
8180
8180
8280
8280
8480
8880
8880
9080
A080
A080
C080
C080
ENDCHAR
STARTCHAR 04E4
ENCODING 1252
SWIDTH 724 0
DWIDTH 15 0
BBX 11 18 2 0
BITMAP
1980
1980
0000
8020
8060
80A0
80A0
8120
8220
8220
8420
8820
8820
9020
A020
A020
C020
8020
ENDCHAR
STARTCHAR 04E5
ENCODING 1253
SWIDTH 628 0
DWIDTH 13 0
BBX 9 16 2 0
BITMAP
6600
6600
0000
0000
8180
8180
8280
8280
8480
8880
8880
9080
A080
A080
C080
C080
ENDCHAR
STARTCHAR 04E6
ENCODING 1254
SWIDTH 773 0
DWIDTH 16 0
BBX 14 18 1 0
BITMAP
0CC0
0CC0
0000
0FC0
1820
2010
4008
4008
C00C
8004
8004
8004
C00C
4008
4008
2010
1020
0FC0
ENDCHAR
STARTCHAR 04E7
ENCODING 1255
SWIDTH 579 0
DWIDTH 12 0
BBX 10 16 1 0
BITMAP
3300
3300
0000
0000
1E00
2100
4080
4080
8040
8040
8040
8040
4080
4080
2100
1E00
ENDCHAR
STARTCHAR 04E8
ENCODING 1256
SWIDTH 773 0
DWIDTH 16 0
BBX 14 15 1 0
BITMAP
0FC0
1820
2010
4008
4008
C00C
C00C
FFFC
8004
C00C
4008
4008
2010
1020
0FC0
ENDCHAR
STARTCHAR 04E9
ENCODING 1257
SWIDTH 579 0
DWIDTH 12 0
BBX 10 12 1 0
BITMAP
1E00
2100
4080
4080
8040
FFC0
8040
8040
4080
4080
2100
1E00
ENDCHAR
STARTCHAR 04EA
ENCODING 1258
SWIDTH 773 0
DWIDTH 16 0
BBX 14 18 1 0
BITMAP
0CC0
0CC0
0000
0FC0
1820
2010
4008
4008
C00C
C00C
FFFC
8004
C00C
4008
4008
2010
1020
0FC0
ENDCHAR
STARTCHAR 04EB
ENCODING 1259
SWIDTH 579 0
DWIDTH 12 0
BBX 10 16 1 0
BITMAP
3300
3300
0000
0000
1E00
2100
4080
4080
8040
FFC0
8040
8040
4080
4080
2100
1E00
ENDCHAR
STARTCHAR 04EC
ENCODING 1260
SWIDTH 628 0
DWIDTH 13 0
BBX 11 18 1 0
BITMAP
3300
3300
0000
7E00
8300
0080
0040
0040
0060
0060
3FE0
0020
0040
0040
0040
0080
0300
FC00
ENDCHAR
STARTCHAR 04ED
ENCODING 1261
SWIDTH 483 0
DWIDTH 10 0
BBX 8 16 1 0
BITMAP
66
66
00
00
F8
04
02
03
01
7F
01
01
02
02
04
F8
ENDCHAR
STARTCHAR 04EE
ENCODING 1262
SWIDTH 579 0
DWIDTH 12 0
BBX 12 17 0 0
BITMAP
1F80
0000
C010
4020
6020
2040
3040
10C0
1880
0880
0500
0500
0200
0200
0400
0C00
7800
ENDCHAR
STARTCHAR 04EF
ENCODING 1263
SWIDTH 483 0
DWIDTH 10 0
BBX 10 20 0 -5
BITMAP
3F00
0000
0000
8040
4080
4080
4080
2100
2100
2100
1200
1200
0C00
0C00
0C00
0800
0800
1000
1000
E000
ENDCHAR
STARTCHAR 04F0
ENCODING 1264
SWIDTH 579 0
DWIDTH 12 0
BBX 12 18 0 0
BITMAP
1980
1980
0000
C010
4020
6020
2040
3040
10C0
1880
0880
0500
0500
0200
0200
0400
0C00
7800
ENDCHAR
STARTCHAR 04F1
ENCODING 1265
SWIDTH 483 0
DWIDTH 10 0
BBX 10 21 0 -5
BITMAP
3300
3300
0000
0000
8040
4080
4080
4080
2100
2100
2100
1200
1200
0C00
0C00
0C00
0800
0800
1000
1000
E000
ENDCHAR
STARTCHAR 04F2
ENCODING 1266
SWIDTH 579 0
DWIDTH 12 0
BBX 12 19 0 0
BITMAP
0640
0480
0900
0000
C010
4020
6020
2040
3040
10C0
1880
0880
0500
0500
0200
0200
0400
0C00
7800
ENDCHAR
STARTCHAR 04F3
ENCODING 1267
SWIDTH 483 0
DWIDTH 10 0
BBX 10 22 0 -5
BITMAP
0C80
0900
1200
0000
0000
8040
4080
4080
4080
2100
2100
2100
1200
1200
0C00
0C00
0C00
0800
0800
1000
1000
E000
ENDCHAR
STARTCHAR 04F4
ENCODING 1268
SWIDTH 676 0
DWIDTH 14 0
BBX 10 18 2 0
BITMAP
3300
3300
0000
8040
8040
8040
8040
8040
8040
8040
8040
C1C0
3E40
0040
0040
0040
0040
0040
ENDCHAR
STARTCHAR 04F5
ENCODING 1269
SWIDTH 579 0
DWIDTH 12 0
BBX 8 16 2 0
BITMAP
66
66
00
00
81
81
81
81
81
81
83
7D
01
01
01
01
ENDCHAR
STARTCHAR 04F6
ENCODING 1270
SWIDTH 531 0
DWIDTH 11 0
BBX 9 19 2 -4
BITMAP
FF80
8000
8000
8000
8000
8000
8000
8000
8000
8000
8000
8000
8000
8000
C000
4000
4000
4000
4000
ENDCHAR
STARTCHAR 04F7
ENCODING 1271
SWIDTH 434 0
DWIDTH 9 0
BBX 7 16 2 -4
BITMAP
FE
80
80
80
80
80
80
80
80
80
80
C0
40
40
40
40
ENDCHAR
STARTCHAR 04F8
ENCODING 1272
SWIDTH 821 0
DWIDTH 17 0
BBX 13 18 2 0
BITMAP
1980
1980
0000
8008
8008
8008
8008
8008
8008
8008
FE08
8108
8088
8088
8088
8088
8108
FE08
ENDCHAR
STARTCHAR 04F9
ENCODING 1273
SWIDTH 724 0
DWIDTH 15 0
BBX 11 16 2 0
BITMAP
1980
1980
0000
0000
8020
8020
8020
8020
8020
FE20
8320
8120
8120
8120
8320
FC20
ENDCHAR
STARTCHAR 04FA
ENCODING 1274
SWIDTH 531 0
DWIDTH 11 0
BBX 10 19 1 -4
BITMAP
7FC0
4000
4000
4000
4000
4000
4000
FE00
4000
4000
4000
4000
4000
4000
7000
1000
1000
2000
6000
ENDCHAR
STARTCHAR 04FB
ENCODING 1275
SWIDTH 434 0
DWIDTH 9 0
BBX 9 16 0 -4
BITMAP
3F80
2000
2000
2000
2000
FE00
2000
2000
2000
2000
2000
3000
1000
1000
1000
7000
ENDCHAR
STARTCHAR 04FC
ENCODING 1276
SWIDTH 579 0
DWIDTH 12 0
BBX 12 19 0 -4
BITMAP
4040
6040
2080
1100
1100
0A00
0600
0400
0A00
0B00
1100
2080
20C0
4040
8030
0010
0010
0010
0060
ENDCHAR
STARTCHAR 04FD
ENCODING 1277
SWIDTH 531 0
DWIDTH 11 0
BBX 10 16 1 -4
BITMAP
8180
4100
6200
2600
1400
1800
1C00
1400
2200
4300
4100
80C0
0040
0040
0040
0180
ENDCHAR
STARTCHAR 04FE
ENCODING 1278
SWIDTH 531 0
DWIDTH 11 0
BBX 11 15 0 0
BITMAP
4040
6040
2080
1100
1900
0A00
7FC0
0E00
0A00
1100
1100
2080
60C0
4040
8020
ENDCHAR
STARTCHAR 04FF
ENCODING 1279
SWIDTH 483 0
DWIDTH 10 0
BBX 8 12 1 0
BITMAP
81
42
44
24
18
FF
18
24
24
42
C3
81
ENDCHAR
STARTCHAR 0500
ENCODING 1280
SWIDTH 628 0
DWIDTH 13 0
BBX 10 15 1 0
BITMAP
0040
0040
0040
0040
0040
0040
0040
3FC0
6040
C040
8040
8040
C040
6040
3FC0
ENDCHAR
STARTCHAR 0501
ENCODING 1281
SWIDTH 628 0
DWIDTH 13 0
BBX 10 16 1 0
BITMAP
0040
0040
0040
0040
1E40
21C0
40C0
4040
8040
8040
8040
8040
4040
40C0
21C0
1E40
ENDCHAR
STARTCHAR 0502
ENCODING 1282
SWIDTH 869 0
DWIDTH 18 0
BBX 15 15 1 0
BITMAP
0080
0080
0080
0080
0080
0080
0082
1F82
6082
C082
8082
8082
C082
41C4
3E7C
ENDCHAR
STARTCHAR 0503
ENCODING 1283
SWIDTH 869 0
DWIDTH 18 0
BBX 15 16 1 0
BITMAP
0080
0080
0080
0080
1E80
6180
4080
4080
8082
8082
8082
8082
C082
40C2
6146
1E3C
ENDCHAR
STARTCHAR 0504
ENCODING 1284
SWIDTH 869 0
DWIDTH 18 0
BBX 15 15 1 0
BITMAP
3E00
C300
0100
0180
0180
0100
0202
7C02
0302
0182
0082
0082
0082
00C4
007C
ENDCHAR
STARTCHAR 0505
ENCODING 1285
SWIDTH 773 0
DWIDTH 16 0
BBX 13 12 1 0
BITMAP
7800
8400
0200
0200
0408
3808
0608
0208
0208
0208
0118
00F0
ENDCHAR
STARTCHAR 0506
ENCODING 1286
SWIDTH 579 0
DWIDTH 12 0
BBX 10 19 1 -4
BITMAP
3E00
C100
0080
0080
0080
0180
0300
7C00
0300
0080
0080
0080
0080
0080
00C0
0040
0040
0040
0040
ENDCHAR
STARTCHAR 0507
ENCODING 1287
SWIDTH 483 0
DWIDTH 10 0
BBX 8 16 1 -4
BITMAP
7C
86
02
02
04
38
06
02
02
02
02
03
01
01
01
01
ENDCHAR
STARTCHAR 0508
ENCODING 1288
SWIDTH 966 0
DWIDTH 20 0
BBX 18 15 0 0
BITMAP
07F000
041000
041000
0C1000
081000
081000
081040
081040
081040
081040
101040
101040
101040
301080
E00F00
ENDCHAR
STARTCHAR 0509
ENCODING 1289
SWIDTH 821 0
DWIDTH 17 0
BBX 15 12 0 0
BITMAP
0F80
0880
1080
1080
1082
1082
1082
1082
1082
2082
2046
C03C
ENDCHAR
STARTCHAR 050A
ENCODING 1290
SWIDTH 1014 0
DWIDTH 21 0
BBX 17 15 2 0
BITMAP
802000
802000
802000
802000
802000
802000
802080
FFE080
802080
802080
802080
802080
802080
803100
801E00
ENDCHAR
STARTCHAR 050B
ENCODING 1291
SWIDTH 869 0
DWIDTH 18 0
BBX 14 12 2 0
BITMAP
8100
8100
8100
8100
8104
FF04
8104
8104
8104
8084
808C
8078
ENDCHAR
STARTCHAR 050C
ENCODING 1292
SWIDTH 724 0
DWIDTH 15 0
BBX 13 15 1 0
BITMAP
07E0
1810
2000
4000
4000
C000
8000
80F8
8008
C008
4018
4010
2010
1060
0FC0
ENDCHAR
STARTCHAR 050D
ENCODING 1293
SWIDTH 628 0
DWIDTH 13 0
BBX 11 12 1 0
BITMAP
0FC0
3000
4000
4000
8000
8000
83E0
8020
4020
4040
20C0
1F80
ENDCHAR
STARTCHAR 050E
ENCODING 1294
SWIDTH 676 0
DWIDTH 14 0
BBX 12 15 0 0
BITMAP
FFE0
0400
0400
0400
0400
0400
0410
0410
0410
0410
0410
0410
0410
0630
03E0
ENDCHAR
STARTCHAR 050F
ENCODING 1295
SWIDTH 628 0
DWIDTH 13 0
BBX 11 12 0 0
BITMAP
FF80
0800
0800
0800
0820
0820
0820
0820
0820
0820
0460
03C0
ENDCHAR
STARTCHAR 0510
ENCODING 1296
SWIDTH 579 0
DWIDTH 12 0
BBX 10 15 1 0
BITMAP
1F80
20C0
4000
4000
4000
4000
3000
1F00
6000
4000
8000
8000
C000
6040
1F80
ENDCHAR
STARTCHAR 0511
ENCODING 1297
SWIDTH 483 0
DWIDTH 10 0
BBX 8 12 1 0
BITMAP
3F
40
C0
C0
40
3C
40
80
80
80
40
3F
ENDCHAR
STARTCHAR 0512
ENCODING 1298
SWIDTH 676 0
DWIDTH 14 0
BBX 13 19 0 -4
BITMAP
07F0
0410
0810
0810
0810
0810
0810
0810
0810
1010
1010
1010
1010
2010
E018
0008
0008
0008
0038
ENDCHAR
STARTCHAR 0513
ENCODING 1299
SWIDTH 531 0
DWIDTH 11 0
BBX 10 16 0 -4
BITMAP
0F80
1080
1080
1080
1080
1080
1080
1080
1080
2080
2080
C0C0
0040
0040
0040
00C0
ENDCHAR
STARTCHAR 1E00
ENCODING 7680
SWIDTH 628 0
DWIDTH 13 0
BBX 13 20 0 -5
BITMAP
0200
0300
0500
0500
0C80
0880
08C0
1040
1040
3FE0
2020
6030
4010
4010
8008
0000
0700
0880
0880
0700
ENDCHAR
STARTCHAR 1E01
ENCODING 7681
SWIDTH 531 0
DWIDTH 11 0
BBX 8 17 1 -5
BITMAP
3E
43
01
01
01
3F
41
81
81
81
C3
7D
00
1C
22
22
1C
ENDCHAR
STARTCHAR 1E3E
ENCODING 7742
SWIDTH 869 0
DWIDTH 18 0
BBX 14 19 2 0
BITMAP
00C0
0180
0200
0000
C00C
C00C
A014
A014
B014
9024
9024
8844
8844
8C44
8484
8484
8304
8304
8304
ENDCHAR
STARTCHAR 1E3F
ENCODING 7743
SWIDTH 918 0
DWIDTH 19 0
BBX 15 17 2 0
BITMAP
0060
00C0
0100
0000
0000
BC7C
C386
8182
8102
8102
8102
8102
8102
8102
8102
8102
8102
ENDCHAR
STARTCHAR 1E80
ENCODING 7808
SWIDTH 918 0
DWIDTH 19 0
BBX 17 19 1 0
BITMAP
030000
018000
004000
000000
808080
814080
814080
414100
414100
422100
422100
222200
241200
241200
341200
141400
180C00
180C00
080800
ENDCHAR
STARTCHAR 1E81
ENCODING 7809
SWIDTH 724 0
DWIDTH 15 0
BBX 15 17 0 0
BITMAP
0600
0300
0080
0000
0000
C102
4184
4284
4284
6284
2448
2448
2448
1428
1830
1830
1830
ENDCHAR
STARTCHAR 1E82
ENCODING 7810
SWIDTH 918 0
DWIDTH 19 0
BBX 17 19 1 0
BITMAP
006000
00C000
010000
000000
808080
814080
814080
414100
414100
422100
422100
222200
241200
241200
341200
141400
180C00
180C00
080800
ENDCHAR
STARTCHAR 1E83
ENCODING 7811
SWIDTH 724 0
DWIDTH 15 0
BBX 15 17 0 0
BITMAP
0060
00C0
0100
0000
0000
C102
4184
4284
4284
6284
2448
2448
2448
1428
1830
1830
1830
ENDCHAR
STARTCHAR 1E84
ENCODING 7812
SWIDTH 918 0
DWIDTH 19 0
BBX 17 18 1 0
BITMAP
066000
066000
000000
808080
814080
814080
414100
414100
422100
422100
222200
241200
241200
341200
141400
180C00
180C00
080800
ENDCHAR
STARTCHAR 1E85
ENCODING 7813
SWIDTH 724 0
DWIDTH 15 0
BBX 15 16 0 0
BITMAP
0660
0660
0000
0000
C102
4184
4284
4284
6284
2448
2448
2448
1428
1830
1830
1830
ENDCHAR
STARTCHAR 1EA0
ENCODING 7840
SWIDTH 628 0
DWIDTH 13 0
BBX 13 18 0 -3
BITMAP
0200
0300
0500
0500
0C80
0880
08C0
1040
1040
3FE0
2020
6030
4010
4010
8008
0000
0400
0400
ENDCHAR
STARTCHAR 1EA1
ENCODING 7841
SWIDTH 531 0
DWIDTH 11 0
BBX 8 15 1 -3
BITMAP
3E
43
01
01
01
3F
41
81
81
81
C3
7D
00
10
10
ENDCHAR
STARTCHAR 1EA2
ENCODING 7842
SWIDTH 628 0
DWIDTH 13 0
BBX 13 21 0 0
BITMAP
0700
0080
0080
0300
0200
0000
0200
0300
0500
0500
0C80
0880
08C0
1040
1040
3FE0
2020
6030
4010
4010
8008
ENDCHAR
STARTCHAR 1EA3
ENCODING 7843
SWIDTH 531 0
DWIDTH 11 0
BBX 8 19 1 0
BITMAP
1C
02
02
0C
08
00
00
3E
43
01
01
01
3F
41
81
81
81
C3
7D
ENDCHAR
STARTCHAR 1EA4
ENCODING 7844
SWIDTH 628 0
DWIDTH 13 0
BBX 13 20 0 0
BITMAP
0020
0340
0580
0880
0000
0200
0300
0500
0500
0C80
0880
08C0
1040
1040
3FE0
2020
6030
4010
4010
8008
ENDCHAR
STARTCHAR 1EA5
ENCODING 7845
SWIDTH 531 0
DWIDTH 11 0
BBX 9 18 1 0
BITMAP
0080
0D00
1600
2200
0000
0000
3E00
4300
0100
0100
0100
3F00
4100
8100
8100
8100
C300
7D00
ENDCHAR
STARTCHAR 1EA6
ENCODING 7846
SWIDTH 628 0
DWIDTH 13 0
BBX 13 20 0 0
BITMAP
3000
1300
0580
0880
0000
0200
0300
0500
0500
0C80
0880
08C0
1040
1040
3FE0
2020
6030
4010
4010
8008
ENDCHAR
STARTCHAR 1EA7
ENCODING 7847
SWIDTH 531 0
DWIDTH 11 0
BBX 8 18 1 0
BITMAP
C0
4C
16
22
00
00
3E
43
01
01
01
3F
41
81
81
81
C3
7D
ENDCHAR
STARTCHAR 1EA8
ENCODING 7848
SWIDTH 628 0
DWIDTH 13 0
BBX 13 22 0 0
BITMAP
0060
0010
0060
0340
0580
0880
0000
0200
0300
0500
0500
0C80
0880
08C0
1040
1040
3FE0
2020
6030
4010
4010
8008
ENDCHAR
STARTCHAR 1EA9
ENCODING 7849
SWIDTH 531 0
DWIDTH 11 0
BBX 10 20 1 0
BITMAP
0180
0040
0180
0D00
1600
2200
0000
0000
3E00
4300
0100
0100
0100
3F00
4100
8100
8100
8100
C300
7D00
ENDCHAR
STARTCHAR 1EAA
ENCODING 7850
SWIDTH 628 0
DWIDTH 13 0
BBX 13 22 0 0
BITMAP
0E40
0980
0000
0300
0580
0880
0000
0200
0300
0500
0500
0C80
0880
08C0
1040
1040
3FE0
2020
6030
4010
4010
8008
ENDCHAR
STARTCHAR 1EAB
ENCODING 7851
SWIDTH 531 0
DWIDTH 11 0
BBX 8 20 1 0
BITMAP
39
26
00
0C
16
22
00
00
3E
43
01
01
01
3F
41
81
81
81
C3
7D
ENDCHAR
STARTCHAR 1EAC
ENCODING 7852
SWIDTH 628 0
DWIDTH 13 0
BBX 13 22 0 -3
BITMAP
0600
0F00
1080
0000
0200
0300
0500
0500
0C80
0880
08C0
1040
1040
3FE0
2020
6030
4010
4010
8008
0000
0400
0400
ENDCHAR
STARTCHAR 1EAD
ENCODING 7853
SWIDTH 531 0
DWIDTH 11 0
BBX 8 20 1 -3
BITMAP
0C
1E
21
00
00
3E
43
01
01
01
3F
41
81
81
81
C3
7D
00
10
10
ENDCHAR
STARTCHAR 1EAE
ENCODING 7854
SWIDTH 628 0
DWIDTH 13 0
BBX 13 21 0 0
BITMAP
0100
0200
0840
0880
0700
0000
0200
0300
0500
0500
0C80
0880
08C0
1040
1040
3FE0
2020
6030
4010
4010
8008
ENDCHAR
STARTCHAR 1EAF
ENCODING 7855
SWIDTH 531 0
DWIDTH 11 0
BBX 8 19 1 0
BITMAP
04
08
21
22
1C
00
00
3E
43
01
01
01
3F
41
81
81
81
C3
7D
ENDCHAR
STARTCHAR 1EB0
ENCODING 7856
SWIDTH 628 0
DWIDTH 13 0
BBX 13 21 0 0
BITMAP
0400
0200
0840
0880
0700
0000
0200
0300
0500
0500
0C80
0880
08C0
1040
1040
3FE0
2020
6030
4010
4010
8008
ENDCHAR
STARTCHAR 1EB1
ENCODING 7857
SWIDTH 531 0
DWIDTH 11 0
BBX 8 19 1 0
BITMAP
10
08
21
22
1C
00
00
3E
43
01
01
01
3F
41
81
81
81
C3
7D
ENDCHAR
STARTCHAR 1EB2
ENCODING 7858
SWIDTH 628 0
DWIDTH 13 0
BBX 13 22 0 0
BITMAP
0700
0100
0200
0840
0880
0700
0000
0200
0300
0500
0500
0C80
0880
08C0
1040
1040
3FE0
2020
6030
4010
4010
8008
ENDCHAR
STARTCHAR 1EB3
ENCODING 7859
SWIDTH 531 0
DWIDTH 11 0
BBX 8 20 1 0
BITMAP
1C
04
08
21
22
1C
00
00
3E
43
01
01
01
3F
41
81
81
81
C3
7D
ENDCHAR
STARTCHAR 1EB4
ENCODING 7860
SWIDTH 628 0
DWIDTH 13 0
BBX 13 22 0 0
BITMAP
0E40
0980
0000
0840
0880
0700
0000
0200
0300
0500
0500
0C80
0880
08C0
1040
1040
3FE0
2020
6030
4010
4010
8008
ENDCHAR
STARTCHAR 1EB5
ENCODING 7861
SWIDTH 531 0
DWIDTH 11 0
BBX 8 20 1 0
BITMAP
39
26
00
21
22
1C
00
00
3E
43
01
01
01
3F
41
81
81
81
C3
7D
ENDCHAR
STARTCHAR 1EB6
ENCODING 7862
SWIDTH 628 0
DWIDTH 13 0
BBX 13 22 0 -3
BITMAP
1080
1100
0F00
0000
0200
0300
0500
0500
0C80
0880
08C0
1040
1040
3FE0
2020
6030
4010
4010
8008
0000
0400
0400
ENDCHAR
STARTCHAR 1EB7
ENCODING 7863
SWIDTH 531 0
DWIDTH 11 0
BBX 8 20 1 -3
BITMAP
21
22
1E
00
00
3E
43
01
01
01
3F
41
81
81
81
C3
7D
00
10
10
ENDCHAR
STARTCHAR 1EB8
ENCODING 7864
SWIDTH 579 0
DWIDTH 12 0
BBX 9 18 2 -3
BITMAP
FF80
8000
8000
8000
8000
8000
8000
FF00
8000
8000
8000
8000
8000
8000
FF80
0000
1000
1000
ENDCHAR
STARTCHAR 1EB9
ENCODING 7865
SWIDTH 579 0
DWIDTH 12 0
BBX 10 15 1 -3
BITMAP
1E00
2180
4080
40C0
8040
FFC0
8000
8000
4000
4000
2000
1F80
0000
0800
0800
ENDCHAR
STARTCHAR 1EBA
ENCODING 7866
SWIDTH 579 0
DWIDTH 12 0
BBX 9 21 2 0
BITMAP
3800
0400
0400
1800
1000
0000
FF80
8000
8000
8000
8000
8000
8000
FF00
8000
8000
8000
8000
8000
8000
FF80
ENDCHAR
STARTCHAR 1EBB
ENCODING 7867
SWIDTH 579 0
DWIDTH 12 0
BBX 10 19 1 0
BITMAP
1C00
0200
0200
0C00
0800
0000
0000
1E00
2180
4080
40C0
8040
FFC0
8000
8000
4000
4000
2000
1F80
ENDCHAR
STARTCHAR 1EBC
ENCODING 7868
SWIDTH 579 0
DWIDTH 12 0
BBX 9 18 2 0
BITMAP
3100
4E00
0000
FF80
8000
8000
8000
8000
8000
8000
FF00
8000
8000
8000
8000
8000
8000
FF80
ENDCHAR
STARTCHAR 1EBD
ENCODING 7869
SWIDTH 579 0
DWIDTH 12 0
BBX 10 16 1 0
BITMAP
1880
2700
0000
0000
1E00
2180
4080
40C0
8040
FFC0
8000
8000
4000
4000
2000
1F80
ENDCHAR
STARTCHAR 1EBE
ENCODING 7870
SWIDTH 579 0
DWIDTH 12 0
BBX 9 20 2 0
BITMAP
0100
1A00
2C00
4400
0000
FF80
8000
8000
8000
8000
8000
8000
FF00
8000
8000
8000
8000
8000
8000
FF80
ENDCHAR
STARTCHAR 1EBF
ENCODING 7871
SWIDTH 579 0
DWIDTH 12 0
BBX 10 18 1 0
BITMAP
0080
0D00
1600
2200
0000
0000
1E00
2180
4080
40C0
8040
FFC0
8000
8000
4000
4000
2000
1F80
ENDCHAR
STARTCHAR 1EC0
ENCODING 7872
SWIDTH 579 0
DWIDTH 12 0
BBX 10 20 1 0
BITMAP
C000
4C00
1600
2200
0000
7FC0
4000
4000
4000
4000
4000
4000
7F80
4000
4000
4000
4000
4000
4000
7FC0
ENDCHAR
STARTCHAR 1EC1
ENCODING 7873
SWIDTH 579 0
DWIDTH 12 0
BBX 10 18 1 0
BITMAP
C000
4C00
1600
2200
0000
0000
1E00
2180
4080
40C0
8040
FFC0
8000
8000
4000
4000
2000
1F80
ENDCHAR
STARTCHAR 1EC2
ENCODING 7874
SWIDTH 579 0
DWIDTH 12 0
BBX 9 22 2 0
BITMAP
0300
0080
0300
1A00
2C00
4400
0000
FF80
8000
8000
8000
8000
8000
8000
FF00
8000
8000
8000
8000
8000
8000
FF80
ENDCHAR
STARTCHAR 1EC3
ENCODING 7875
SWIDTH 579 0
DWIDTH 12 0
BBX 10 20 1 0
BITMAP
0180
0040
0180
0D00
1600
2200
0000
0000
1E00
2180
4080
40C0
8040
FFC0
8000
8000
4000
4000
2000
1F80
ENDCHAR
STARTCHAR 1EC4
ENCODING 7876
SWIDTH 579 0
DWIDTH 12 0
BBX 9 22 2 0
BITMAP
7200
4C00
0000
1800
2C00
4400
0000
FF80
8000
8000
8000
8000
8000
8000
FF00
8000
8000
8000
8000
8000
8000
FF80
ENDCHAR
STARTCHAR 1EC5
ENCODING 7877
SWIDTH 579 0
DWIDTH 12 0
BBX 10 20 1 0
BITMAP
3900
2600
0000
0C00
1600
2200
0000
0000
1E00
2180
4080
40C0
8040
FFC0
8000
8000
4000
4000
2000
1F80
ENDCHAR
STARTCHAR 1EC6
ENCODING 7878
SWIDTH 579 0
DWIDTH 12 0
BBX 9 22 2 -3
BITMAP
1800
3C00
4200
0000
FF80
8000
8000
8000
8000
8000
8000
FF00
8000
8000
8000
8000
8000
8000
FF80
0000
1000
1000
ENDCHAR
STARTCHAR 1EC7
ENCODING 7879
SWIDTH 579 0
DWIDTH 12 0
BBX 10 20 1 -3
BITMAP
0C00
1E00
2100
0000
0000
1E00
2180
4080
40C0
8040
FFC0
8000
8000
4000
4000
2000
1F80
0000
0800
0800
ENDCHAR
STARTCHAR 1EC8
ENCODING 7880
SWIDTH 241 0
DWIDTH 5 0
BBX 4 21 1 0
BITMAP
E0
10
10
60
40
00
40
40
40
40
40
40
40
40
40
40
40
40
40
40
40
ENDCHAR
STARTCHAR 1EC9
ENCODING 7881
SWIDTH 241 0
DWIDTH 5 0
BBX 4 19 1 0
BITMAP
E0
10
10
60
40
00
00
40
40
40
40
40
40
40
40
40
40
40
40
ENDCHAR
STARTCHAR 1ECA
ENCODING 7882
SWIDTH 241 0
DWIDTH 5 0
BBX 1 18 2 -3
BITMAP
80
80
80
80
80
80
80
80
80
80
80
80
80
80
80
00
80
80
ENDCHAR
STARTCHAR 1ECB
ENCODING 7883
SWIDTH 241 0
DWIDTH 5 0
BBX 2 18 1 -3
BITMAP
40
40
00
40
40
40
40
40
40
40
40
40
40
40
40
00
80
80
ENDCHAR
STARTCHAR 1ECC
ENCODING 7884
SWIDTH 773 0
DWIDTH 16 0
BBX 14 18 1 -3
BITMAP
0FC0
1820
2010
4008
4008
C00C
8004
8004
8004
C00C
4008
4008
2010
1020
0FC0
0000
0200
0200
ENDCHAR
STARTCHAR 1ECD
ENCODING 7885
SWIDTH 579 0
DWIDTH 12 0
BBX 10 15 1 -3
BITMAP
1E00
2100
4080
4080
8040
8040
8040
8040
4080
4080
2100
1E00
0000
0800
0800
ENDCHAR
STARTCHAR 1ECE
ENCODING 7886
SWIDTH 773 0
DWIDTH 16 0
BBX 14 21 1 0
BITMAP
0700
0080
0080
0300
0200
0000
0FC0
1820
2010
4008
4008
C00C
8004
8004
8004
C00C
4008
4008
2010
1020
0FC0
ENDCHAR
STARTCHAR 1ECF
ENCODING 7887
SWIDTH 579 0
DWIDTH 12 0
BBX 10 19 1 0
BITMAP
1C00
0200
0200
0C00
0800
0000
0000
1E00
2100
4080
4080
8040
8040
8040
8040
4080
4080
2100
1E00
ENDCHAR
STARTCHAR 1ED0
ENCODING 7888
SWIDTH 773 0
DWIDTH 16 0
BBX 14 20 1 0
BITMAP
0020
0340
0580
0880
0000
0FC0
1820
2010
4008
4008
C00C
8004
8004
8004
C00C
4008
4008
2010
1020
0FC0
ENDCHAR
STARTCHAR 1ED1
ENCODING 7889
SWIDTH 579 0
DWIDTH 12 0
BBX 10 18 1 0
BITMAP
0080
0D00
1600
2200
0000
0000
1E00
2100
4080
4080
8040
8040
8040
8040
4080
4080
2100
1E00
ENDCHAR
STARTCHAR 1ED2
ENCODING 7890
SWIDTH 773 0
DWIDTH 16 0
BBX 14 20 1 0
BITMAP
3000
1300
0580
0880
0000
0FC0
1820
2010
4008
4008
C00C
8004
8004
8004
C00C
4008
4008
2010
1020
0FC0
ENDCHAR
STARTCHAR 1ED3
ENCODING 7891
SWIDTH 579 0
DWIDTH 12 0
BBX 10 18 1 0
BITMAP
C000
4C00
1600
2200
0000
0000
1E00
2100
4080
4080
8040
8040
8040
8040
4080
4080
2100
1E00
ENDCHAR
STARTCHAR 1ED4
ENCODING 7892
SWIDTH 773 0
DWIDTH 16 0
BBX 14 22 1 0
BITMAP
0060
0010
0060
0340
0580
0880
0000
0FC0
1820
2010
4008
4008
C00C
8004
8004
8004
C00C
4008
4008
2010
1020
0FC0
ENDCHAR
STARTCHAR 1ED5
ENCODING 7893
SWIDTH 579 0
DWIDTH 12 0
BBX 10 20 1 0
BITMAP
0180
0040
0180
0D00
1600
2200
0000
0000
1E00
2100
4080
4080
8040
8040
8040
8040
4080
4080
2100
1E00
ENDCHAR
STARTCHAR 1ED6
ENCODING 7894
SWIDTH 773 0
DWIDTH 16 0
BBX 14 22 1 0
BITMAP
0E40
0980
0000
0300
0580
0880
0000
0FC0
1820
2010
4008
4008
C00C
8004
8004
8004
C00C
4008
4008
2010
1020
0FC0
ENDCHAR
STARTCHAR 1ED7
ENCODING 7895
SWIDTH 579 0
DWIDTH 12 0
BBX 10 20 1 0
BITMAP
3900
2600
0000
0C00
1600
2200
0000
0000
1E00
2100
4080
4080
8040
8040
8040
8040
4080
4080
2100
1E00
ENDCHAR
STARTCHAR 1ED8
ENCODING 7896
SWIDTH 773 0
DWIDTH 16 0
BBX 14 22 1 -3
BITMAP
0300
0780
0840
0000
0FC0
1820
2010
4008
4008
C00C
8004
8004
8004
C00C
4008
4008
2010
1020
0FC0
0000
0200
0200
ENDCHAR
STARTCHAR 1ED9
ENCODING 7897
SWIDTH 579 0
DWIDTH 12 0
BBX 10 20 1 -3
BITMAP
0C00
1E00
2100
0000
0000
1E00
2100
4080
4080
8040
8040
8040
8040
4080
4080
2100
1E00
0000
0800
0800
ENDCHAR
STARTCHAR 1EDA
ENCODING 7898
SWIDTH 773 0
DWIDTH 16 0
BBX 15 19 1 0
BITMAP
00C0
0180
0200
0002
0FC2
1824
201C
4008
4008
C00C
8004
8004
8004
C00C
4008
4008
2010
1020
0FC0
ENDCHAR
STARTCHAR 1EDB
ENCODING 7899
SWIDTH 579 0
DWIDTH 12 0
BBX 11 17 1 0
BITMAP
0300
0600
0800
0020
0020
1E20
2140
4080
4080
8040
8040
8040
8040
4080
4080
2100
1E00
ENDCHAR
STARTCHAR 1EDC
ENCODING 7900
SWIDTH 773 0
DWIDTH 16 0
BBX 15 19 1 0
BITMAP
0C00
0600
0100
0002
0FC2
1824
201C
4008
4008
C00C
8004
8004
8004
C00C
4008
4008
2010
1020
0FC0
ENDCHAR
STARTCHAR 1EDD
ENCODING 7901
SWIDTH 579 0
DWIDTH 12 0
BBX 11 17 1 0
BITMAP
3000
1800
0400
0020
0020
1E20
2140
4080
4080
8040
8040
8040
8040
4080
4080
2100
1E00
ENDCHAR
STARTCHAR 1EDE
ENCODING 7902
SWIDTH 773 0
DWIDTH 16 0
BBX 15 21 1 0
BITMAP
0700
0080
0080
0300
0200
0002
0FC2
1824
201C
4008
4008
C00C
8004
8004
8004
C00C
4008
4008
2010
1020
0FC0
ENDCHAR
STARTCHAR 1EDF
ENCODING 7903
SWIDTH 579 0
DWIDTH 12 0
BBX 11 19 1 0
BITMAP
1C00
0200
0200
0C00
0800
0020
0020
1E20
2140
4080
4080
8040
8040
8040
8040
4080
4080
2100
1E00
ENDCHAR
STARTCHAR 1EE0
ENCODING 7904
SWIDTH 773 0
DWIDTH 16 0
BBX 15 18 1 0
BITMAP
0620
09C0
0002
0FC2
1824
201C
4008
4008
C00C
8004
8004
8004
C00C
4008
4008
2010
1020
0FC0
ENDCHAR
STARTCHAR 1EE1
ENCODING 7905
SWIDTH 579 0
DWIDTH 12 0
BBX 11 16 1 0
BITMAP
1880
2700
0020
0020
1E20
2140
4080
4080
8040
8040
8040
8040
4080
4080
2100
1E00
ENDCHAR
STARTCHAR 1EE2
ENCODING 7906
SWIDTH 773 0
DWIDTH 16 0
BBX 15 19 1 -3
BITMAP
0002
0FC2
1824
201C
4008
4008
C00C
8004
8004
8004
C00C
4008
4008
2010
1020
0FC0
0000
0200
0200
ENDCHAR
STARTCHAR 1EE3
ENCODING 7907
SWIDTH 579 0
DWIDTH 12 0
BBX 11 17 1 -3
BITMAP
0020
0020
1E20
2140
4080
4080
8040
8040
8040
8040
4080
4080
2100
1E00
0000
0800
0800
ENDCHAR
STARTCHAR 1EE4
ENCODING 7908
SWIDTH 724 0
DWIDTH 15 0
BBX 11 18 2 -3
BITMAP
8020
8020
8020
8020
8020
8020
8020
8020
8020
8020
8020
8020
4040
60C0
1F00
0000
0400
0400
ENDCHAR
STARTCHAR 1EE5
ENCODING 7909
SWIDTH 579 0
DWIDTH 12 0
BBX 8 15 2 -3
BITMAP
81
81
81
81
81
81
81
81
81
81
C3
7D
00
10
10
ENDCHAR
STARTCHAR 1EE6
ENCODING 7910
SWIDTH 724 0
DWIDTH 15 0
BBX 11 21 2 0
BITMAP
0E00
0100
0100
0600
0400
0000
8020
8020
8020
8020
8020
8020
8020
8020
8020
8020
8020
8020
4040
60C0
1F00
ENDCHAR
STARTCHAR 1EE7
ENCODING 7911
SWIDTH 579 0
DWIDTH 12 0
BBX 8 19 2 0
BITMAP
38
04
04
18
10
00
00
81
81
81
81
81
81
81
81
81
81
C3
7D
ENDCHAR
STARTCHAR 1EE8
ENCODING 7912
SWIDTH 724 0
DWIDTH 15 0
BBX 14 19 2 0
BITMAP
0300
0600
0800
0004
802C
8028
8030
8020
8020
8020
8020
8020
8020
8020
8020
8020
4040
6080
1F00
ENDCHAR
STARTCHAR 1EE9
ENCODING 7913
SWIDTH 628 0
DWIDTH 13 0
BBX 12 17 2 0
BITMAP
0600
0C00
1000
0030
0020
80A0
80C0
8080
8080
8080
8080
8080
8080
8180
8180
C280
7C80
ENDCHAR
STARTCHAR 1EEA
ENCODING 7914
SWIDTH 724 0
DWIDTH 15 0
BBX 14 19 2 0
BITMAP
1800
0C00
0200
0004
802C
8028
8030
8020
8020
8020
8020
8020
8020
8020
8020
8020
4040
6080
1F00
ENDCHAR
STARTCHAR 1EEB
ENCODING 7915
SWIDTH 628 0
DWIDTH 13 0
BBX 12 17 2 0
BITMAP
6000
3000
0800
0030
0020
80A0
80C0
8080
8080
8080
8080
8080
8080
8180
8180
C280
7C80
ENDCHAR
STARTCHAR 1EEC
ENCODING 7916
SWIDTH 724 0
DWIDTH 15 0
BBX 14 21 2 0
BITMAP
0E00
0100
0100
0600
0400
0004
802C
8028
8030
8020
8020
8020
8020
8020
8020
8020
8020
8020
4040
6080
1F00
ENDCHAR
STARTCHAR 1EED
ENCODING 7917
SWIDTH 628 0
DWIDTH 13 0
BBX 12 19 2 0
BITMAP
3800
0400
0400
1800
1000
0030
0020
80A0
80C0
8080
8080
8080
8080
8080
8080
8180
8180
C280
7C80
ENDCHAR
STARTCHAR 1EEE
ENCODING 7918
SWIDTH 724 0
DWIDTH 15 0
BBX 14 18 2 0
BITMAP
1880
2700
0004
802C
8028
8030
8020
8020
8020
8020
8020
8020
8020
8020
8020
4040
6080
1F00
ENDCHAR
STARTCHAR 1EEF
ENCODING 7919
SWIDTH 628 0
DWIDTH 13 0
BBX 12 16 2 0
BITMAP
3100
4E00
0030
0020
80A0
80C0
8080
8080
8080
8080
8080
8080
8180
8180
C280
7C80
ENDCHAR
STARTCHAR 1EF0
ENCODING 7920
SWIDTH 724 0
DWIDTH 15 0
BBX 14 19 2 -3
BITMAP
0004
802C
8028
8030
8020
8020
8020
8020
8020
8020
8020
8020
8020
4040
6080
1F00
0000
0400
0400
ENDCHAR
STARTCHAR 1EF1
ENCODING 7921
SWIDTH 628 0
DWIDTH 13 0
BBX 12 17 2 -3
BITMAP
0030
0020
80A0
80C0
8080
8080
8080
8080
8080
8080
8180
8180
C280
7C80
0000
1000
1000
ENDCHAR
STARTCHAR 1EF2
ENCODING 7922
SWIDTH 531 0
DWIDTH 11 0
BBX 11 19 0 0
BITMAP
1800
0C00
0200
0000
8020
4040
6040
2080
3180
1100
1B00
0A00
0400
0400
0400
0400
0400
0400
0400
ENDCHAR
STARTCHAR 1EF3
ENCODING 7923
SWIDTH 483 0
DWIDTH 10 0
BBX 10 22 0 -5
BITMAP
3000
1800
0400
0000
0000
8040
4080
4080
4080
2100
2100
2100
1200
1200
0C00
0C00
0C00
0800
0800
1000
1000
E000
ENDCHAR
STARTCHAR 1EF4
ENCODING 7924
SWIDTH 531 0
DWIDTH 11 0
BBX 11 18 0 -3
BITMAP
8020
4040
6040
2080
3180
1100
1B00
0A00
0400
0400
0400
0400
0400
0400
0400
0000
0400
0400
ENDCHAR
STARTCHAR 1EF5
ENCODING 7925
SWIDTH 483 0
DWIDTH 10 0
BBX 10 17 0 -5
BITMAP
8040
4080
4080
4080
2100
2100
2100
1200
1200
0C00
0C00
0C00
0800
0900
1100
1000
E000
ENDCHAR
STARTCHAR 1EF6
ENCODING 7926
SWIDTH 531 0
DWIDTH 11 0
BBX 11 21 0 0
BITMAP
0E00
0100
0100
0600
0400
0000
8020
4040
6040
2080
3180
1100
1B00
0A00
0400
0400
0400
0400
0400
0400
0400
ENDCHAR
STARTCHAR 1EF7
ENCODING 7927
SWIDTH 483 0
DWIDTH 10 0
BBX 10 24 0 -5
BITMAP
1C00
0200
0200
0C00
0800
0000
0000
8040
4080
4080
4080
2100
2100
2100
1200
1200
0C00
0C00
0C00
0800
0800
1000
1000
E000
ENDCHAR
STARTCHAR 1EF8
ENCODING 7928
SWIDTH 531 0
DWIDTH 11 0
BBX 11 18 0 0
BITMAP
1880
2700
0000
8020
4040
6040
2080
3180
1100
1B00
0A00
0400
0400
0400
0400
0400
0400
0400
ENDCHAR
STARTCHAR 1EF9
ENCODING 7929
SWIDTH 483 0
DWIDTH 10 0
BBX 10 21 0 -5
BITMAP
3100
4E00
0000
0000
8040
4080
4080
4080
2100
2100
2100
1200
1200
0C00
0C00
0C00
0800
0800
1000
1000
E000
ENDCHAR
STARTCHAR 1F4D
ENCODING 8013
SWIDTH 821 0
DWIDTH 17 0
BBX 18 15 -2 0
BITMAP
D8FC00
918200
A20100
040080
040080
0C00C0
080040
080040
080040
0C00C0
040080
040080
020100
010200
00FC00
ENDCHAR
STARTCHAR 2000
ENCODING 8192
SWIDTH 531 0
DWIDTH 11 0
BBX 0 0 0 0
BITMAP
ENDCHAR
STARTCHAR 2001
ENCODING 8193
SWIDTH 1014 0
DWIDTH 21 0
BBX 0 0 0 0
BITMAP
ENDCHAR
STARTCHAR 2002
ENCODING 8194
SWIDTH 531 0
DWIDTH 11 0
BBX 0 0 0 0
BITMAP
ENDCHAR
STARTCHAR 2003
ENCODING 8195
SWIDTH 1014 0
DWIDTH 21 0
BBX 0 0 0 0
BITMAP
ENDCHAR
STARTCHAR 2004
ENCODING 8196
SWIDTH 338 0
DWIDTH 7 0
BBX 0 0 0 0
BITMAP
ENDCHAR
STARTCHAR 2005
ENCODING 8197
SWIDTH 241 0
DWIDTH 5 0
BBX 0 0 0 0
BITMAP
ENDCHAR
STARTCHAR 2006
ENCODING 8198
SWIDTH 193 0
DWIDTH 4 0
BBX 0 0 0 0
BITMAP
ENDCHAR
STARTCHAR 2007
ENCODING 8199
SWIDTH 579 0
DWIDTH 12 0
BBX 0 0 0 0
BITMAP
ENDCHAR
STARTCHAR 2008
ENCODING 8200
SWIDTH 241 0
DWIDTH 5 0
BBX 0 0 0 0
BITMAP
ENDCHAR
STARTCHAR 2009
ENCODING 8201
SWIDTH 193 0
DWIDTH 4 0
BBX 0 0 0 0
BITMAP
ENDCHAR
STARTCHAR 200A
ENCODING 8202
SWIDTH 96 0
DWIDTH 2 0
BBX 0 0 0 0
BITMAP
ENDCHAR
STARTCHAR 200B
ENCODING 8203
SWIDTH 0 0
DWIDTH 0 0
BBX 0 0 0 0
BITMAP
ENDCHAR
STARTCHAR 2013
ENCODING 8211
SWIDTH 531 0
DWIDTH 11 0
BBX 9 1 1 5
BITMAP
FF80
ENDCHAR
STARTCHAR 2014
ENCODING 8212
SWIDTH 1014 0
DWIDTH 21 0
BBX 19 1 1 5
BITMAP
FFFFE0
ENDCHAR
STARTCHAR 2015
ENCODING 8213
SWIDTH 1014 0
DWIDTH 21 0
BBX 19 1 1 5
BITMAP
FFFFE0
ENDCHAR
STARTCHAR 2017
ENCODING 8215
SWIDTH 434 0
DWIDTH 9 0
BBX 9 3 0 -4
BITMAP
FF80
0000
FF80
ENDCHAR
STARTCHAR 2018
ENCODING 8216
SWIDTH 144 0
DWIDTH 3 0
BBX 3 5 0 10
BITMAP
20
40
40
40
C0
ENDCHAR
STARTCHAR 2019
ENCODING 8217
SWIDTH 144 0
DWIDTH 3 0
BBX 3 5 0 10
BITMAP
60
40
40
40
80
ENDCHAR
STARTCHAR 201A
ENCODING 8218
SWIDTH 241 0
DWIDTH 5 0
BBX 3 5 0 -3
BITMAP
60
40
40
40
80
ENDCHAR
STARTCHAR 201B
ENCODING 8219
SWIDTH 144 0
DWIDTH 3 0
BBX 3 5 0 10
BITMAP
C0
40
40
40
20
ENDCHAR
STARTCHAR 201C
ENCODING 8220
SWIDTH 289 0
DWIDTH 6 0
BBX 6 5 0 10
BITMAP
24
48
48
48
D8
ENDCHAR
STARTCHAR 201D
ENCODING 8221
SWIDTH 289 0
DWIDTH 6 0
BBX 6 5 0 10
BITMAP
6C
48
48
48
90
ENDCHAR
STARTCHAR 201E
ENCODING 8222
SWIDTH 386 0
DWIDTH 8 0
BBX 6 5 0 -3
BITMAP
6C
48
48
48
90
ENDCHAR
STARTCHAR 2020
ENCODING 8224
SWIDTH 483 0
DWIDTH 10 0
BBX 8 16 1 0
BITMAP
10
10
10
10
FF
10
10
10
10
10
10
10
10
10
10
18
ENDCHAR
STARTCHAR 2021
ENCODING 8225
SWIDTH 483 0
DWIDTH 10 0
BBX 8 16 1 0
BITMAP
10
10
10
10
FF
10
10
10
10
10
10
FF
10
10
10
10
ENDCHAR
STARTCHAR 2022
ENCODING 8226
SWIDTH 386 0
DWIDTH 8 0
BBX 4 4 2 6
BITMAP
60
F0
F0
60
ENDCHAR
STARTCHAR 2026
ENCODING 8230
SWIDTH 724 0
DWIDTH 15 0
BBX 11 2 2 0
BITMAP
8420
8420
ENDCHAR
STARTCHAR 2030
ENCODING 8240
SWIDTH 1159 0
DWIDTH 24 0
BBX 22 15 1 0
BITMAP
781000
482000
842000
844000
844000
848000
84B870
4D64C8
3A4284
024284
044284
044284
084284
0824C8
103870
ENDCHAR
STARTCHAR 2032
ENCODING 8242
SWIDTH 193 0
DWIDTH 4 0
BBX 2 5 1 10
BITMAP
C0
C0
40
40
40
ENDCHAR
STARTCHAR 2033
ENCODING 8243
SWIDTH 338 0
DWIDTH 7 0
BBX 5 5 1 10
BITMAP
D8
88
88
88
88
ENDCHAR
STARTCHAR 2039
ENCODING 8249
SWIDTH 241 0
DWIDTH 5 0
BBX 3 8 1 2
BITMAP
20
20
40
80
80
40
20
20
ENDCHAR
STARTCHAR 203A
ENCODING 8250
SWIDTH 241 0
DWIDTH 5 0
BBX 3 8 1 2
BITMAP
80
80
40
20
20
40
80
80
ENDCHAR
STARTCHAR 203C
ENCODING 8252
SWIDTH 434 0
DWIDTH 9 0
BBX 5 15 2 0
BITMAP
88
88
88
88
88
88
88
88
88
88
88
00
00
88
88
ENDCHAR
STARTCHAR 2044
ENCODING 8260
SWIDTH 144 0
DWIDTH 3 0
BBX 9 15 -3 0
BITMAP
0080
0100
0100
0200
0200
0400
0400
0800
1000
1000
2000
2000
4000
8000
8000
ENDCHAR
STARTCHAR 2070
ENCODING 8304
SWIDTH 338 0
DWIDTH 7 0
BBX 6 9 1 6
BITMAP
70
88
88
88
0C
88
88
88
70
ENDCHAR
STARTCHAR 2074
ENCODING 8308
SWIDTH 338 0
DWIDTH 7 0
BBX 7 9 0 6
BITMAP
08
18
18
28
48
48
FE
08
08
ENDCHAR
STARTCHAR 2075
ENCODING 8309
SWIDTH 338 0
DWIDTH 7 0
BBX 5 9 1 6
BITMAP
F8
80
80
F0
08
08
08
08
F0
ENDCHAR
STARTCHAR 2076
ENCODING 8310
SWIDTH 338 0
DWIDTH 7 0
BBX 7 9 0 6
BITMAP
0C
30
40
78
44
82
46
44
38
ENDCHAR
STARTCHAR 2077
ENCODING 8311
SWIDTH 338 0
DWIDTH 7 0
BBX 5 9 1 6
BITMAP
F8
08
08
10
10
20
20
40
40
ENDCHAR
STARTCHAR 2078
ENCODING 8312
SWIDTH 338 0
DWIDTH 7 0
BBX 5 9 1 6
BITMAP
70
88
88
D8
70
88
88
88
F0
ENDCHAR
STARTCHAR 2079
ENCODING 8313
SWIDTH 338 0
DWIDTH 7 0
BBX 7 9 0 6
BITMAP
38
44
84
86
44
7C
04
0C
78
ENDCHAR
STARTCHAR 207F
ENCODING 8319
SWIDTH 386 0
DWIDTH 8 0
BBX 6 7 1 8
BITMAP
B8
C4
84
84
84
84
84
ENDCHAR
STARTCHAR 20A3
ENCODING 8355
SWIDTH 579 0
DWIDTH 12 0
BBX 10 15 1 0
BITMAP
3FC0
2000
2000
2000
2000
2000
2000
3F80
2000
2000
2000
FE00
2000
2000
2000
ENDCHAR
STARTCHAR 20A4
ENCODING 8356
SWIDTH 579 0
DWIDTH 12 0
BBX 10 15 1 0
BITMAP
0F80
1000
2000
2000
2000
2000
FE00
2000
2000
FE00
2000
2000
2000
4000
FFC0
ENDCHAR
STARTCHAR 20A7
ENCODING 8359
SWIDTH 724 0
DWIDTH 15 0
BBX 12 15 2 0
BITMAP
F800
8C00
8400
8200
8240
8640
85F0
8C40
F040
8040
8040
8040
8040
8040
8070
ENDCHAR
STARTCHAR 20AB
ENCODING 8363
SWIDTH 628 0
DWIDTH 13 0
BBX 12 19 1 -3
BITMAP
0040
0040
0FF0
0040
1E40
21C0
40C0
4040
8040
8040
8040
8040
4040
40C0
21C0
1E40
0000
0000
7FC0
ENDCHAR
STARTCHAR 20AC
ENCODING 8364
SWIDTH 579 0
DWIDTH 12 0
BBX 10 15 1 0
BITMAP
07C0
1800
1000
2000
2000
FF00
6000
6000
FE00
2000
2000
2000
1000
0800
07C0
ENDCHAR
STARTCHAR 2105
ENCODING 8453
SWIDTH 821 0
DWIDTH 17 0
BBX 15 15 1 0
BITMAP
3C10
4020
4020
C040
4040
4080
3C80
0100
0238
0244
0484
0482
0884
0844
1038
ENDCHAR
STARTCHAR 2113
ENCODING 8467
SWIDTH 531 0
DWIDTH 11 0
BBX 8 15 1 0
BITMAP
1E
12
21
21
22
22
24
38
E0
20
20
20
21
11
1E
ENDCHAR
STARTCHAR 2116
ENCODING 8470
SWIDTH 1014 0
DWIDTH 21 0
BBX 18 15 2 0
BITMAP
804000
C04000
A04000
A04000
904000
984780
884880
844840
844840
824840
834880
814780
80C000
80C000
804F80
ENDCHAR
STARTCHAR 2120
ENCODING 8480
SWIDTH 773 0
DWIDTH 16 0
BBX 13 7 1 8
BITMAP
7A08
8318
C318
32A8
0AA8
0AA8
F248
ENDCHAR
STARTCHAR 2122
ENCODING 8482
SWIDTH 724 0
DWIDTH 15 0
BBX 13 7 0 8
BITMAP
FB08
2318
2318
22A8
22A8
2268
2248
ENDCHAR
STARTCHAR 2126
ENCODING 8486
SWIDTH 773 0
DWIDTH 16 0
BBX 14 15 1 0
BITMAP
0FC0
3030
2018
4008
4008
C00C
800C
C00C
4008
4008
4008
2010
3030
1860
FCFC
ENDCHAR
STARTCHAR 212E
ENCODING 8494
SWIDTH 628 0
DWIDTH 13 0
BBX 11 12 1 0
BITMAP
1F00
2080
4040
C060
C060
FFE0
C000
C000
C000
4040
2080
1F00
ENDCHAR
STARTCHAR 215B
ENCODING 8539
SWIDTH 773 0
DWIDTH 16 0
BBX 14 15 0 0
BITMAP
3020
D040
1040
2080
2080
2100
2138
2244
2444
046C
0838
0844
1044
2044
2078
ENDCHAR
STARTCHAR 215C
ENCODING 8540
SWIDTH 773 0
DWIDTH 16 0
BBX 14 15 1 0
BITMAP
F010
0820
0820
0840
7040
0880
0CB8
0944
F244
026C
0438
0444
0844
1044
1078
ENDCHAR
STARTCHAR 215D
ENCODING 8541
SWIDTH 773 0
DWIDTH 16 0
BBX 14 15 1 0
BITMAP
F820
8040
8040
F080
0880
0900
0938
0A44
F444
046C
0838
0844
1044
2044
2078
ENDCHAR
STARTCHAR 215E
ENCODING 8542
SWIDTH 773 0
DWIDTH 16 0
BBX 13 15 1 0
BITMAP
F840
0880
0880
1100
1100
2200
2270
4488
4888
08D8
1070
1088
2088
4088
40F0
ENDCHAR
STARTCHAR 2202
ENCODING 8706
SWIDTH 579 0
DWIDTH 12 0
BBX 10 15 1 0
BITMAP
1F00
0180
0080
0080
0040
1E40
3140
40C0
4080
8080
8080
8100
8100
4200
3C00
ENDCHAR
STARTCHAR 2206
ENCODING 8710
SWIDTH 579 0
DWIDTH 12 0
BBX 12 15 0 0
BITMAP
0600
0600
0600
0900
0900
0900
1080
1080
2040
2040
2040
4020
4020
4020
FFF0
ENDCHAR
STARTCHAR 220F
ENCODING 8719
SWIDTH 724 0
DWIDTH 15 0
BBX 11 20 2 -5
BITMAP
FFE0
8020
8020
8020
8020
8020
8020
8020
8020
8020
8020
8020
8020
8020
8020
8020
8020
8020
8020
8020
ENDCHAR
STARTCHAR 2211
ENCODING 8721
SWIDTH 628 0
DWIDTH 13 0
BBX 11 20 1 -5
BITMAP
FFE0
4000
6000
2000
1000
0800
0C00
0600
0200
0100
0200
0400
0400
0800
1000
3000
2000
4000
C000
FFE0
ENDCHAR
STARTCHAR 2212
ENCODING 8722
SWIDTH 579 0
DWIDTH 12 0
BBX 10 1 1 7
BITMAP
FFC0
ENDCHAR
STARTCHAR 221A
ENCODING 8730
SWIDTH 579 0
DWIDTH 12 0
BBX 13 17 0 0
BITMAP
0008
0010
0010
0020
0020
0020
0040
0040
E040
1080
1080
1100
0900
0900
0A00
0600
0600
ENDCHAR
STARTCHAR 221E
ENCODING 8734
SWIDTH 724 0
DWIDTH 15 0
BBX 13 6 1 5
BITMAP
38E0
4510
8208
8208
4510
38E0
ENDCHAR
STARTCHAR 222B
ENCODING 8747
SWIDTH 386 0
DWIDTH 8 0
BBX 8 21 0 -5
BITMAP
07
08
08
10
10
10
10
10
10
10
10
10
10
10
10
10
10
10
10
10
E0
ENDCHAR
STARTCHAR 2248
ENCODING 8776
SWIDTH 579 0
DWIDTH 12 0
BBX 10 6 1 5
BITMAP
7840
8780
0000
0000
7840
8780
ENDCHAR
STARTCHAR 2260
ENCODING 8800
SWIDTH 579 0
DWIDTH 12 0
BBX 10 11 1 2
BITMAP
0100
0200
0200
FFC0
0400
0800
0800
FFC0
1000
1000
2000
ENDCHAR
STARTCHAR 2264
ENCODING 8804
SWIDTH 579 0
DWIDTH 12 0
BBX 10 12 1 0
BITMAP
0040
0180
0600
1800
6000
C000
3000
0C00
0300
00C0
0000
FFC0
ENDCHAR
STARTCHAR 2265
ENCODING 8805
SWIDTH 579 0
DWIDTH 12 0
BBX 10 12 1 0
BITMAP
8000
6000
1800
0600
0180
00C0
0300
0C00
3000
C000
0000
FFC0
ENDCHAR
STARTCHAR 25CA
ENCODING 9674
SWIDTH 579 0
DWIDTH 12 0
BBX 10 15 1 0
BITMAP
0C00
0C00
1200
1200
2100
4080
4080
8040
4080
4080
2100
1200
1200
0C00
0C00
ENDCHAR
STARTCHAR FB00
ENCODING 64256
SWIDTH 628 0
DWIDTH 13 0
BBX 13 16 0 0
BITMAP
1E78
1040
2080
2080
FFF0
2080
2080
2080
2080
2080
2080
2080
2080
2080
2080
2080
ENDCHAR
STARTCHAR FB01
ENCODING 64257
SWIDTH 531 0
DWIDTH 11 0
BBX 9 16 0 0
BITMAP
1E00
1080
2080
2000
FC80
2080
2080
2080
2080
2080
2080
2080
2080
2080
2080
2080
ENDCHAR
STARTCHAR FB02
ENCODING 64258
SWIDTH 531 0
DWIDTH 11 0
BBX 9 16 0 0
BITMAP
1E80
1080
2080
2080
FC80
2080
2080
2080
2080
2080
2080
2080
2080
2080
2080
2080
ENDCHAR
STARTCHAR FB03
ENCODING 64259
SWIDTH 821 0
DWIDTH 17 0
BBX 16 16 0 0
BITMAP
1E78
1041
2081
2080
FFF1
2081
2081
2081
2081
2081
2081
2081
2081
2081
2081
2081
ENDCHAR
STARTCHAR FB04
ENCODING 64260
SWIDTH 821 0
DWIDTH 17 0
BBX 16 16 0 0
BITMAP
1E79
1041
2081
2081
FFF1
2081
2081
2081
2081
2081
2081
2081
2081
2081
2081
2081
ENDCHAR
STARTCHAR FEFF
ENCODING 65279
SWIDTH 0 0
DWIDTH 0 0
BBX 0 0 0 0
BITMAP
ENDCHAR
STARTCHAR FFFC
ENCODING 65532
SWIDTH 1014 0
DWIDTH 21 0
BBX 19 20 1 -4
BITMAP
EEEEE0
800020
800020
000000
800020
800020
9E7120
135900
117100
914920
934920
1E7700
000000
800020
800020
800020
000000
800020
800020
EEEEE0
ENDCHAR
STARTCHAR FFFD
ENCODING 65533
SWIDTH 1014 0
DWIDTH 21 0
BBX 19 19 1 -3
BITMAP
004000
00E000
01F000
03F800
060C00
0C0600
1EE700
3FE780
7FC7C0
FF8FE0
7F1FC0
3F3F80
1FFF00
0FBE00
071C00
033800
01F000
00E000
004000
ENDCHAR
ENDFONT
